{
.appVersion = "3516";
.formatVersion = 3;
axes = (
{
name = Weight;
tag = wght;
},
{
name = Width;
tag = wdth;
}
);
classes = (
{
automatic = 1;

glyphs = (
{
glyphname = A;
kernLeft = A;
kernRight = A;
layers = (
{
anchors = (
{
name = bottom;
pos = (292,0);
},
{
name = ogonek;
pos = (616,0);
},
{
name = top;
pos = (430,688);
}
);
background = {
anchors = (
{
name = bottom;
pos = (292,0);
},
{
name = ogonek;
pos = (585,0);
},
{
name = top;
pos = (430,688);
}
);
shapes = (
{
closed = 1;
nodes = (
(22,0,l),
(161,222,l),
(505,222,l),
(548,0,l),
(585,0,l),
(448,688,l),
(413,688,l),
(-17,0,l)
);
},
{
closed = 1;
nodes = (
(419,637,l),
(424,637,l),
(498,256,l),
(182,256,l)
);
}
);
};
layerId = "CD898CA3-FB76-4965-A23E-9AA06D1CE2B1";
shapes = (
{
closed = 1;
nodes = (
(21,0,l),
(389,591,l),
(380,636,l),
(-17,0,l)
);
},
{
closed = 1;
nodes = (
(586,0,l),
(448,688,l),
(411,688,l),
(496,256,l),
(227,256,l),
(206,222,l),
(503,222,l),
(547,0,l)
);
}
);
width = 683;
},
{
anchors = (
{
name = bottom;
pos = (303,0);
},
{
name = ogonek;
pos = (647,0);
},
{
name = top;
pos = (441,688);
}
);
background = {
anchors = (
{
name = bottom;
pos = (303,0);
},
{
name = ogonek;
pos = (647,0);
},
{
name = top;
pos = (441,688);
}
);
shapes = (
{
closed = 1;
nodes = (
(174,0,l),
(220,103,l),
(419,103,l),
(422,0,l),
(647,0,l),
(603,688,l),
(278,688,l),
(-59,0,l)
);
},
{
closed = 1;
nodes = (
(399,500,l),
(408,500,l),
(414,263,l),
(292,263,l)
);
}
);
};
guides = (
{
angle = -82.1467;
pos = (357,471);
},
{
angle = -82.1467;
pos = (323,471);
},
{
angle = 63.9736;
pos = (258,171);
},
{
angle = 63.9736;
pos = (292,171);
}
);
layerId = "B4DE345C-CFDB-4A54-B125-3358BD91D59F";
shapes = (
{
closed = 1;
nodes = (
(174,0,l),
(341,342,l),
(300,639,l),
(-60,0,l)
);
},
{
closed = 1;
nodes = (
(647,0,l),
(557,688,l),
(327,688,l),
(387,253,l),
(332,253,l),
(254,93,l),
(409,93,l),
(423,0,l)
);
}
);
width = 697;
},
{
anchors = (
{
name = bottom;
pos = (314,0);
},
{
name = ogonek;
pos = (653,0);
},
{
name = top;
pos = (452,688);
}
);
background = {
anchors = (
{
name = bottom;
pos = (314,0);
},
{
name = ogonek;
pos = (643,0);
},
{
name = top;
pos = (452,688);
}
);
shapes = (
{
closed = 1;
nodes = (
(100,0,l),
(195,162,l),
(489,162,l),
(516,0,l),
(643,0,l),
(537,688,l),
(368,688,l),
(-31,0,l)
);
},
{
closed = 1;
nodes = (
(425,568,l),
(431,568,l),
(478,264,l),
(248,264,l)
);
}
);
};
guides = (
{
angle = -80.4216;
pos = (503,80);
},
{
angle = -80.4216;
pos = (462,80);
},
{
angle = 60.2308;
pos = (286,254);
}
);
layerId = "20A7088A-67D7-4614-84CF-19C576DDC019";
shapes = (
{
closed = 1;
nodes = (
(100,0,l),
(390,507,l),
(362,674,l),
(-31,0,l)
);
},
{
closed = 1;
nodes = (
(643,0,l),
(519,688,l),
(400,688,l),
(472,264,l),
(292,264,l),
(233,162,l),
(489,162,l),
(516,0,l)
);
}
);
width = 713;
},
{
anchors = (
{
name = bottom;
pos = (107,0);
},
{
name = ogonek;
pos = (278,0);
},
{
name = top;
pos = (254,688);
}
);
background = {
anchors = (
{
name = bottom;
pos = (107,0);
},
{
name = ogonek;
pos = (258,0);
},
{
name = top;
pos = (254,688);
}
);
shapes = (
{
closed = 1;
nodes = (
(-2,0,l),
(82,215,l),
(230,215,l),
(223,0,l),
(258,0,l),
(278,688,l),
(235,688,l),
(-39,0,l)
);
},
{
closed = 1;
nodes = (
(238,611,l),
(243,611,l),
(231,249,l),
(96,249,l)
);
}
);
};
layerId = UUID0;
shapes = (
{
closed = 1;
nodes = (
(-2,0,l),
(204,525,l),
(207,619,l),
(-39,0,l)
);
},
{
closed = 1;
nodes = (
(259,0,l),
(278,688,l),
(246,688,l),
(230,249,l),
(129,249,l),
(116,215,l),
(229,215,l),
(223,0,l)
);
}
);
width = 327;
},
{
anchors = (
{
name = bottom;
pos = (120,0);
},
{
name = ogonek;
pos = (295,0);
},
{
name = top;
pos = (269,688);
}
);
background = {
anchors = (
{
name = bottom;
pos = (120,0);
},
{
name = ogonek;
pos = (295,0);
},
{
name = top;
pos = (269,688);
}
);
shapes = (
{
closed = 1;
nodes = (
(88,0,l),
(126,134,l),
(181,134,l),
(160,0,l),
(295,0,l),
(375,688,l),
(166,688,l),
(-47,0,l)
);
},
{
closed = 1;
nodes = (
(239,563,l),
(248,563,l),
(201,258,l),
(158,258,l)
);
}
);
};
guides = (
{
angle = 266.105;
pos = (195,453);
}
);
layerId = "2A096AB6-16C2-4C34-8164-FCBBBF8CEAEB";
shapes = (
{
closed = 1;
nodes = (
(88,0,l),
(158,254,l),
(187,688,l),
(-48,0,l)
);
},
{
closed = 1;
nodes = (
(295,0,l),
(353,688,l),
(211,688,l),
(179,218,l),
(167,218,l),
(132,93,l),
(171,93,l),
(165,0,l)
);
}
);
width = 355;
},
{
anchors = (
{
name = bottom;
pos = (124,0);
},
{
name = ogonek;
pos = (290,0);
},
{
name = top;
pos = (269,688);
}
);
background = {
anchors = (
{
name = bottom;
pos = (124,0);
},
{
name = ogonek;
pos = (290,0);
},
{
name = top;
pos = (269,688);
}
);
shapes = (
{
closed = 1;
nodes = (
(35,0,l),
(103,183,l),
(224,183,l),
(214,0,l),
(290,0,l),
(327,688,l),
(215,688,l),
(-41,0,l)
);
},
{
closed = 1;
nodes = (
(247,589,l),
(252,589,l),
(227,252,l),
(129,252,l)
);
}
);
};
layerId = "B988E418-9469-42FB-AD32-095B8D65BEE5";
shapes = (
{
closed = 1;
nodes = (
(35,0,l),
(209,461,l),
(225,688,l),
(-41,0,l)
);
},
{
closed = 1;
nodes = (
(290,0,l),
(326,688,l),
(256,688,l),
(227,252,l),
(164,252,l),
(141,183,l),
(224,183,l),
(214,0,l)
);
}
);
width = 357;
},
{
anchors = (
{
name = bottom;
pos = (351,0);
},
{
name = ogonek;
pos = (759,0);
},
{
name = top;
pos = (497,688);
}
);
background = {
anchors = (
{
name = bottom;
pos = (351,0);
},
{
name = ogonek;
pos = (759,0);
},
{
name = top;
pos = (497,688);
}
);
shapes = (
{
closed = 1;
nodes = (
(202,0,l),
(251,95,l),
(495,95,l),
(505,0,l),
(759,0,l),
(676,688,l),
(314,688,l),
(-62,0,l)
);
},
{
closed = 1;
nodes = (
(450,483,l),
(460,483,l),
(481,265,l),
(335,265,l)
);
}
);
};
guides = (
{
angle = 61.727;
pos = (336,185);
},
{
angle = -80.6036;
pos = (424,477);
}
);
layerId = "8AB9AFA2-7010-440B-BFFC-1C7CDFA1A370";
shapes = (
{
closed = 1;
nodes = (
(202,0,l),
(401,370,l),
(349,688,l),
(-62,0,l)
);
},
{
closed = 1;
nodes = (
(760,0,l),
(642,688,l),
(389,688,l),
(459,265,l),
(379,265,l),
(288,95,l),
(487,95,l),
(503,0,l)
);
}
);
width = 805;
},
{
anchors = (
{
name = bottom;
pos = (345,0);
},
{
name = ogonek;
pos = (730,0);
},
{
name = top;
pos = (491,688);
}
);
background = {
anchors = (
{
name = bottom;
pos = (345,0);
},
{
name = ogonek;
pos = (720,0);
},
{
name = top;
pos = (491,688);
}
);
shapes = (
{
closed = 1;
nodes = (
(101,0,l),
(208,167,l),
(561,167,l),
(597,0,l),
(720,0,l),
(569,688,l),
(415,688,l),
(-28,0,l)
);
},
{
closed = 1;
nodes = (
(469,585,l),
(475,585,l),
(538,269,l),
(273,269,l)
);
}
);
};
layerId = "8494D26F-946F-4BDA-8E04-2FD894ABFEA2";
shapes = (
{
closed = 1;
nodes = (
(99,0,l),
(434,529,l),
(406,675,l),
(-27,0,l)
);
},
{
closed = 1;
nodes = (
(720,0,l),
(570,688,l),
(452,688,l),
(538,269,l),
(317,269,l),
(253,167,l),
(561,167,l),
(597,0,l)
);
}
);
width = 799;
},
{
anchors = (
{
name = bottom;
pos = (346,0);
},
{
name = ogonek;
pos = (732,0);
},
{
name = top;
pos = (493,688);
}
);
background = {
anchors = (
{
name = bottom;
pos = (346,0);
},
{
name = ogonek;
pos = (694,0);
},
{
name = top;
pos = (493,688);
}
);
shapes = (
{
closed = 1;
nodes = (
(33,0,l),
(190,224,l),
(597,224,l),
(656,0,l),
(694,0,l),
(507,688,l),
(474,688,l),
(-6,0,l)
);
},
{
closed = 1;
nodes = (
(481,645,l),
(486,645,l),
(587,258,l),
(214,258,l)
);
}
);
};
layerId = "527899E9-AC81-44FE-89AA-146AC27955A1";
shapes = (
{
closed = 1;
nodes = (
(34,0,l),
(443,591,l),
(432,628,l),
(-5,0,l)
);
},
{
closed = 1;
nodes = (
(695,0,l),
(508,688,l),
(474,688,l),
(587,258,l),
(269,258,l),
(245,224,l),
(596,224,l),
(656,0,l)
);
}
);
width = 796;
}
);
unicode = 65;
},
{
glyphname = AE;
kernLeft = A;
kernRight = E;
layers = (
{
anchors = (
{
name = bottom;
pos = (390,0);
},
{
name = top;
pos = (536,688);
}
);
background = {
anchors = (
{
name = bottom;
pos = (390,0);
},
{
name = top;
pos = (536,688);
}
);
shapes = (
{
closed = 1;
nodes = (
(22,0,l),
(161,222,l),
(505,222,l),
(548,0,l),
(816,0,l),
(824,34,l),
(578,34,l),
(519,331,l),
(840,331,l),
(847,365,l),
(512,365,l),
(455,654,l),
(955,654,l),
(963,688,l),
(413,688,l),
(-17,0,l)
);
},
{
closed = 1;
nodes = (
(419,637,l),
(424,637,l),
(498,256,l),
(182,256,l)
);
}
);
};
layerId = "CD898CA3-FB76-4965-A23E-9AA06D1CE2B1";
shapes = (
{
closed = 1;
nodes = (
(23,0,l),
(391,592,l),
(382,638,l),
(-15,0,l)
);
},
{
closed = 1;
nodes = (
(585,0,l),
(448,688,l),
(414,688,l),
(498,256,l),
(227,256,l),
(207,222,l),
(505,222,l),
(548,0,l)
);
},
{
closed = 1;
nodes = (
(816,0,l),
(824,34,l),
(625,34,l),
(632,0,l)
);
},
{
closed = 1;
nodes = (
(840,331,l),
(847,365,l),
(559,365,l),
(566,331,l)
);
},
{
closed = 1;
nodes = (
(955,654,l),
(963,688,l),
(494,688,l),
(501,654,l)
);
}
);
width = 947;
},
{
anchors = (
{
name = bottom;
pos = (337,0);
},
{
name = top;
pos = (533,688);
}
);
background = {
anchors = (
{
name = bottom;
pos = (337,0);
},
{
name = top;
pos = (483,688);
}
);
shapes = (
{
closed = 1;
nodes = (
(174,0,l),
(220,103,l),
(419,103,l),
(422,0,l),
(870,0,l),
(906,167,l),
(636,167,l),
(630,266,l),
(880,266,l),
(915,429,l),
(619,429,l),
(613,521,l),
(981,521,l),
(1017,688,l),
(278,688,l),
(-59,0,l)
);
},
{
closed = 1;
nodes = (
(399,500,l),
(408,500,l),
(414,263,l),
(292,263,l)
);
}
);
};
guides = (
{
angle = 93.8251;
pos = (625,344);
},
{
angle = 93.8251;
pos = (660,344);
},
{
angle = 93.8251;
pos = (401,344);
},
{
angle = 93.8251;
pos = (366,344);
},
{
angle = 58.9333;
pos = (304,164);
}
);
layerId = "B4DE345C-CFDB-4A54-B125-3358BD91D59F";
shapes = (
{
closed = 1;
nodes = (
(170,0,l),
(367,327,l),
(344,670,l),
(-61,0,l)
);
},
{
closed = 1;
nodes = (
(648,0,l),
(602,688,l),
(378,688,l),
(408,241,l),
(350,241,l),
(254,81,l),
(419,81,l),
(424,0,l)
);
},
{
closed = 1;
nodes = (
(870,0,l),
(906,167,l),
(672,167,l),
(683,0,l)
);
},
{
closed = 1;
nodes = (
(880,266,l),
(915,429,l),
(654,429,l),
(666,266,l)
);
},
{
closed = 1;
nodes = (
(981,521,l),
(1017,688,l),
(637,688,l),
(647,521,l)
);
}
);
width = 961;
},
{
anchors = (
{
name = bottom;
pos = (394,0);
},
{
name = top;
pos = (540,688);
}
);
background = {
anchors = (
{
name = bottom;
pos = (394,0);
},
{
name = top;
pos = (540,688);
}
);
shapes = (
{
closed = 1;
nodes = (
(100,0,l),
(195,162,l),
(489,162,l),
(516,0,l),
(879,0,l),
(902,104,l),
(628,104,l),
(597,296,l),
(892,296,l),
(914,398,l),
(582,398,l),
(552,584,l),
(1004,584,l),
(1026,688,l),
(368,688,l),
(-31,0,l)
);
},
{
closed = 1;
nodes = (
(425,568,l),
(431,568,l),
(478,264,l),
(248,264,l)
);
}
);
};
layerId = "20A7088A-67D7-4614-84CF-19C576DDC019";
shapes = (
{
closed = 1;
nodes = (
(101,0,l),
(394,514,l),
(368,688,l),
(-31,0,l)
);
},
{
closed = 1;
nodes = (
(644,0,l),
(536,688,l),
(412,688,l),
(478,264,l),
(294,264,l),
(237,162,l),
(489,162,l),
(516,0,l)
);
},
{
closed = 1;
nodes = (
(879,0,l),
(902,104,l),
(671,104,l),
(687,0,l)
);
},
{
closed = 1;
nodes = (
(892,296,l),
(914,398,l),
(625,398,l),
(641,296,l)
);
},
{
closed = 1;
nodes = (
(1004,585,l),
(1026,688,l),
(579,688,l),
(595,585,l)
);
}
);
width = 996;
},
{
anchors = (
{
name = bottom;
pos = (168,0);
},
{
name = top;
pos = (363,688);
}
);
background = {
anchors = (
{
name = bottom;
pos = (168,0);
},
{
name = top;
pos = (314,688);
}
);
shapes = (
{
closed = 1;
nodes = (
(13,0,l),
(97,215,l),
(245,215,l),
(238,0,l),
(353,0,l),
(361,34,l),
(274,34,l),
(282,331,l),
(400,331,l),
(407,365,l),
(283,365,l),
(292,654,l),
(492,654,l),
(500,688,l),
(250,688,l),
(-24,0,l)
);
},
{
closed = 1;
nodes = (
(253,611,l),
(258,611,l),
(246,249,l),
(111,249,l)
);
}
);
};
guides = (
{
angle = 88.3349;
pos = (324,344);
},
{
angle = 68.4926;
pos = (154,253);
},
{
angle = 268.4015;
pos = (201,108);
}
);
layerId = UUID0;
shapes = (
{
closed = 1;
nodes = (
(13,0,l),
(220,526,l),
(223,615,l),
(-24,0,l)
);
},
{
closed = 1;
nodes = (
(273,0,l),
(293,688,l),
(261,688,l),
(246,249,l),
(147,249,l),
(134,215,l),
(245,215,l),
(238,0,l)
);
},
{
closed = 1;
nodes = (
(373,0,l),
(381,34,l),
(308,34,l),
(307,0,l)
);
},
{
closed = 1;
nodes = (
(420,331,l),
(427,365,l),
(318,365,l),
(316,331,l)
);
},
{
closed = 1;
nodes = (
(512,654,l),
(520,688,l),
(327,688,l),
(326,654,l)
);
}
);
width = 474;
},
{
anchors = (
{
name = bottom;
pos = (159,0);
},
{
name = top;
pos = (335,688);
}
);
background = {
anchors = (
{
name = bottom;
pos = (159,0);
},
{
name = top;
pos = (305,688);
}
);
shapes = (
{
closed = 1;
nodes = (
(92,0,l),
(130,134,l),
(185,134,l),
(164,0,l),
(378,0,l),
(405,126,l),
(313,126,l),
(332,284,l),
(431,284,l),
(458,411,l),
(347,411,l),
(364,562,l),
(496,562,l),
(523,688,l),
(170,688,l),
(-43,0,l)
);
},
{
closed = 1;
nodes = (
(243,563,l),
(252,563,l),
(205,258,l),
(162,258,l)
);
}
);
};
guides = (
{
angle = 83.4497;
pos = (363,344);
},
{
angle = 261.3136;
pos = (148,36);
},
{
angle = 71.1962;
pos = (160,140);
}
);
layerId = "2A096AB6-16C2-4C34-8164-FCBBBF8CEAEB";
shapes = (
{
closed = 1;
nodes = (
(90,0,l),
(185,279,l),
(247,687,l),
(-43,0,l)
);
},
{
closed = 1;
nodes = (
(301,0,l),
(380,688,l),
(270,688,l),
(194,196,l),
(179,196,l),
(137,72,l),
(175,72,l),
(164,0,l)
);
},
{
closed = 1;
nodes = (
(389,0,l),
(415,126,l),
(338,126,l),
(324,0,l)
);
},
{
closed = 1;
nodes = (
(441,284,l),
(468,411,l),
(371,411,l),
(356,284,l)
);
},
{
closed = 1;
nodes = (
(506,562,l),
(533,688,l),
(403,688,l),
(388,562,l)
);
}
);
width = 456;
},
{
anchors = (
{
name = bottom;
pos = (170,0);
},
{
name = top;
pos = (337,688);
}
);
background = {
anchors = (
{
name = bottom;
pos = (170,0);
},
{
name = top;
pos = (316,688);
}
);
shapes = (
{
closed = 1;
nodes = (
(45,0,l),
(113,183,l),
(234,183,l),
(224,0,l),
(383,0,l),
(400,71,l),
(304,71,l),
(317,312,l),
(431,312,l),
(447,383,l),
(321,383,l),
(333,617,l),
(513,617,l),
(530,688,l),
(225,688,l),
(-31,0,l)
);
},
{
closed = 1;
nodes = (
(257,589,l),
(262,589,l),
(237,252,l),
(139,252,l)
);
}
);
};
guides = (
{
angle = 86.9216;
pos = (349,344);
},
{
angle = 266.8722;
pos = (199,92);
},
{
angle = 68.737;
pos = (162,221);
}
);
layerId = "B988E418-9469-42FB-AD32-095B8D65BEE5";
shapes = (
{
closed = 1;
nodes = (
(46,0,l),
(218,442,l),
(229,644,l),
(-31,0,l)
);
},
{
closed = 1;
nodes = (
(300,0,l),
(337,688,l),
(261,688,l),
(238,252,l),
(174,252,l),
(148,183,l),
(234,183,l),
(224,0,l)
);
},
{
closed = 1;
nodes = (
(403,0,l),
(421,71,l),
(334,71,l),
(330,0,l)
);
},
{
closed = 1;
nodes = (
(451,312,l),
(468,383,l),
(351,383,l),
(347,312,l)
);
},
{
closed = 1;
nodes = (
(533,617,l),
(550,688,l),
(368,688,l),
(364,617,l)
);
}
);
width = 488;
},
{
anchors = (
{
name = bottom;
pos = (408,0);
},
{
name = top;
pos = (594,688);
}
);
background = {
anchors = (
{
name = bottom;
pos = (408,0);
},
{
name = top;
pos = (554,688);
}
);
shapes = (
{
closed = 1;
nodes = (
(200,0,l),
(249,95,l),
(493,95,l),
(503,0,l),
(1026,0,l),
(1064,178,l),
(735,178,l),
(725,261,l),
(1023,261,l),
(1060,434,l),
(704,434,l),
(695,510,l),
(1135,510,l),
(1173,688,l),
(312,688,l),
(-64,0,l)
);
},
{
closed = 1;
nodes = (
(448,483,l),
(458,483,l),
(479,265,l),
(333,265,l)
);
}
);
};
guides = (
{
angle = 97.043;
pos = (755,344);
},
{
angle = -84.3296;
pos = (418,466);
}
);
layerId = "8AB9AFA2-7010-440B-BFFC-1C7CDFA1A370";
shapes = (
{
closed = 1;
nodes = (
(199,0,l),
(427,374,l),
(396,688,l),
(-64,0,l)
);
},
{
closed = 1;
nodes = (
(757,0,l),
(672,688,l),
(437,688,l),
(479,265,l),
(415,265,l),
(317,96,l),
(493,96,l),
(503,0,l)
);
},
{
closed = 1;
nodes = (
(1026,0,l),
(1064,178,l),
(776,178,l),
(798,0,l)
);
},
{
closed = 1;
nodes = (
(1022,261,l),
(1060,434,l),
(744,434,l),
(765,261,l)
);
},
{
closed = 1;
nodes = (
(1136,510,l),
(1173,688,l),
(712,688,l),
(734,510,l)
);
}
);
width = 1124;
},
{
anchors = (
{
name = bottom;
pos = (439,0);
},
{
name = top;
pos = (585,688);
}
);
background = {
anchors = (
{
name = bottom;
pos = (439,0);
},
{
name = top;
pos = (585,688);
}
);
shapes = (
{
closed = 1;
nodes = (
(102,0,l),
(209,167,l),
(562,167,l),
(598,0,l),
(994,0,l),
(1016,103,l),
(698,103,l),
(656,296,l),
(999,296,l),
(1020,399,l),
(633,399,l),
(592,585,l),
(1119,585,l),
(1141,688,l),
(416,688,l),
(-27,0,l)
);
},
{
closed = 1;
nodes = (
(470,585,l),
(476,585,l),
(539,269,l),
(274,269,l)
);
}
);
};
guides = (
{
angle = 102.3788;
pos = (693,351);
}
);
layerId = "8494D26F-946F-4BDA-8E04-2FD894ABFEA2";
shapes = (
{
closed = 1;
nodes = (
(102,0,l),
(434,525,l),
(404,669,l),
(-27,0,l)
);
},
{
closed = 1;
nodes = (
(721,0,l),
(570,688,l),
(454,688,l),
(539,269,l),
(327,269,l),
(264,168,l),
(561,168,l),
(598,0,l)
);
},
{
closed = 1;
nodes = (
(994,0,l),
(1016,103,l),
(747,103,l),
(770,0,l)
);
},
{
closed = 1;
nodes = (
(999,296,l),
(1020,399,l),
(682,399,l),
(705,296,l)
);
},
{
closed = 1;
nodes = (
(1119,585,l),
(1141,688,l),
(619,688,l),
(642,585,l)
);
}
);
width = 1125;
},
{
anchors = (
{
name = bottom;
pos = (441,0);
},
{
name = top;
pos = (587,688);
}
);
background = {
anchors = (
{
name = bottom;
pos = (441,0);
},
{
name = top;
pos = (587,688);
}
);
shapes = (
{
closed = 1;
nodes = (
(24,0,l),
(181,224,l),
(588,224,l),
(647,0,l),
(967,0,l),
(975,34,l),
(675,34,l),
(595,331,l),
(983,331,l),
(990,365,l),
(585,365,l),
(507,654,l),
(1106,654,l),
(1114,688,l),
(465,688,l),
(-15,0,l)
);
},
{
closed = 1;
nodes = (
(472,645,l),
(477,645,l),
(578,258,l),
(205,258,l)
);
}
);
};
guides = (
{
angle = 105.1282;
pos = (642,339);
}
);
layerId = "527899E9-AC81-44FE-89AA-146AC27955A1";
shapes = (
{
closed = 1;
nodes = (
(24,0,l),
(436,593,l),
(426,631,l),
(-15,0,l)
);
},
{
closed = 1;
nodes = (
(684,0,l),
(498,688,l),
(466,688,l),
(578,258,l),
(259,258,l),
(237,224,l),
(588,224,l),
(646,0,l)
);
},
{
closed = 1;
nodes = (
(967,0,l),
(975,34,l),
(724,34,l),
(734,0,l)
);
},
{
closed = 1;
nodes = (
(983,331,l),
(990,365,l),
(635,365,l),
(644,331,l)
);
},
{
closed = 1;
nodes = (
(1106,654,l),
(1114,688,l),
(548,688,l),
(557,654,l)
);
}
);
width = 1109;
}
);
unicode = 198;
},
{
glyphname = B;
kernLeft = H;
kernRight = B;
layers = (
{
background = {
shapes = (
{
closed = 1;
nodes = (
(369,0,ls),
(504,0,o),
(548,62,o),
(574,128,cs),
(590,168,o),
(594,224,o),
(594,241,cs),
(594,291,o),
(574,337,o),
(498,350,c),
(499,354,l),
(576,364,o),
(623,418,o),
(644,489,cs),
(652,514,o),
(656,541,o),
(656,569,cs),
(656,640,o),
(616,688,o),
(506,688,cs),
(208,688,l),
(61,0,l)
);
},
{
closed = 1;
nodes = (
(168,332,l),
(434,332,ls),
(519,332,o),
(557,301,o),
(557,235,cs),
(557,220,o),
(555,202,o),
(551,183,cs),
(530,84,o),
(484,34,o),
(371,34,cs),
(105,34,l)
);
},
{
closed = 1;
nodes = (
(236,654,l),
(499,654,ls),
(587,654,o),
(619,624,o),
(619,565,cs),
(619,548,o),
(618,533,o),
(615,518,cs),
(598,423,o),
(530,366,o),
(438,366,c),
(175,366,l)
);
}
);
};
guides = (
{
angle = 258;
pos = (281,650);
},
{
angle = 78;
pos = (201,488);
}
);
layerId = "CD898CA3-FB76-4965-A23E-9AA06D1CE2B1";
shapes = (
{
closed = 1;
nodes = (
(97,0,l),
(244,688,l),
(208,688,l),
(61,0,l)
);
},
{
closed = 1;
nodes = (
(369,0,ls),
(504,0,o),
(548,62,o),
(574,128,cs),
(590,168,o),
(594,224,o),
(594,241,cs),
(594,291,o),
(574,337,o),
(498,350,c),
(499,354,l),
(576,364,o),
(623,418,o),
(644,489,cs),
(652,514,o),
(656,541,o),
(656,569,cs),
(656,640,o),
(616,688,o),
(506,688,cs),
(289,688,l),
(282,654,l),
(499,654,ls),
(587,654,o),
(619,624,o),
(619,565,cs),
(619,548,o),
(618,533,o),
(615,518,cs),
(598,423,o),
(530,366,o),
(438,366,c),
(221,366,l),
(214,332,l),
(434,332,ls),
(519,332,o),
(557,301,o),
(557,235,cs),
(557,220,o),
(555,202,o),
(551,183,cs),
(530,84,o),
(484,34,o),
(371,34,cs),
(151,34,l),
(143,0,l)
);
}
);
width = 687;
},
{
background = {
shapes = (
{
closed = 1;
nodes = (
(360,0,ls),
(524,0,o),
(579,59,o),
(605,176,cs),
(610,199,o),
(612,219,o),
(612,236,cs),
(612,310,o),
(575,332,o),
(516,349,c),
(516,353,l),
(602,372,o),
(652,411,o),
(674,507,cs),
(678,525,o),
(680,541,o),
(680,556,cs),
(680,642,o),
(612,688,o),
(499,688,cs),
(141,688,l),
(-5,0,l)
);
},
{
closed = 1;
nodes = (
(284,279,l),
(332,279,ls),
(371,279,o),
(384,275,o),
(384,253,cs),
(384,245,o),
(382,234,o),
(379,219,cs),
(368,166,o),
(361,161,o),
(307,161,c),
(259,161,l)
);
},
{
closed = 1;
nodes = (
(336,527,l),
(384,527,ls),
(423,527,o),
(437,524,o),
(437,503,cs),
(437,495,o),
(435,485,o),
(432,471,cs),
(422,422,o),
(415,416,o),
(361,416,c),
(313,416,l)
);
}
);
};
guides = (
{
angle = 78;
pos = (334,519);
},
{
angle = 258;
pos = (388,611);
}
);
layerId = "B4DE345C-CFDB-4A54-B125-3358BD91D59F";
shapes = (
{
closed = 1;
nodes = (
(222,0,l),
(370,688,l),
(141,688,l),
(-5,0,l)
);
},
{
closed = 1;
nodes = (
(360,0,ls),
(524,0,o),
(579,59,o),
(605,176,cs),
(610,199,o),
(612,219,o),
(612,236,cs),
(612,310,o),
(575,332,o),
(516,349,c),
(516,353,l),
(602,372,o),
(652,411,o),
(674,507,cs),
(678,525,o),
(680,541,o),
(680,556,cs),
(680,642,o),
(612,688,o),
(499,688,cs),
(404,688,l),
(370,527,l),
(384,527,ls),
(423,527,o),
(437,524,o),
(437,503,cs),
(437,495,o),
(435,485,o),
(432,471,cs),
(422,422,o),
(415,416,o),
(361,416,cs),
(347,416,l),
(318,279,l),
(332,279,ls),
(371,279,o),
(384,275,o),
(384,253,cs),
(384,245,o),
(382,234,o),
(379,219,cs),
(368,166,o),
(361,161,o),
(307,161,cs),
(293,161,l),
(259,0,l)
);
}
);
width = 645;
},
{
background = {
shapes = (
{
closed = 1;
nodes = (
(398,0,ls),
(542,0,o),
(600,67,o),
(623,159,cs),
(628,182,o),
(631,207,o),
(631,232,cs),
(631,296,o),
(602,334,o),
(530,349,c),
(531,353,l),
(615,367,o),
(668,413,o),
(689,493,cs,{
name = "0.8 ⛔️";
}),
(694,514,o),
(697,536,o),
(697,559,cs),
(697,640,o),
(641,688,o),
(518,688,cs),
(187,688,l),
(40,0,l)
);
},
{
closed = 1;
nodes = (
(233,301,l),
(406,301,ls),
(476,301,o),
(504,283,o),
(504,238,cs),
(504,227,o),
(502,215,o),
(499,201,cs),
(483,127,o),
(454,102,o),
(364,102,cs),
(190,102,l)
);
},
{
closed = 1;
nodes = (
(293,586,l),
(464,586,ls),
(534,586,o),
(559,571,o),
(559,530,cs),
(559,515,o),
(558,502,o),
(555,489,cs),
(542,423,o),
(500,395,o),
(423,395,cs),
(253,395,l)
);
}
);
};
guides = (
{
angle = 78;
pos = (367,746);
},
{
angle = 78;
pos = (327,744);
}
);
layerId = "20A7088A-67D7-4614-84CF-19C576DDC019";
shapes = (
{
closed = 1;
nodes = (
(169,0,l),
(315,688,l),
(187,688,l),
(40,0,l)
);
},
{
closed = 1;
nodes = (
(398,0,ls),
(542,0,o),
(600,67,o),
(623,159,cs),
(628,182,o),
(631,207,o),
(631,232,cs),
(631,296,o),
(602,334,o),
(530,349,c),
(531,353,l),
(615,367,o),
(668,413,o),
(689,493,cs,{
name = "0.8 ⛔️";
}),
(694,514,o),
(697,536,o),
(697,559,cs),
(697,640,o),
(641,688,o),
(518,688,cs),
(355,688,l),
(333,586,l),
(464,586,ls),
(534,586,o),
(559,571,o),
(559,530,cs),
(559,515,o),
(558,502,o),
(555,489,cs),
(542,423,o),
(500,395,o),
(423,395,cs),
(293,395,l),
(273,301,l),
(406,301,ls),
(476,301,o),
(504,283,o),
(504,238,cs),
(504,227,o),
(502,215,o),
(499,201,cs),
(483,127,o),
(454,102,o),
(364,102,cs),
(230,102,l),
(209,0,l)
);
}
);
width = 696;
},
{
background = {
shapes = (
{
closed = 1;
nodes = (
(111,0,ls),
(223,0,o),
(263,70,o),
(284,165,cs),
(291,195,o),
(295,223,o),
(295,255,cs),
(295,301,o),
(278,338,o),
(226,350,c),
(227,354,l),
(291,365,o),
(324,406,o),
(346,486,cs),
(354,517,o),
(359,551,o),
(359,589,cs),
(359,650,o),
(331,688,o),
(244,688,cs),
(151,688,l),
(6,0,l)
);
},
{
closed = 1;
nodes = (
(111,332,l),
(175,332,ls),
(231,332,o),
(258,308,o),
(258,250,cs),
(258,231,o),
(255,210,o),
(250,183,cs),
(229,80,o),
(193,34,o),
(112,34,cs),
(47,34,l)
);
},
{
closed = 1;
nodes = (
(179,654,l),
(241,654,ls),
(300,654,o),
(323,636,o),
(323,579,cs),
(323,541,o),
(315,509,o),
(307,481,cs),
(280,395,o),
(230,366,o),
(176,366,cs),
(118,366,l)
);
}
);
};
guides = (
{
angle = 78;
pos = (201,757);
},
{
angle = 78;
pos = (237,757);
}
);
layerId = UUID0;
shapes = (
{
closed = 1;
nodes = (
(40,0,l),
(186,688,l),
(151,688,l),
(6,0,l)
);
},
{
closed = 1;
nodes = (
(111,0,ls),
(223,0,o),
(263,70,o),
(284,165,cs),
(291,195,o),
(295,223,o),
(295,255,cs),
(295,301,o),
(278,338,o),
(226,350,c),
(227,354,l),
(291,365,o),
(324,406,o),
(346,486,cs),
(354,517,o),
(359,551,o),
(359,589,cs),
(359,650,o),
(331,688,o),
(244,688,cs),
(223,688,l),
(215,654,l),
(241,654,ls),
(300,654,o),
(323,636,o),
(323,579,cs),
(323,541,o),
(315,509,o),
(307,481,cs),
(280,395,o),
(230,366,o),
(176,366,cs),
(154,366,l),
(147,332,l),
(175,332,ls),
(231,332,o),
(258,308,o),
(258,250,cs),
(258,231,o),
(255,210,o),
(250,183,cs),
(229,80,o),
(193,34,o),
(112,34,cs),
(83,34,l),
(76,0,l)
);
}
);
width = 329;
},
{
background = {
shapes = (
{
closed = 1;
nodes = (
(144,0,ls),
(253,0,o),
(297,60,o),
(324,185,cs),
(331,220,o),
(335,247,o),
(335,269,cs),
(335,320,o),
(316,339,o),
(288,349,c),
(288,353,l),
(335,368,o),
(371,413,o),
(388,515,cs),
(392,539,o),
(393,560,o),
(393,578,cs),
(393,655,o),
(335,688,o),
(276,688,cs),
(130,688,l),
(-17,0,l)
);
},
{
closed = 1;
nodes = (
(175,285,l),
(184,285,ls),
(198,285,o),
(205,283,o),
(205,266,cs),
(205,255,o),
(202,236,o),
(196,206,cs),
(180,130,o),
(179,126,o),
(150,126,cs),
(141,126,l)
);
},
{
closed = 1;
nodes = (
(234,562,l),
(243,562,ls),
(259,562,o),
(265,560,o),
(265,546,cs),
(265,535,o),
(261,517,o),
(255,488,cs),
(240,418,o),
(238,410,o),
(211,410,cs),
(201,410,l)
);
}
);
};
guides = (
{
angle = 258;
pos = (293,745);
},
{
angle = 78;
pos = (273,744);
}
);
layerId = "2A096AB6-16C2-4C34-8164-FCBBBF8CEAEB";
shapes = (
{
closed = 1;
nodes = (
(115,0,l),
(261,688,l),
(130,688,l),
(-17,0,l)
);
},
{
closed = 1;
nodes = (
(144,0,ls),
(253,0,o),
(297,60,o),
(324,185,cs),
(331,220,o),
(335,247,o),
(335,269,cs),
(335,320,o),
(316,339,o),
(288,349,c),
(288,353,l),
(335,368,o),
(371,413,o),
(388,515,cs),
(392,539,o),
(393,560,o),
(393,578,cs),
(393,655,o),
(337,688,o),
(283,688,cs),
(281,688,l),
(254,562,l),
(256,562,ls),
(264,562,o),
(269,558,o),
(269,546,cs),
(269,535,o),
(265,517,o),
(259,488,cs),
(244,420,o),
(241,410,o),
(224,410,cs),
(222,410,l),
(195,285,l),
(197,285,ls),
(203,285,o),
(209,283,o),
(209,269,cs),
(209,258,o),
(206,236,o),
(200,206,cs),
(184,130,o),
(180,126,o),
(163,126,cs),
(161,126,l),
(135,0,l)
);
}
);
width = 345;
},
{
background = {
shapes = (
{
closed = 1;
nodes = (
(221,688,l),
(144,688,l),
(-2,0,l),
(75,0,l)
);
},
{
closed = 1;
nodes = (
(236,617,l),
(249,617,ls),
(292,617,o),
(310,602,o),
(310,562,cs),
(310,540,o),
(304,515,o),
(297,486,cs),
(277,403,o),
(244,384,o),
(200,384,cs),
(186,384,l),
(171,313,l),
(189,313,ls),
(229,313,o),
(248,297,o),
(248,257,cs),
(248,241,o),
(245,221,o),
(240,192,cs),
(223,102,o),
(200,71,o),
(140,71,cs),
(120,71,l),
(105,0,l),
(139,0,ls),
(244,0,o),
(288,60,o),
(312,162,cs),
(320,197,o),
(325,230,o),
(325,256,cs),
(325,308,o),
(308,340,o),
(263,351,c),
(263,355,l),
(332,366,o),
(359,406,o),
(378,495,cs),
(384,524,o),
(388,554,o),
(388,583,cs),
(388,652,o),
(349,688,o),
(265,688,cs),
(251,688,l)
);
}
);
};
guides = (
{
angle = 78;
pos = (233,744);
},
{
angle = 258;
pos = (263,746);
}
);
layerId = "B988E418-9469-42FB-AD32-095B8D65BEE5";
shapes = (
{
closed = 1;
nodes = (
(75,0,l),
(221,688,l),
(144,688,l),
(-2,0,l)
);
},
{
closed = 1;
nodes = (
(139,0,ls),
(244,0,o),
(288,60,o),
(312,162,cs),
(320,197,o),
(325,230,o),
(325,256,cs),
(325,308,o),
(308,340,o),
(263,351,c),
(263,355,l),
(332,366,o),
(359,406,o),
(378,495,cs),
(384,524,o),
(388,554,o),
(388,583,cs),
(388,652,o),
(349,688,o),
(265,688,cs),
(251,688,l),
(236,617,l),
(249,617,ls),
(292,617,o),
(310,602,o),
(310,562,cs),
(310,540,o),
(304,515,o),
(297,486,cs),
(277,403,o),
(244,384,o),
(200,384,cs),
(186,384,l),
(171,313,l),
(189,313,ls),
(229,313,o),
(248,297,o),
(248,257,cs),
(248,241,o),
(245,221,o),
(240,192,cs),
(223,102,o),
(200,71,o),
(140,71,cs),
(120,71,l),
(105,0,l)
);
}
);
width = 352;
},
{
background = {
shapes = (
{
closed = 1;
nodes = (
(425,0,ls),
(576,0,o),
(644,45,o),
(675,115,cs),
(690,149,o),
(700,187,o),
(700,230,cs),
(700,308,o),
(656,330,o),
(589,349,c),
(589,353,l),
(670,366,o),
(730,409,o),
(756,475,cs),
(765,498,o),
(771,524,o),
(771,552,cs),
(771,638,o),
(697,688,o),
(573,688,cs),
(145,688,l),
(-1,0,l)
);
},
{
closed = 1;
nodes = (
(320,278,l),
(379,278,ls),
(427,278,o),
(441,273,o),
(441,250,cs),
(441,243,o),
(440,232,o),
(437,221,cs),
(426,174,o),
(419,170,o),
(357,170,cs),
(297,170,l)
);
},
{
closed = 1;
nodes = (
(371,518,l),
(430,518,ls),
(476,518,o),
(492,514,o),
(492,492,cs),
(492,485,o),
(490,477,o),
(488,467,cs),
(478,424,o),
(475,417,o),
(408,417,cs),
(349,417,l)
);
}
);
};
guides = (
{
angle = 78;
pos = (419,744);
},
{
angle = 258;
pos = (458,745);
}
);
layerId = "8AB9AFA2-7010-440B-BFFC-1C7CDFA1A370";
shapes = (
{
closed = 1;
nodes = (
(261,0,l),
(407,688,l),
(145,688,l),
(-1,0,l)
);
},
{
closed = 1;
nodes = (
(425,0,ls),
(576,0,o),
(644,45,o),
(675,115,cs),
(690,149,o),
(700,187,o),
(700,230,cs),
(700,308,o),
(656,330,o),
(589,349,c),
(589,353,l),
(670,366,o),
(730,409,o),
(756,475,cs),
(765,498,o),
(771,524,o),
(771,552,cs),
(771,638,o),
(697,688,o),
(573,688,cs),
(446,688,l),
(410,518,l),
(430,518,ls),
(476,518,o),
(492,514,o),
(492,492,cs),
(492,485,o),
(490,477,o),
(488,467,cs),
(478,424,o),
(475,417,o),
(408,417,cs),
(388,417,l),
(358,278,l),
(379,278,ls),
(427,278,o),
(441,273,o),
(441,250,cs),
(441,243,o),
(440,232,o),
(437,221,cs),
(426,174,o),
(419,170,o),
(357,170,cs),
(335,170,l),
(299,0,l)
);
}
);
width = 740;
},
{
background = {
shapes = (
{
closed = 1;
nodes = (
(460,0,ls),
(612,0,o),
(671,65,o),
(694,149,cs),
(701,174,o),
(704,205,o),
(704,228,cs),
(704,292,o),
(671,333,o),
(594,349,c),
(595,353,l),
(685,367,o),
(739,416,o),
(761,493,cs),
(766,512,o),
(770,534,o),
(770,557,cs),
(770,638,o),
(712,688,o),
(582,688,cs),
(205,688,l),
(57,0,l)
);
},
{
closed = 1;
nodes = (
(241,297,l),
(471,297,ls),
(552,297,o),
(584,276,o),
(584,228,cs),
(584,218,o),
(583,208,o),
(581,195,c),
(566,129,o),
(529,103,o),
(426,103,cs),
(199,103,l)
);
},
{
closed = 1;
nodes = (
(303,585,l),
(529,585,ls),
(610,585,o),
(639,569,o),
(639,526,cs),
(639,513,o),
(638,503,o),
(636,493,cs),
(624,431,o),
(575,399,o),
(485,399,cs),
(263,399,l)
);
}
);
};
guides = (
{
angle = 78;
pos = (392,796);
},
{
angle = 78;
pos = (347,794);
}
);
layerId = "8494D26F-946F-4BDA-8E04-2FD894ABFEA2";
shapes = (
{
closed = 1;
nodes = (
(178,0,l),
(324,688,l),
(205,688,l),
(57,0,l)
);
},
{
closed = 1;
nodes = (
(460,0,ls),
(612,0,o),
(671,65,o),
(694,149,cs),
(701,174,o),
(704,205,o),
(704,228,cs),
(704,292,o),
(671,333,o),
(594,349,c),
(595,353,l),
(685,367,o),
(739,416,o),
(761,493,cs),
(766,512,o),
(770,534,o),
(770,557,cs),
(770,638,o),
(712,688,o),
(582,688,cs),
(370,688,l),
(348,585,l),
(529,585,ls),
(610,585,o),
(639,569,o),
(639,526,cs),
(639,513,o),
(638,503,o),
(636,493,cs),
(624,431,o),
(575,399,o),
(485,399,cs),
(308,399,l),
(286,297,l),
(471,297,ls),
(552,297,o),
(584,276,o),
(584,228,cs),
(584,218,o),
(583,208,o),
(581,195,c),
(566,129,o),
(529,103,o),
(426,103,cs),
(245,103,l),
(223,0,l)
);
}
);
width = 785;
},
{
background = {
shapes = (
{
closed = 1;
nodes = (
(451,0,ls),
(629,0,o),
(668,97,o),
(684,177,cs),
(688,195,o),
(690,218,o),
(690,238,cs),
(690,288,o),
(669,337,o),
(585,350,c),
(586,354,l),
(671,363,o),
(723,424,o),
(742,498,cs),
(748,520,o),
(751,543,o),
(751,567,cs),
(751,639,o),
(709,688,o),
(590,688,cs),
(226,688,l),
(79,0,l)
);
},
{
closed = 1;
nodes = (
(186,332,l),
(517,332,ls),
(611,332,o),
(652,301,o),
(652,231,cs),
(652,216,o),
(651,196,o),
(647,179,cs),
(626,81,o),
(574,34,o),
(451,34,cs),
(123,34,l)
);
},
{
closed = 1;
nodes = (
(254,654,l),
(581,654,ls),
(679,654,o),
(714,622,o),
(714,561,cs),
(714,538,o),
(711,517,o),
(706,498,cs),
(684,416,o),
(616,366,o),
(520,366,cs),
(193,366,l)
);
}
);
};
guides = (
{
angle = 78;
pos = (335,798);
},
{
angle = 78;
pos = (284,794);
}
);
layerId = "527899E9-AC81-44FE-89AA-146AC27955A1";
shapes = (
{
closed = 1;
nodes = (
(115,0,l),
(261,688,l),
(226,688,l),
(79,0,l)
);
},
{
closed = 1;
nodes = (
(451,0,ls),
(629,0,o),
(668,97,o),
(684,177,cs),
(688,195,o),
(690,218,o),
(690,238,cs),
(690,288,o),
(669,337,o),
(585,350,c),
(586,354,l),
(671,363,o),
(723,424,o),
(742,498,cs),
(748,520,o),
(751,543,o),
(751,567,cs),
(751,639,o),
(709,688,o),
(590,688,cs),
(312,688,l),
(305,654,l),
(581,654,ls),
(679,654,o),
(714,622,o),
(714,561,cs),
(714,538,o),
(711,517,o),
(706,498,cs),
(684,416,o),
(616,366,o),
(520,366,cs),
(244,366,l),
(236,332,l),
(517,332,ls),
(611,332,o),
(652,301,o),
(652,231,cs),
(652,216,o),
(651,196,o),
(647,179,cs),
(626,81,o),
(574,34,o),
(451,34,cs),
(173,34,l),
(166,0,l)
);
}
);
width = 802;
}
);
unicode = 66;
},
{
glyphname = C;
kernLeft = O;
kernRight = C;
layers = (
{
anchors = (
{
name = bottom;
pos = (255,0);
},
{
name = top;
pos = (401,688);
}
);
background = {
anchors = (
{
name = bottom;
pos = (255,0);
},
{
name = top;
pos = (401,688);
}
);
shapes = (
{
closed = 1;
nodes = (
(355,-8,o),
(413,-4,o),
(455,2,c),
(462,36,l),
(421,30,o),
(360,26,o),
(314,26,cs),
(165,26,o),
(109,38,o),
(109,139,cs),
(109,186,o),
(121,251,o),
(141,344,cs),
(203,637,o),
(231,662,o),
(449,662,cs),
(493,662,o),
(550,658,o),
(589,652,c),
(596,684,l),
(557,691,o),
(490,696,o),
(436,696,cs),
(215,696,o),
(169,658,o),
(105,344,cs),
(86,253,o),
(75,186,o),
(75,136,cs),
(75,9,o),
(142,-8,o),
(305,-8,cs)
);
}
);
};
guides = (
{
angle = 258;
pos = (252,650);
},
{
angle = 78;
pos = (172,488);
}
);
layerId = "CD898CA3-FB76-4965-A23E-9AA06D1CE2B1";
shapes = (
{
closed = 1;
nodes = (
(355,-8,o),
(413,-4,o),
(455,2,c),
(462,36,l),
(421,30,o),
(360,26,o),
(314,26,cs),
(165,26,o),
(109,38,o),
(109,139,cs),
(109,186,o),
(121,251,o),
(141,344,cs),
(202,627,l),
(160,576,o),
(135,490,o),
(105,344,cs),
(86,253,o),
(75,186,o),
(75,136,cs),
(75,9,o),
(142,-8,o),
(305,-8,cs)
);
},
{
closed = 1;
nodes = (
(288,657,o),
(348,662,o),
(449,662,cs),
(493,662,o),
(550,658,o),
(589,652,c),
(596,684,l),
(557,691,o),
(490,696,o),
(436,696,cs),
(356,696,o),
(299,691,o),
(256,670,c),
(246,622,l)
);
}
);
width = 578;
},
{
anchors = (
{
name = bottom;
pos = (257,0);
},
{
name = top;
pos = (403,688);
}
);
background = {
anchors = (
{
name = bottom;
pos = (257,0);
},
{
name = top;
pos = (403,688);
}
);
shapes = (
{
closed = 1;
nodes = (
(347,-8,o),
(428,-1,o),
(475,8,c),
(509,167,l),
(469,162,o),
(412,159,o),
(372,159,cs),
(296,159,o),
(269,165,o),
(269,212,cs),
(269,232,o),
(279,281,o),
(292,344,cs),
(330,525,o),
(333,529,o),
(451,529,cs),
(470,529,o),
(500,527,o),
(580,521,c),
(613,677,l),
(569,688,o),
(491,696,o),
(427,696,cs),
(162,696,o),
(128,643,o),
(57,344,cs),
(38,265,o),
(30,203,o),
(30,154,cs),
(30,33,o),
(111,-8,o),
(282,-8,cs)
);
}
);
};
guides = (
{
angle = 78;
pos = (329,519);
},
{
angle = 258;
pos = (383,611);
}
);
layerId = "B4DE345C-CFDB-4A54-B125-3358BD91D59F";
shapes = (
{
closed = 1;
nodes = (
(347,-8,o),
(428,-1,o),
(475,8,c),
(509,167,l),
(469,162,o),
(412,159,o),
(372,159,cs),
(296,159,o),
(269,165,o),
(269,212,cs),
(269,232,o),
(279,281,o),
(292,344,cs),
(366,695,l),
(157,686,o),
(123,619,o),
(57,344,cs),
(38,265,o),
(30,203,o),
(30,154,cs),
(30,33,o),
(111,-8,o),
(282,-8,cs)
);
},
{
closed = 1;
nodes = (
(383,529,o),
(410,529,o),
(451,529,cs),
(470,529,o),
(500,527,o),
(580,521,c),
(613,677,l),
(569,688,o),
(491,696,o),
(427,696,cs),
(418,696,o),
(410,696,o),
(401,696,c),
(364,520,l)
);
}
);
width = 550;
},
{
anchors = (
{
name = bottom;
pos = (272,0);
},
{
name = top;
pos = (418,688);
}
);
background = {
anchors = (
{
name = bottom;
pos = (272,0);
},
{
name = top;
pos = (418,688);
}
);
shapes = (
{
closed = 1;
nodes = (
(365,-8,o),
(437,-3,o),
(481,5,c),
(503,106,l),
(461,100,o),
(399,96,o),
(355,96,cs),
(229,96,o),
(185,105,o),
(185,184,cs),
(185,221,o),
(195,272,o),
(210,344,cs),
(258,572,o),
(273,592,o),
(460,592,cs),
(492,592,o),
(542,589,o),
(600,582,c),
(621,680,l),
(577,689,o),
(499,696,o),
(437,696,cs),
(189,696,o),
(148,641,o),
(80,344,cs),
(62,266,o),
(54,207,o),
(54,161,cs),
(54,26,o),
(127,-8,o),
(310,-8,cs)
);
}
);
};
guides = (
{
angle = 78;
pos = (246,513);
},
{
angle = 258;
pos = (311,631);
}
);
layerId = "20A7088A-67D7-4614-84CF-19C576DDC019";
shapes = (
{
closed = 1;
nodes = (
(365,-8,o),
(437,-3,o),
(481,5,c),
(503,106,l),
(461,100,o),
(399,96,o),
(355,96,cs),
(229,96,o),
(185,105,o),
(185,184,cs),
(185,221,o),
(195,272,o),
(210,344,cs),
(282,682,l),
(166,651,o),
(130,563,o),
(80,344,cs),
(62,266,o),
(54,207,o),
(54,161,cs),
(54,26,o),
(127,-8,o),
(310,-8,cs)
);
},
{
closed = 1;
nodes = (
(330,588,o),
(379,592,o),
(460,592,cs),
(492,592,o),
(542,589,o),
(600,582,c),
(621,680,l),
(577,689,o),
(499,696,o),
(437,696,cs),
(393,696,o),
(356,694,o),
(324,690,c),
(297,565,l)
);
}
);
width = 591;
},
{
anchors = (
{
name = bottom;
pos = (111,0);
},
{
name = top;
pos = (257,688);
}
);
background = {
anchors = (
{
name = bottom;
pos = (111,0);
},
{
name = top;
pos = (257,688);
}
);
shapes = (
{
closed = 1;
nodes = (
(144,-8,o),
(168,-4,o),
(182,2,c),
(189,36,l),
(174,30,o),
(147,26,o),
(129,26,cs),
(79,26,o),
(55,38,o),
(55,100,cs),
(55,148,o),
(70,223,o),
(95,344,cs),
(153,625,o),
(172,662,o),
(264,662,cs),
(281,662,o),
(304,657,o),
(319,652,c),
(326,684,l),
(311,691,o),
(279,696,o),
(255,696,cs),
(152,696,o),
(119,646,o),
(59,344,cs),
(35,224,o),
(21,147,o),
(21,94,cs),
(21,12,o),
(54,-8,o),
(127,-8,cs)
);
}
);
};
guides = (
{
angle = 78;
pos = (183,757);
},
{
angle = 78;
pos = (219,757);
}
);
layerId = UUID0;
shapes = (
{
closed = 1;
nodes = (
(144,-8,o),
(168,-4,o),
(182,2,c),
(189,36,l),
(174,30,o),
(147,26,o),
(129,26,cs),
(79,26,o),
(55,38,o),
(55,100,cs),
(55,148,o),
(69,223,o),
(95,344,cs),
(163,664,l),
(123,622,o),
(96,532,o),
(59,344,cs),
(35,224,o),
(21,147,o),
(21,94,cs),
(21,12,o),
(54,-8,o),
(127,-8,cs)
);
},
{
closed = 1;
nodes = (
(213,658,o),
(235,662,o),
(264,662,cs),
(281,662,o),
(304,657,o),
(319,652,c),
(326,684,l),
(311,691,o),
(279,696,o),
(255,696,cs),
(236,696,o),
(220,694,o),
(205,690,c),
(195,644,l)
);
}
);
width = 250;
},
{
anchors = (
{
name = bottom;
pos = (111,0);
},
{
name = top;
pos = (257,688);
}
);
background = {
anchors = (
{
name = bottom;
pos = (111,0);
},
{
name = top;
pos = (257,688);
}
);
shapes = (
{
closed = 1;
nodes = (
(141,-8,o),
(173,3,o),
(190,12,c),
(214,122,l),
(202,120,o),
(182,118,o),
(163,118,cs),
(147,118,o),
(138,121,o),
(138,145,cs),
(138,172,o),
(150,233,o),
(172,344,cs),
(215,557,o),
(222,570,o),
(257,570,cs),
(274,570,o),
(292,568,o),
(305,566,c),
(331,681,l),
(320,686,o),
(290,696,o),
(252,696,cs),
(118,696,o),
(90,589,o),
(39,344,cs),
(18,244,o),
(7,168,o),
(7,115,cs),
(7,32,o),
(34,-8,o),
(118,-8,cs)
);
}
);
};
guides = (
{
angle = 77.972;
pos = (210,520);
},
{
angle = 257.9052;
pos = (254,633);
}
);
layerId = "2A096AB6-16C2-4C34-8164-FCBBBF8CEAEB";
shapes = (
{
closed = 1;
nodes = (
(141,-8,o),
(173,3,o),
(190,12,c),
(214,122,l),
(202,120,o),
(182,118,o),
(163,118,cs),
(147,118,o),
(138,121,o),
(138,145,cs),
(138,172,o),
(148,233,o),
(172,344,cs),
(247,696,l),
(117,693,o),
(89,586,o),
(39,344,cs),
(18,244,o),
(7,168,o),
(7,115,cs),
(7,32,o),
(34,-8,o),
(118,-8,cs)
);
},
{
closed = 1;
nodes = (
(245,570,o),
(250,570,o),
(257,570,cs),
(274,570,o),
(292,568,o),
(305,566,c),
(331,681,l),
(321,686,o),
(287,695,o),
(268,695,cs),
(268,695,o),
(267,695,o),
(267,695,c),
(240,567,l)
);
}
);
width = 250;
},
{
anchors = (
{
name = bottom;
pos = (121,0);
},
{
name = top;
pos = (267,688);
}
);
background = {
anchors = (
{
name = bottom;
pos = (121,0);
},
{
name = top;
pos = (267,688);
}
);
shapes = (
{
closed = 1;
nodes = (
(157,-8,o),
(184,-1,o),
(201,6,c),
(214,71,l),
(198,66,o),
(174,63,o),
(154,63,cs),
(113,63,o),
(95,72,o),
(95,120,cs),
(95,154,o),
(110,229,o),
(133,344,cs),
(185,596,o),
(196,625,o),
(272,625,cs),
(290,625,o),
(315,621,o),
(329,617,c),
(344,682,l),
(330,688,o),
(295,696,o),
(266,696,cs),
(142,696,o),
(113,629,o),
(54,344,cs),
(32,233,o),
(19,155,o),
(19,101,cs),
(19,17,o),
(52,-8,o),
(137,-8,cs)
);
}
);
};
guides = (
{
angle = 78;
pos = (218,744);
},
{
angle = 258;
pos = (248,746);
}
);
layerId = "B988E418-9469-42FB-AD32-095B8D65BEE5";
shapes = (
{
closed = 1;
nodes = (
(157,-8,o),
(184,-1,o),
(201,6,c),
(214,71,l),
(198,66,o),
(174,63,o),
(154,63,cs),
(113,63,o),
(95,72,o),
(95,120,cs),
(95,154,o),
(109,229,o),
(133,344,cs),
(206,688,l),
(130,663,o),
(102,576,o),
(54,344,cs),
(32,233,o),
(19,155,o),
(19,101,cs),
(19,17,o),
(52,-8,o),
(137,-8,cs)
);
},
{
closed = 1;
nodes = (
(233,623,o),
(250,625,o),
(272,625,cs),
(290,625,o),
(315,621,o),
(329,617,c),
(344,682,l),
(330,688,o),
(295,696,o),
(266,696,cs),
(256,696,o),
(246,696,o),
(237,695,c),
(220,613,l)
);
}
);
width = 270;
},
{
anchors = (
{
name = bottom;
pos = (297,0);
},
{
name = top;
pos = (443,688);
}
);
background = {
anchors = (
{
name = bottom;
pos = (297,0);
},
{
name = top;
pos = (443,688);
}
);
shapes = (
{
closed = 1;
nodes = (
(410,-8,o),
(508,-2,o),
(565,7,c),
(603,184,l),
(554,178,o),
(485,174,o),
(438,174,cs),
(343,174,o),
(311,181,o),
(311,235,cs),
(311,257,o),
(319,296,o),
(329,344,cs),
(363,508,o),
(369,514,o),
(512,514,cs),
(532,514,o),
(564,512,o),
(667,504,c),
(702,676,l),
(647,687,o),
(555,696,o),
(482,696,cs),
(176,696,o),
(139,658,o),
(62,344,cs),
(44,270,o),
(37,212,o),
(37,164,cs),
(37,34,o),
(136,-8,o),
(331,-8,cs)
);
}
);
};
guides = (
{
angle = 77;
pos = (421,744);
},
{
angle = 257;
pos = (460,745);
}
);
layerId = "8AB9AFA2-7010-440B-BFFC-1C7CDFA1A370";
shapes = (
{
closed = 1;
nodes = (
(410,-8,o),
(508,-2,o),
(565,7,c),
(603,184,l),
(554,178,o),
(485,174,o),
(438,174,cs),
(343,174,o),
(311,181,o),
(311,235,cs),
(311,257,o),
(318,296,o),
(329,344,cs),
(410,695,l),
(169,688,o),
(132,631,o),
(62,344,cs),
(44,270,o),
(37,212,o),
(37,164,cs),
(37,34,o),
(136,-8,o),
(331,-8,cs)
);
},
{
closed = 1;
nodes = (
(428,513,o),
(462,514,o),
(512,514,cs),
(532,514,o),
(564,512,o),
(667,504,c),
(702,676,l),
(647,687,o),
(555,696,o),
(482,696,cs),
(470,696,o),
(459,696,o),
(449,696,c),
(405,505,l)
);
}
);
width = 642;
},
{
anchors = (
{
name = bottom;
pos = (313,0);
},
{
name = top;
pos = (459,688);
}
);
background = {
anchors = (
{
name = bottom;
pos = (313,0);
},
{
name = top;
pos = (459,688);
}
);
shapes = (
{
closed = 1;
nodes = (
(418,-8,o),
(499,-3,o),
(550,3,c),
(570,105,l),
(521,99,o),
(450,95,o),
(400,95,cs),
(245,95,o),
(193,102,o),
(193,190,cs),
(193,228,o),
(201,279,o),
(215,344,cs),
(265,574,o),
(283,593,o),
(508,593,cs),
(546,593,o),
(604,588,o),
(669,583,c),
(690,681,l),
(639,689,o),
(550,696,o),
(483,696,cs),
(208,696,o),
(163,648,o),
(92,344,cs),
(75,272,o),
(69,216,o),
(69,170,cs),
(69,24,o),
(151,-8,o),
(356,-8,cs)
);
}
);
};
guides = (
{
angle = 78;
pos = (356,796);
},
{
angle = 78;
pos = (311,794);
}
);
layerId = "8494D26F-946F-4BDA-8E04-2FD894ABFEA2";
shapes = (
{
closed = 1;
nodes = (
(418,-8,o),
(499,-3,o),
(550,3,c),
(570,105,l),
(521,99,o),
(450,95,o),
(400,95,cs),
(245,95,o),
(193,102,o),
(193,190,cs),
(193,228,o),
(201,279,o),
(215,344,cs),
(286,676,l),
(177,642,o),
(141,554,o),
(92,344,cs),
(75,272,o),
(69,216,o),
(69,170,cs),
(69,24,o),
(151,-8,o),
(356,-8,cs)
);
},
{
closed = 1;
nodes = (
(346,589,o),
(405,593,o),
(508,593,cs),
(546,593,o),
(604,588,o),
(669,583,c),
(690,681,l),
(639,689,o),
(550,696,o),
(483,696,cs),
(423,696,o),
(374,694,o),
(333,687,c),
(307,563,l)
);
}
);
width = 673;
},
{
anchors = (
{
name = bottom;
pos = (318,0);
},
{
name = top;
pos = (464,688);
}
);
background = {
anchors = (
{
name = bottom;
pos = (318,0);
},
{
name = top;
pos = (464,688);
}
);
shapes = (
{
closed = 1;
nodes = (
(422,-8,o),
(491,-4,o),
(542,2,c),
(549,36,l),
(500,30,o),
(428,26,o),
(373,26,cs),
(193,26,o),
(126,38,o),
(126,152,cs),
(126,198,o),
(137,260,o),
(155,344,cs),
(219,641,o),
(250,662,o),
(508,662,cs),
(561,662,o),
(629,659,o),
(675,652,c),
(682,684,l),
(636,691,o),
(557,696,o),
(494,696,cs),
(235,696,o),
(185,662,o),
(119,344,cs),
(102,262,o),
(92,199,o),
(92,149,cs),
(92,8,o),
(170,-8,o),
(362,-8,cs)
);
}
);
};
guides = (
{
angle = 78;
pos = (302,798);
},
{
angle = 78;
pos = (251,794);
}
);
layerId = "527899E9-AC81-44FE-89AA-146AC27955A1";
shapes = (
{
closed = 1;
nodes = (
(422,-8,o),
(491,-4,o),
(542,2,c),
(549,36,l),
(500,30,o),
(428,26,o),
(373,26,cs),
(193,26,o),
(126,38,o),
(126,152,cs),
(126,198,o),
(137,260,o),
(155,344,cs),
(214,618,l),
(173,566,o),
(147,482,o),
(119,344,cs),
(102,262,o),
(92,199,o),
(92,149,cs),
(92,8,o),
(170,-8,o),
(362,-8,cs)
);
},
{
closed = 1;
nodes = (
(312,657,o),
(384,662,o),
(508,662,cs),
(561,662,o),
(629,659,o),
(675,652,c),
(682,684,l),
(636,691,o),
(557,696,o),
(494,696,cs),
(394,696,o),
(325,691,o),
(274,666,c),
(264,619,l)
);
}
);
width = 683;
}
);
unicode = 67;
},
{
glyphname = D;
kernLeft = H;
kernRight = O;
layers = (
{
anchors = (
{
name = bottom;
pos = (293,0);
},
{
name = center;
pos = (153,344);
},
{
name = top;
pos = (439,688);
}
);
background = {
anchors = (
{
name = bottom;
pos = (293,0);
},
{
name = center;
pos = (153,344);
},
{
name = top;
pos = (439,688);
}
);
shapes = (
{
closed = 1;
nodes = (
(276,0,ls),
(535,0,o),
(559,38,o),
(623,344,cs),
(642,436,o),
(655,504,o),
(655,554,cs),
(655,669,o),
(590,688,o),
(404,688,cs),
(208,688,l),
(61,0,l)
);
},
{
closed = 1;
nodes = (
(236,654,l),
(385,654,ls),
(557,654,o),
(619,651,o),
(619,548,cs),
(619,503,o),
(607,437,o),
(587,344,cs),
(522,40,o),
(507,34,o),
(254,34,cs),
(105,34,l)
);
}
);
};
guides = (
{
angle = 258;
pos = (281,650);
},
{
angle = 78;
pos = (201,488);
}
);
layerId = "CD898CA3-FB76-4965-A23E-9AA06D1CE2B1";
shapes = (
{
closed = 1;
nodes = (
(97,0,l),
(244,688,l),
(208,688,l),
(61,0,l)
);
},
{
closed = 1;
nodes = (
(276,0,ls),
(535,0,o),
(559,38,o),
(623,344,cs),
(642,436,o),
(655,504,o),
(655,554,cs),
(655,669,o),
(590,688,o),
(404,688,cs),
(289,688,l),
(282,654,l),
(385,654,ls),
(557,654,o),
(619,651,o),
(619,548,cs),
(619,503,o),
(607,437,o),
(587,344,cs),
(522,40,o),
(507,34,o),
(254,34,cs),
(150,34,l),
(143,0,l)
);
}
);
width = 693;
},
{
anchors = (
{
name = bottom;
pos = (279,0);
},
{
name = center;
pos = (185,344);
},
{
name = top;
pos = (425,688);
}
);
background = {
anchors = (
{
name = bottom;
pos = (279,0);
},
{
name = center;
pos = (185,344);
},
{
name = top;
pos = (425,688);
}
);
shapes = (
{
closed = 1;
nodes = (
(279,0,ls),
(571,0,o),
(585,59,o),
(643,334,cs,{
name = "1.6 ⛔️";
}),
(659,420,o),
(671,486,o),
(671,537,cs),
(671,652,o),
(608,688,o),
(396,688,cs),
(141,688,l),
(-5,0,l)
);
},
{
closed = 1;
nodes = (
(339,521,l),
(363,521,ls),
(413,521,o),
(433,519,o),
(433,481,cs),
(433,455,o),
(424,413,o),
(409,343,cs),
(373,174,o),
(372,167,o),
(288,167,cs),
(264,167,l)
);
}
);
};
guides = (
{
angle = 78;
pos = (339,519);
},
{
angle = 258;
pos = (393,611);
}
);
layerId = "B4DE345C-CFDB-4A54-B125-3358BD91D59F";
shapes = (
{
closed = 1;
nodes = (
(229,0,l),
(375,688,l),
(141,688,l),
(-5,0,l)
);
},
{
closed = 1;
nodes = (
(279,0,ls),
(571,0,o),
(585,59,o),
(643,334,cs,{
name = "1.6 ⛔️";
}),
(659,420,o),
(671,486,o),
(671,537,cs),
(671,652,o),
(603,688,o),
(411,688,cs),
(410,688,l),
(374,521,l),
(376,521,ls),
(407,521,o),
(433,519,o),
(433,481,cs),
(433,455,o),
(424,413,o),
(409,343,cs),
(373,174,o),
(366,167,o),
(301,167,cs),
(299,167,l),
(264,0,l)
);
}
);
width = 666;
},
{
anchors = (
{
name = bottom;
pos = (300,0);
},
{
name = center;
pos = (180,344);
},
{
name = top;
pos = (446,688);
}
);
background = {
anchors = (
{
name = bottom;
pos = (300,0);
},
{
name = center;
pos = (180,344);
},
{
name = top;
pos = (446,688);
}
);
shapes = (
{
closed = 1;
nodes = (
(300,0,ls),
(581,0,o),
(601,53,o),
(663,341,cs),
(680,424,o),
(691,485,o),
(691,532,cs),
(691,657,o),
(625,688,o),
(408,688,cs),
(187,688,l),
(40,0,l)
);
},
{
closed = 1;
nodes = (
(294,584,l),
(390,584,ls),
(514,584,o),
(559.001,582.005,o),
(559,507,cs),
(559,471,o),
(549,419,o),
(533,344,cs),
(482,108,o),
(473,104,o),
(288,104,cs),
(192,104,l)
);
}
);
};
guides = (
{
angle = 78;
pos = (368,746);
},
{
angle = 78;
pos = (328,744);
}
);
layerId = "20A7088A-67D7-4614-84CF-19C576DDC019";
shapes = (
{
closed = 1;
nodes = (
(170,0,l),
(316,688,l),
(187,688,l),
(40,0,l)
);
},
{
closed = 1;
nodes = (
(300,0,ls),
(581,0,o),
(601,53,o),
(663,341,cs),
(680,424,o),
(691,485,o),
(691,532,cs),
(691,657,o),
(625,688,o),
(408,688,cs),
(356,688,l),
(334,584,l),
(390,584,ls),
(514,584,o),
(559.001,582.005,o),
(559,507,cs),
(559,471,o),
(549,419,o),
(533,344,cs),
(482,108,o),
(473,104,o),
(288,104,cs),
(231,104,l),
(209,0,l)
);
}
);
width = 708;
},
{
anchors = (
{
name = bottom;
pos = (111.798,0);
},
{
name = center;
pos = (184.918,344);
},
{
name = top;
pos = (258.037,688);
}
);
background = {
anchors = (
{
name = bottom;
pos = (111.798,0);
},
{
name = center;
pos = (184.918,344);
},
{
name = top;
pos = (258.037,688);
}
);
shapes = (
{
closed = 1;
nodes = (
(122,0,ls),
(231,0,o),
(258,49,o),
(319,344,cs),
(344,462,o),
(356,539,o),
(356,592,cs),
(356,670,o),
(324,688,o),
(249,688,cs),
(151,688,l),
(6,0,l)
);
},
{
closed = 1;
nodes = (
(180,654,l),
(257,654,ls),
(296,654,o),
(320,647,o),
(320,582,cs),
(320,536,o),
(308,463,o),
(283,344,cs),
(221,51,o),
(196,34,o),
(126,34,cs),
(47,34,l)
);
}
);
};
guides = (
{
angle = 78;
pos = (202,757);
},
{
angle = 78;
pos = (238,757);
}
);
layerId = UUID0;
shapes = (
{
closed = 1;
nodes = (
(41,0,l),
(187,688,l),
(151,688,l),
(6,0,l)
);
},
{
closed = 1;
nodes = (
(122,0,ls),
(231,0,o),
(258,49,o),
(319,344,cs),
(344,462,o),
(356,539,o),
(356,592,cs),
(356,670,o),
(324,688,o),
(249,688,cs),
(223,688,l),
(216,654,l),
(257,654,ls),
(296,654,o),
(320,647,o),
(320,582,cs),
(320,536,o),
(308,463,o),
(283,344,cs),
(221,51,o),
(196,34,o),
(126,34,cs),
(84,34,l),
(77,0,l)
);
}
);
width = 332;
},
{
anchors = (
{
name = bottom;
pos = (119.798,0);
},
{
name = center;
pos = (192.918,344);
},
{
name = top;
pos = (266.037,688);
}
);
background = {
anchors = (
{
name = bottom;
pos = (119.798,0);
},
{
name = center;
pos = (192.918,344);
},
{
name = top;
pos = (266.037,688);
}
);
shapes = (
{
closed = 1;
nodes = (
(137,0,ls),
(292,0,o),
(299,81,o),
(356,348,cs),
(378,453,o),
(393,526,o),
(393,577,cs),
(393,653,o),
(360,688,o),
(267,688,cs),
(129,688,l),
(-17,0,l)
);
},
{
closed = 1;
nodes = (
(234,562,l),
(250,562,ls),
(256,562,o),
(264,561,o),
(264,550,cs),
(264,526,o),
(250,472,o),
(224,344,cs),
(179,126,o),
(178,126,o),
(160,126,cs),
(141,126,l)
);
}
);
};
guides = (
{
angle = 258;
pos = (293,745);
},
{
angle = 78;
pos = (273,744);
}
);
layerId = "2A096AB6-16C2-4C34-8164-FCBBBF8CEAEB";
shapes = (
{
closed = 1;
nodes = (
(115,0,l),
(261,688,l),
(129,688,l),
(-17,0,l)
);
},
{
closed = 1;
nodes = (
(137,0,ls),
(292,0,o),
(299,81,o),
(356,348,cs),
(378,453,o),
(393,526,o),
(393,577,cs),
(393,648,o),
(360,688,o),
(283,688,c),
(281,688,l),
(254,562,l),
(256,562,ls),
(262,562,o),
(269,561,o),
(269,550,cs),
(269,526,o),
(255,472,o),
(229,344,cs),
(184,126,o),
(183,126,o),
(165,126,cs),
(161,126,l),
(134,0,l)
);
}
);
width = 348;
},
{
anchors = (
{
name = bottom;
pos = (123.798,0);
},
{
name = center;
pos = (196.918,344);
},
{
name = top;
pos = (270.037,688);
}
);
background = {
anchors = (
{
name = bottom;
pos = (123.798,0);
},
{
name = center;
pos = (196.918,344);
},
{
name = top;
pos = (270.037,688);
}
);
shapes = (
{
closed = 1;
nodes = (
(134,0,ls),
(270,0,o),
(288,67,o),
(348,345,cs),
(372,457,o),
(385,534,o),
(385,587,cs),
(385,664,o),
(351,688,o),
(265,688,cs),
(144,688,l),
(-2,0,l)
);
},
{
closed = 1;
nodes = (
(205,617,l),
(258,617,ls),
(289,617,o),
(306,612,o),
(306,565,cs),
(306,531,o),
(297,464,o),
(271,344,cs),
(215,83,o),
(200,71,o),
(143,71,cs),
(89,71,l)
);
}
);
};
guides = (
{
angle = 78;
pos = (232,744);
},
{
angle = 258;
pos = (262,746);
}
);
layerId = "B988E418-9469-42FB-AD32-095B8D65BEE5";
shapes = (
{
closed = 1;
nodes = (
(74,0,l),
(220,688,l),
(144,688,l),
(-2,0,l)
);
},
{
closed = 1;
nodes = (
(134,0,ls),
(270,0,o),
(288,67,o),
(348,345,cs),
(372,457,o),
(385,534,o),
(385,587,cs),
(385,664,o),
(351,688,o),
(265,688,cs),
(250,688,l),
(235,617,l),
(258,617,ls),
(289,617,o),
(306,612,o),
(306,565,cs),
(306,531,o),
(297,464,o),
(271,344,cs),
(215,83,o),
(200,71,o),
(143,71,cs),
(119,71,l),
(103,0,l)
);
}
);
width = 356;
},
{
anchors = (
{
name = bottom;
pos = (328.798,0);
},
{
name = center;
pos = (401.918,344);
},
{
name = top;
pos = (475.037,688);
}
);
background = {
anchors = (
{
name = bottom;
pos = (328.798,0);
},
{
name = center;
pos = (401.918,344);
},
{
name = top;
pos = (475.037,688);
}
);
shapes = (
{
closed = 1;
nodes = (
(324,0,ls),
(660,0,o),
(680,47,o),
(734,330,cs),
(749,411,o),
(760,475,o),
(760,526,cs),
(760,651,o),
(687,688,o),
(437,688,cs),
(145,688,l),
(-1,0,l)
);
},
{
closed = 1;
nodes = (
(374,510,l),
(398,510,ls),
(463,510,o),
(488,507,o),
(488,462,cs),
(488,435,o),
(481,397,o),
(469,342,cs),
(437,188,o),
(434,178,o),
(328,178,cs),
(304,178,l)
);
}
);
};
guides = (
{
angle = 78;
pos = (424,744);
},
{
angle = 258;
pos = (463,745);
}
);
layerId = "8AB9AFA2-7010-440B-BFFC-1C7CDFA1A370";
shapes = (
{
closed = 1;
nodes = (
(266,0,l),
(412,688,l),
(145,688,l),
(-1,0,l)
);
},
{
closed = 1;
nodes = (
(324,0,ls),
(660,0,o),
(680,47,o),
(734,330,cs),
(749,411,o),
(760,475,o),
(760,526,cs),
(760,651,o),
(683,688,o),
(453,688,cs),
(451,688,l),
(413,510,l),
(415,510,ls),
(461,510,o),
(488,507,o),
(488,462,cs),
(488,435,o),
(481,397,o),
(469,342,cs),
(437,188,o),
(430,178,o),
(344,178,cs),
(342,178,l),
(304,0,l)
);
}
);
width = 766;
},
{
anchors = (
{
name = bottom;
pos = (344.798,0);
},
{
name = center;
pos = (417.918,344);
},
{
name = top;
pos = (491.037,688);
}
);
background = {
anchors = (
{
name = bottom;
pos = (344.798,0);
},
{
name = center;
pos = (417.918,344);
},
{
name = top;
pos = (491.037,688);
}
);
shapes = (
{
closed = 1;
nodes = (
(339,0,ls),
(654,0,o),
(675,46,o),
(738,340,cs),
(754,417,o),
(764,475,o),
(764,519,cs),
(764,657,o),
(690,688,o),
(445,688,cs),
(205,688,l),
(57,0,l)
);
},
{
closed = 1;
nodes = (
(302,585,l),
(424,585,ls),
(592,585,o),
(640,581,o),
(640,498,cs),
(640,461,o),
(630,410,o),
(615,344,cs),
(563,107,o),
(554,103,o),
(319,103,cs),
(199,103,l)
);
}
);
};
guides = (
{
angle = 78;
pos = (391,796);
},
{
angle = 78;
pos = (346,794);
}
);
layerId = "8494D26F-946F-4BDA-8E04-2FD894ABFEA2";
shapes = (
{
closed = 1;
nodes = (
(177,0,l),
(323,688,l),
(205,688,l),
(57,0,l)
);
},
{
closed = 1;
nodes = (
(339,0,ls),
(654,0,o),
(675,46,o),
(738,340,cs),
(754,417,o),
(764,475,o),
(764,519,cs),
(764,657,o),
(690,688,o),
(445,688,cs),
(369,688,l),
(347,585,l),
(424,585,ls),
(592,585,o),
(640,581,o),
(640,498,cs),
(640,461,o),
(630,410,o),
(615,344,cs),
(563,107,o),
(554,103,o),
(319,103,cs),
(244,103,l),
(222,0,l)
);
}
);
width = 798;
},
{
anchors = (
{
name = bottom;
pos = (349.798,0);
},
{
name = center;
pos = (422.918,344);
},
{
name = top;
pos = (496.037,688);
}
);
background = {
anchors = (
{
name = bottom;
pos = (349.798,0);
},
{
name = center;
pos = (422.918,344);
},
{
name = top;
pos = (496.037,688);
}
);
shapes = (
{
closed = 1;
nodes = (
(325,0,ls),
(632,0,o),
(655,34,o),
(720,344,cs),
(737,428,o),
(750,493,o),
(750,542,cs),
(750,668,o),
(675,688,o),
(454,688,cs),
(226,688,l),
(79,0,l)
);
},
{
closed = 1;
nodes = (
(254,654,l),
(426,654,ls),
(640,654,o),
(714,652,o),
(714,537,cs),
(714,493,o),
(702,429,o),
(684,344,cs),
(619,36,o),
(606,34,o),
(295,34,cs),
(123,34,l)
);
}
);
};
guides = (
{
angle = 78;
pos = (335,798);
},
{
angle = 78;
pos = (284,794);
}
);
layerId = "527899E9-AC81-44FE-89AA-146AC27955A1";
shapes = (
{
closed = 1;
nodes = (
(115,0,l),
(261,688,l),
(226,688,l),
(79,0,l)
);
},
{
closed = 1;
nodes = (
(325,0,ls),
(632,0,o),
(655,34,o),
(720,344,cs),
(737,428,o),
(750,493,o),
(750,542,cs),
(750,668,o),
(675,688,o),
(454,688,cs),
(312,688,l),
(305,654,l),
(426,654,ls),
(640,654,o),
(714,652,o),
(714,537,cs),
(714,493,o),
(702,429,o),
(684,344,cs),
(619,36,o),
(606,34,o),
(295,34,cs),
(172,34,l),
(165,0,l)
);
}
);
width = 808;
}
);
unicode = 68;
},
{
glyphname = Eth;
kernLeft = H;
kernRight = O;
layers = (
{
background = {
shapes = (
{
closed = 1;
nodes = (
(297,331,l),
(305,367,l),
(70,367,l),
(62,331,l)
);
},
{
ref = D;
}
);
};
guides = (
{
angle = 77.4712;
pos = (66,349);
}
);
layerId = "CD898CA3-FB76-4965-A23E-9AA06D1CE2B1";
shapes = (
{
closed = 1;
nodes = (
(298,334,l),
(304,364,l),
(69,364,l),
(63,334,l)
);
},
{
ref = D;
}
);
width = 693;
},
{
background = {
shapes = (
{
closed = 1;
nodes = (
(351,280,l),
(380,417,l),
(24,417,l),
(-5,280,l)
);
},
{
ref = D;
}
);
};
guides = (
{
angle = 78.0481;
pos = (10,349);
}
);
layerId = "B4DE345C-CFDB-4A54-B125-3358BD91D59F";
shapes = (
{
closed = 1;
nodes = (
(354,294,l),
(378,404,l),
(22,404,l),
(-2,294,l)
);
},
{
ref = D;
}
);
width = 666;
},
{
background = {
shapes = (
{
closed = 1;
nodes = (
(336,304,l),
(355,394,l),
(55,394,l),
(36,304,l)
);
},
{
ref = D;
}
);
};
guides = (
{
angle = 78.0793;
pos = (46,349);
}
);
layerId = "20A7088A-67D7-4614-84CF-19C576DDC019";
shapes = (
{
closed = 1;
nodes = (
(338,309,l),
(354,389,l),
(54,389,l),
(38,309,l)
);
},
{
ref = D;
}
);
width = 708;
},
{
background = {
shapes = (
{
closed = 1;
nodes = (
(224,331,l),
(231,367,l),
(32,367,l),
(25,331,l)
);
},
{
ref = D;
}
);
};
guides = (
{
angle = 78.9965;
pos = (29,349);
}
);
layerId = UUID0;
shapes = (
{
closed = 1;
nodes = (
(225,335,l),
(231,365,l),
(32,365,l),
(26,335,l)
);
},
{
pos = (0,1);
ref = D;
}
);
width = 332;
},
{
background = {
shapes = (
{
closed = 1;
nodes = (
(206,319,l),
(220,383,l),
(37,383,l),
(24,319,l)
);
},
{
ref = D;
}
);
};
guides = (
{
angle = 78.518;
pos = (31,351);
}
);
layerId = "2A096AB6-16C2-4C34-8164-FCBBBF8CEAEB";
shapes = (
{
closed = 1;
nodes = (
(205,314,l),
(223,393,l),
(40,393,l),
(23,314,l)
);
},
{
ref = D;
}
);
width = 348;
},
{
background = {
shapes = (
{
closed = 1;
nodes = (
(218,323,l),
(229,375,l),
(35,375,l),
(24,323,l)
);
},
{
ref = D;
}
);
};
guides = (
{
angle = 78.0558;
pos = (30,349);
}
);
layerId = "B988E418-9469-42FB-AD32-095B8D65BEE5";
shapes = (
{
closed = 1;
nodes = (
(218,322,l),
(230,376,l),
(36,376,l),
(24,322,l)
);
},
{
ref = D;
}
);
width = 356;
},
{
background = {
shapes = (
{
closed = 1;
nodes = (
(399,299,l),
(420,399,l),
(20,399,l),
(0,299,l)
);
},
{
ref = D;
}
);
};
guides = (
{
angle = 78.6901;
pos = (10,349);
}
);
layerId = "8AB9AFA2-7010-440B-BFFC-1C7CDFA1A370";
shapes = (
{
closed = 1;
nodes = (
(398,294,l),
(421,404,l),
(21,404,l),
(-1,294,l)
);
},
{
ref = D;
}
);
width = 766;
},
{
background = {
shapes = (
{
closed = 1;
nodes = (
(361,316,l),
(375,384,l),
(63,384,l),
(48,316,l)
);
},
{
ref = D;
}
);
};
guides = (
{
angle = 77.5604;
pos = (56,350);
}
);
layerId = "8494D26F-946F-4BDA-8E04-2FD894ABFEA2";
shapes = (
{
closed = 1;
nodes = (
(360,310,l),
(377,390,l),
(65,390,l),
(47,310,l)
);
},
{
ref = D;
}
);
width = 798;
},
{
background = {
shapes = (
{
closed = 1;
nodes = (
(322,331,l),
(329,367,l),
(81,367,l),
(73,331,l)
);
},
{
ref = D;
}
);
};
guides = (
{
angle = 77.4712;
pos = (77,349);
}
);
layerId = "527899E9-AC81-44FE-89AA-146AC27955A1";
shapes = (
{
closed = 1;
nodes = (
(323,334,l),
(328,364,l),
(80,364,l),
(74,334,l)
);
},
{
ref = D;
}
);
width = 808;
}
);
unicode = 208;
},
{
glyphname = E;
kernLeft = H;
kernRight = E;
layers = (
{
anchors = (
{
name = bottom;
pos = (293,0);
},
{
name = ogonek;
pos = (487,0);
},
{
name = top;
pos = (421,688);
},
{
name = topleft;
pos = (208,688);
}
);
background = {
anchors = (
{
name = bottom;
pos = (293,0);
},
{
name = ogonek;
pos = (487,0);
},
{
name = top;
pos = (421,688);
},
{
name = topleft;
pos = (208,688);
}
);
shapes = (
{
closed = 1;
nodes = (
(487,0,l),
(495,34,l),
(105,34,l),
(168,331,l),
(511,331,l),
(518,365,l),
(175,365,l),
(236,654,l),
(626,654,l),
(634,688,l),
(208,688,l),
(61,0,l)
);
}
);
};
guides = (
{
angle = 258;
pos = (281,650);
},
{
angle = 78;
pos = (201,488);
}
);
layerId = "CD898CA3-FB76-4965-A23E-9AA06D1CE2B1";
shapes = (
{
closed = 1;
nodes = (
(97,0,l),
(244,688,l),
(208,688,l),
(61,0,l)
);
},
{
closed = 1;
nodes = (
(487,0,l),
(495,34,l),
(150,34,l),
(143,0,l)
);
},
{
closed = 1;
nodes = (
(511,331,l),
(518,365,l),
(220,365,l),
(213,331,l)
);
},
{
closed = 1;
nodes = (
(626,654,l),
(634,688,l),
(289,688,l),
(282,654,l)
);
}
);
width = 598;
},
{
anchors = (
{
name = bottom;
pos = (247,0);
},
{
name = ogonek;
pos = (498,0);
},
{
name = top;
pos = (390,688);
},
{
name = topleft;
pos = (141,688);
}
);
background = {
anchors = (
{
name = bottom;
pos = (247,0);
},
{
name = ogonek;
pos = (498,0);
},
{
name = top;
pos = (390,688);
},
{
name = topleft;
pos = (141,688);
}
);
shapes = (
{
closed = 1;
nodes = (
(498,0,l),
(534,167,l),
(263,167,l),
(284,266,l),
(508,266,l),
(543,429,l),
(319,429,l),
(338,521,l),
(609,521,l),
(645,688,l),
(141,688,l),
(-5,0,l)
);
}
);
};
guides = (
{
angle = 78;
pos = (338,519);
},
{
angle = 258;
pos = (392,611);
}
);
layerId = "B4DE345C-CFDB-4A54-B125-3358BD91D59F";
shapes = (
{
closed = 1;
nodes = (
(228,0,l),
(374,688,l),
(141,688,l),
(-5,0,l)
);
},
{
closed = 1;
nodes = (
(498,0,l),
(534,167,l),
(298,167,l),
(262,0,l)
);
},
{
closed = 1;
nodes = (
(508,266,l),
(543,429,l),
(354,429,l),
(319,266,l)
);
},
{
closed = 1;
nodes = (
(609,521,l),
(645,688,l),
(409,688,l),
(373,521,l)
);
}
);
width = 593;
},
{
anchors = (
{
name = bottom;
pos = (275,0);
},
{
name = ogonek;
pos = (523,0);
},
{
name = top;
pos = (421,688);
},
{
name = topleft;
pos = (187,688);
}
);
background = {
anchors = (
{
name = bottom;
pos = (275,0);
},
{
name = ogonek;
pos = (523,0);
},
{
name = top;
pos = (421,688);
},
{
name = topleft;
pos = (187,688);
}
);
shapes = (
{
closed = 1;
nodes = (
(523,0,l),
(545,104,l),
(191,104,l),
(233,296,l),
(536,296,l),
(558,398,l),
(254,398,l),
(294,584,l),
(648,584,l),
(670,688,l),
(187,688,l),
(40,0,l)
);
}
);
};
guides = (
{
angle = 78;
pos = (368,746);
},
{
angle = 78;
pos = (328,744);
}
);
layerId = "20A7088A-67D7-4614-84CF-19C576DDC019";
shapes = (
{
closed = 1;
nodes = (
(170,0,l),
(316,688,l),
(187,688,l),
(40,0,l)
);
},
{
closed = 1;
nodes = (
(523,0,l),
(545,104,l),
(231,104,l),
(209,0,l)
);
},
{
closed = 1;
nodes = (
(536,296,l),
(558,398,l),
(294,398,l),
(272,296,l)
);
},
{
closed = 1;
nodes = (
(648,584,l),
(670,688,l),
(356,688,l),
(334,584,l)
);
}
);
width = 624;
},
{
anchors = (
{
name = bottom;
pos = (105,0);
},
{
name = ogonek;
pos = (215,0);
},
{
name = top;
pos = (251,688);
},
{
name = topleft;
pos = (151,688);
}
);
background = {
anchors = (
{
name = bottom;
pos = (105,0);
},
{
name = ogonek;
pos = (215,0);
},
{
name = top;
pos = (251,688);
},
{
name = topleft;
pos = (151,688);
}
);
shapes = (
{
closed = 1;
nodes = (
(215,0,l),
(223,34,l),
(48,34,l),
(111,331,l),
(264,331,l),
(271,365,l),
(118,365,l),
(180,654,l),
(354,654,l),
(362,688,l),
(151,688,l),
(6,0,l)
);
}
);
};
guides = (
{
angle = 78;
pos = (202,756);
},
{
angle = 78;
pos = (238,756);
}
);
layerId = UUID0;
shapes = (
{
closed = 1;
nodes = (
(41,0,l),
(189,688,l),
(151,688,l),
(6,0,l)
);
},
{
closed = 1;
nodes = (
(215,0,l),
(223,34,l),
(85,34,l),
(78,0,l)
);
},
{
closed = 1;
nodes = (
(264,331,l),
(271,365,l),
(155,365,l),
(148,331,l)
);
},
{
closed = 1;
nodes = (
(354,654,l),
(362,688,l),
(223,688,l),
(216,654,l)
);
}
);
width = 286;
},
{
anchors = (
{
name = bottom;
pos = (88,0);
},
{
name = ogonek;
pos = (199,0);
},
{
name = top;
pos = (234,688);
},
{
name = topleft;
pos = (129,688);
}
);
background = {
anchors = (
{
name = bottom;
pos = (88,0);
},
{
name = ogonek;
pos = (199,0);
},
{
name = top;
pos = (234,688);
},
{
name = topleft;
pos = (129,688);
}
);
shapes = (
{
closed = 1;
nodes = (
(199,0,l),
(226,126,l),
(141,126,l),
(175,284,l),
(252,284,l),
(279,411,l),
(202,411,l),
(234,562,l),
(317,562,l),
(344,688,l),
(129,688,l),
(-17,0,l)
);
}
);
};
guides = (
{
angle = 258;
pos = (293,745);
},
{
angle = 78;
pos = (273,744);
}
);
layerId = "2A096AB6-16C2-4C34-8164-FCBBBF8CEAEB";
shapes = (
{
closed = 1;
nodes = (
(115,0,l),
(261,688,l),
(129,688,l),
(-17,0,l)
);
},
{
closed = 1;
nodes = (
(199,0,l),
(226,126,l),
(162,126,l),
(135,0,l)
);
},
{
closed = 1;
nodes = (
(252,284,l),
(279,411,l),
(222,411,l),
(195,284,l)
);
},
{
closed = 1;
nodes = (
(317,562,l),
(344,688,l),
(281,688,l),
(255,562,l)
);
}
);
width = 270;
},
{
anchors = (
{
name = bottom;
pos = (109,0);
},
{
name = ogonek;
pos = (223,0);
},
{
name = top;
pos = (255,688);
},
{
name = topleft;
pos = (144,688);
}
);
background = {
anchors = (
{
name = bottom;
pos = (109,0);
},
{
name = ogonek;
pos = (223,0);
},
{
name = top;
pos = (255,688);
},
{
name = topleft;
pos = (144,688);
}
);
shapes = (
{
closed = 1;
nodes = (
(223,0,l),
(240,71,l),
(89,71,l),
(141,312,l),
(271,312,l),
(287,383,l),
(156,383,l),
(206,617,l),
(353,617,l),
(370,688,l),
(144,688,l),
(-2,0,l)
);
}
);
};
guides = (
{
angle = 78;
pos = (233,744);
},
{
angle = 258;
pos = (263,746);
}
);
layerId = "B988E418-9469-42FB-AD32-095B8D65BEE5";
shapes = (
{
closed = 1;
nodes = (
(75,0,l),
(221,688,l),
(144,688,l),
(-2,0,l)
);
},
{
closed = 1;
nodes = (
(223,0,l),
(240,71,l),
(119,71,l),
(104,0,l)
);
},
{
closed = 1;
nodes = (
(271,312,l),
(287,383,l),
(186,383,l),
(171,312,l)
);
},
{
closed = 1;
nodes = (
(353,617,l),
(370,688,l),
(251,688,l),
(236,617,l)
);
}
);
width = 297;
},
{
anchors = (
{
name = bottom;
pos = (304,0);
},
{
name = ogonek;
pos = (592,0);
},
{
name = top;
pos = (450,688);
},
{
name = topleft;
pos = (145,688);
}
);
background = {
anchors = (
{
name = bottom;
pos = (304,0);
},
{
name = ogonek;
pos = (592,0);
},
{
name = top;
pos = (450,688);
},
{
name = topleft;
pos = (145,688);
}
);
shapes = (
{
closed = 1;
nodes = (
(592,0,l),
(631,178,l),
(301,178,l),
(319,261,l),
(589,261,l),
(626,434,l),
(356,434,l),
(372,510,l),
(701,510,l),
(739,688,l),
(145,688,l),
(-1,0,l)
);
}
);
};
guides = (
{
angle = 78;
pos = (422,744);
},
{
angle = 258;
pos = (461,745);
}
);
layerId = "8AB9AFA2-7010-440B-BFFC-1C7CDFA1A370";
shapes = (
{
closed = 1;
nodes = (
(264,0,l),
(410,688,l),
(145,688,l),
(-1,0,l)
);
},
{
closed = 1;
nodes = (
(592,0,l),
(631,178,l),
(340,178,l),
(302,0,l)
);
},
{
closed = 1;
nodes = (
(589,261,l),
(626,434,l),
(394,434,l),
(358,261,l)
);
},
{
closed = 1;
nodes = (
(701,510,l),
(739,688,l),
(448,688,l),
(411,510,l)
);
}
);
width = 695;
},
{
anchors = (
{
name = bottom;
pos = (328,0);
},
{
name = ogonek;
pos = (595,0);
},
{
name = top;
pos = (474,688);
},
{
name = topleft;
pos = (205,688);
}
);
background = {
anchors = (
{
name = bottom;
pos = (328,0);
},
{
name = ogonek;
pos = (595,0);
},
{
name = top;
pos = (474,688);
},
{
name = topleft;
pos = (205,688);
}
);
shapes = (
{
closed = 1;
nodes = (
(595,0,l),
(617,103,l),
(199,103,l),
(240,296,l),
(600,296,l),
(621,399,l),
(262,399,l),
(302,585,l),
(720,585,l),
(742,688,l),
(205,688,l),
(57,0,l)
);
}
);
};
guides = (
{
angle = 78;
pos = (391,796);
},
{
angle = 78;
pos = (346,794);
}
);
layerId = "8494D26F-946F-4BDA-8E04-2FD894ABFEA2";
shapes = (
{
closed = 1;
nodes = (
(177,0,l),
(323,688,l),
(205,688,l),
(57,0,l)
);
},
{
closed = 1;
nodes = (
(595,0,l),
(617,103,l),
(244,103,l),
(222,0,l)
);
},
{
closed = 1;
nodes = (
(600,296,l),
(621,399,l),
(307,399,l),
(285,296,l)
);
},
{
closed = 1;
nodes = (
(720,585,l),
(742,688,l),
(368,688,l),
(346,585,l)
);
}
);
width = 705;
},
{
anchors = (
{
name = bottom;
pos = (324,0);
},
{
name = ogonek;
pos = (573,0);
},
{
name = top;
pos = (470,688);
},
{
name = topleft;
pos = (226,688);
}
);
background = {
anchors = (
{
name = bottom;
pos = (324,0);
},
{
name = ogonek;
pos = (573,0);
},
{
name = top;
pos = (470,688);
},
{
name = topleft;
pos = (226,688);
}
);
shapes = (
{
closed = 1;
nodes = (
(573,0,l),
(581,34,l),
(123,34,l),
(186,331,l),
(590,331,l),
(597,365,l),
(193,365,l),
(254,654,l),
(712,654,l),
(720,688,l),
(226,688,l),
(79,0,l)
);
}
);
};
guides = (
{
angle = 78;
pos = (335,798);
},
{
angle = 78;
pos = (284,794);
}
);
layerId = "527899E9-AC81-44FE-89AA-146AC27955A1";
shapes = (
{
closed = 1;
nodes = (
(115,0,l),
(261,688,l),
(226,688,l),
(79,0,l)
);
},
{
closed = 1;
nodes = (
(573,0,l),
(581,34,l),
(173,34,l),
(166,0,l)
);
},
{
closed = 1;
nodes = (
(590,331,l),
(597,365,l),
(243,365,l),
(236,331,l)
);
},
{
closed = 1;
nodes = (
(712,654,l),
(720,688,l),
(311,688,l),
(304,654,l)
);
}
);
width = 698;
}
);
unicode = 69;
},
{
glyphname = Schwa;
kernLeft = O;
kernRight = O;
layers = (
{
anchors = (
{
name = bottom;
pos = (299,0);
},
{
name = top;
pos = (445,688);
}
);
background = {
anchors = (
{
name = bottom;
pos = (299,0);
},
{
name = top;
pos = (445,688);
}
);
shapes = (
{
closed = 1;
nodes = (
(536,-8,o),
(559,31,o),
(626,344,cs),
(646,437,o),
(657,506,o),
(657,557,cs),
(657,679,o),
(592,696,o),
(424,696,cs),
(368,696,o),
(292,688,o),
(244,676,c),
(236,642,l),
(284,654,o),
(355,662,o),
(407,662,cs),
(563,662,o),
(621,650,o),
(621,546,cs),
(621,504,o),
(611,445,o),
(594,365,c),
(104,365,l),
(100,344,ls),
(80,240,o),
(67,167,o),
(67,115,cs),
(67,9,o),
(122,-8,o),
(288,-8,cs)
);
},
{
closed = 1;
nodes = (
(155,26,o),
(102,29,o),
(102,126,cs),
(102,171,o),
(113,236,o),
(133,331,c),
(587,331,l),
(523,32,o),
(500,26,o),
(295,26,cs)
);
}
);
};
guides = (
{
angle = 258;
pos = (655,650);
},
{
angle = 78;
pos = (575,488);
}
);
layerId = "CD898CA3-FB76-4965-A23E-9AA06D1CE2B1";
shapes = (
{
closed = 1;
nodes = (
(571,105,o),
(593,192,o),
(626,344,cs),
(646,437,o),
(657,506,o),
(657,557,cs),
(657,679,o),
(592,696,o),
(424,696,cs),
(368,696,o),
(292,688,o),
(244,676,c),
(236,642,l),
(284,654,o),
(355,662,o),
(407,662,cs),
(563,662,o),
(621,650,o),
(621,546,cs),
(621,504,o),
(611,445,o),
(594,365,cs),
(529,55,l)
);
},
{
closed = 1;
nodes = (
(373,-8,o),
(431,-3,o),
(474,15,c),
(483,57,l),
(444,27,o),
(389,26,o),
(295,26,cs),
(155,26,o),
(102,29,o),
(102,126,cs),
(102,171,o),
(113,236,o),
(133,331,c),
(542,331,l),
(549,365,l),
(104,365,l),
(100,344,ls),
(80,240,o),
(67,167,o),
(67,115,cs),
(67,9,o),
(122,-8,o),
(288,-8,cs)
);
}
);
width = 706;
},
{
anchors = (
{
name = bottom;
pos = (294,0);
},
{
name = top;
pos = (440,688);
}
);
background = {
anchors = (
{
name = bottom;
pos = (294,0);
},
{
name = top;
pos = (440,688);
}
);
shapes = (
{
closed = 1;
nodes = (
(593,-8,o),
(614,73,o),
(668,344,cs),
(682,415,o),
(690,472,o),
(690,517,cs),
(690,650,o),
(618,696,o),
(392,696,cs),
(333,696,o),
(262,689,o),
(219,680,c),
(185,521,l),
(225,526,o),
(282,529,o),
(322,529,cs),
(422,529,o),
(454,522,o),
(454,468,cs),
(454,457,o),
(452,444,o),
(450,429,c),
(85,429,l),
(67,344,ls),
(50,258,o),
(38,194,o),
(38,144,cs),
(38,31,o),
(99,-8,o),
(307,-8,cs)
);
},
{
closed = 1;
nodes = (
(282,159,o),
(265,160,o),
(265,195,cs),
(265,211,o),
(269,233,o),
(275,266,c),
(426,266,l),
(401,162,o),
(388,159,o),
(322,159,cs)
);
}
);
};
guides = (
{
angle = 78;
pos = (445,519);
},
{
angle = 258;
pos = (499,611);
}
);
layerId = "B4DE345C-CFDB-4A54-B125-3358BD91D59F";
shapes = (
{
closed = 1;
nodes = (
(596,5,o),
(618,94,o),
(668,344,cs),
(682,415,o),
(690,472,o),
(690,517,cs),
(690,650,o),
(618,696,o),
(392,696,cs),
(333,696,o),
(262,689,o),
(219,680,c),
(185,521,l),
(225,526,o),
(282,529,o),
(322,529,cs),
(424,529,o),
(465,521,o),
(465,468,cs),
(465,457,o),
(463,444,o),
(460,429,cs),
(368,-7,l)
);
},
{
closed = 1;
nodes = (
(316,-8,o),
(325,-8,o),
(333,-8,c),
(369,163,l),
(357,159,o),
(342,159,o),
(322,159,cs),
(282,159,o),
(265,160,o),
(265,195,cs),
(265,211,o),
(269,233,o),
(275,266,c),
(391,266,l),
(426,429,l),
(85,429,l),
(67,344,ls),
(49,258,o),
(38,194,o),
(38,144,cs),
(38,31,o),
(99,-8,o),
(307,-8,cs)
);
}
);
width = 695;
},
{
anchors = (
{
name = bottom;
pos = (291,0);
},
{
name = top;
pos = (437,688);
}
);
background = {
anchors = (
{
name = bottom;
pos = (291,0);
},
{
name = top;
pos = (437,688);
}
);
shapes = (
{
closed = 1;
nodes = (
(557,-8,o),
(585,64,o),
(644,344,cs),
(661,425,o),
(672,488,o),
(672,537,cs),
(672,649,o),
(598,696,o),
(424,696,cs),
(366,696,o),
(288,690,o),
(238,681,c),
(217,578,l),
(259,584,o),
(322,588,o),
(369,588,cs),
(486,588,o),
(540,569,o),
(540,500,cs),
(540,475,o),
(536,443,o),
(528,401,c),
(97,401,l),
(85,344,ls),
(66,252,o),
(52,183,o),
(52,131,cs),
(52,25,o),
(109,-8,o),
(289,-8,cs)
);
},
{
closed = 1;
nodes = (
(218,100,o),
(183,102,o),
(183,166,cs),
(183,194,o),
(190,235,o),
(202,293,c),
(505,293,l),
(463,104,o),
(447,100,o),
(312,100,cs)
);
}
);
};
guides = (
{
angle = 78;
pos = (601,746);
},
{
angle = 78;
pos = (561,744);
}
);
layerId = "20A7088A-67D7-4614-84CF-19C576DDC019";
shapes = (
{
closed = 1;
nodes = (
(572,38,o),
(599,131,o),
(644,344,cs),
(661,425,o),
(672,488,o),
(672,537,cs),
(672,649,o),
(598,696,o),
(424,696,cs),
(366,696,o),
(288,690,o),
(238,681,c),
(217,578,l),
(259,584,o),
(322,588,o),
(369,588,cs),
(486,588,o),
(540,569,o),
(540,500,cs),
(540,475,o),
(537,443,o),
(528,401,cs),
(444,6,l)
);
},
{
closed = 1;
nodes = (
(333,-8,o),
(371,-6,o),
(403,-2,c),
(427,114,l),
(401,101,o),
(367,100,o),
(312,100,cs),
(218,100,o),
(183,102,o),
(183,166,cs),
(183,194,o),
(190,235,o),
(202,293,c),
(465,293,l),
(488,401,l),
(97,401,l),
(85,344,ls),
(66,252,o),
(52,183,o),
(52,131,cs),
(52,25,o),
(109,-8,o),
(289,-8,cs)
);
}
);
width = 689;
},
{
anchors = (
{
name = bottom;
pos = (123.798,0);
},
{
name = top;
pos = (270.037,688);
}
);
background = {
anchors = (
{
name = bottom;
pos = (123.798,0);
},
{
name = top;
pos = (270.037,688);
}
);
shapes = (
{
closed = 1;
nodes = (
(227,-8,o),
(255,42,o),
(317,344,cs,{
name = "0.8 ⛔️";
}),
(342,460,o),
(356,539,o),
(356,592,cs),
(356,669,o),
(320,696,o),
(247,696,cs),
(209,696,o),
(174,691,o),
(151,686,c),
(144,653,l),
(164,657,o),
(201,662,o),
(225,662,cs),
(299,662,o),
(318,649,o),
(318,580,cs),
(318,534,o),
(309,467,o),
(287,365,c),
(46,365,l),
(42,344,ls),
(19,224,o),
(4,143,o),
(4,89,cs),
(4,10,o),
(37,-8,o),
(114,-8,cs)
);
},
{
closed = 1;
nodes = (
(64,26,o),
(38,33,o),
(38,99,cs),
(38,144,o),
(50,217,o),
(74,331,c),
(280,331,l),
(218,43,o),
(193,26,o),
(111,26,cs)
);
}
);
};
layerId = UUID0;
shapes = (
{
closed = 1;
nodes = (
(259,75,o),
(278,167,o),
(317,344,cs,{
name = "0.8 ⛔️";
}),
(342,457,o),
(356,539,o),
(356,592,cs),
(356,669,o),
(320,696,o),
(247,696,cs),
(209,696,o),
(174,691,o),
(151,686,c),
(144,653,l),
(165,657,o),
(201,662,o),
(225,662,cs),
(299,662,o),
(318,649,o),
(318,580,cs),
(318,536,o),
(309,468,o),
(287,365,cs),
(215,28,l)
);
},
{
closed = 1;
nodes = (
(130,-8,o),
(153,-5,o),
(172,2,c),
(181,45,l),
(162,28,o),
(140,26,o),
(110,26,cs),
(63,26,o),
(38,34,o),
(38,99,cs),
(38,144,o),
(50,216,o),
(74,331,c),
(242,331,l),
(249,365,l),
(46,365,l),
(42,344,ls),
(20,227,o),
(4,143,o),
(4,89,cs),
(4,12,o),
(38,-8,o),
(103,-8,cs)
);
}
);
width = 355;
},
{
anchors = (
{
name = bottom;
pos = (116.798,0);
},
{
name = top;
pos = (263.037,688);
}
);
background = {
anchors = (
{
name = bottom;
pos = (116.798,0);
},
{
name = top;
pos = (263.037,688);
}
);
shapes = (
{
closed = 1;
nodes = (
(282,-8,o),
(293,63,o),
(351,344,cs),
(370,438,o),
(384,511,o),
(384,566,cs),
(384,655,o),
(347,696,o),
(246,696,cs),
(201,696,o),
(169,688,o),
(144,676,c),
(121,566,l),
(140,568,o),
(170,570,o),
(198,570,cs),
(234,570,o),
(250,566,o),
(250,529,cs),
(250,505,o),
(244,468,o),
(232,411,c),
(61,411,l),
(47,344,ls),
(24,234,o),
(7,153,o),
(7,98,cs),
(7,23,o),
(43,-8,o),
(144,-8,cs)
);
},
{
closed = 1;
nodes = (
(142,118,o),
(138,119,o),
(138,131,cs),
(138,148,o),
(147,190,o),
(167,287,c),
(205,287,l),
(171,123,o),
(169,118,o),
(150,118,cs)
);
}
);
};
layerId = "2A096AB6-16C2-4C34-8164-FCBBBF8CEAEB";
shapes = (
{
closed = 1;
nodes = (
(292,-16,o),
(298,99,o),
(350,344,cs),
(370,438,o),
(384,511,o),
(384,566,cs),
(384,655,o),
(347,696,o),
(246,696,cs),
(197,696,o),
(170,688,o),
(144,676,c),
(121,566,l),
(141,568,o),
(169,570,o),
(197,570,cs),
(234,570,o),
(250,566,o),
(250,529,cs),
(250,505,o),
(244,468,o),
(232,411,cs),
(142,-7,l)
);
},
{
closed = 1;
nodes = (
(121,-8,o),
(121,-8,o),
(122,-8,c),
(149,118,l),
(148,118,o),
(147,118,o),
(146,118,cs),
(140,118,o),
(138,121,o),
(138,131,cs),
(138,147,o),
(145,186,o),
(167,287,c),
(185,287,l),
(211,411,l),
(60,411,l),
(46,344,ls),
(24,241,o),
(7,155,o),
(7,98,cs),
(7,23,o),
(43,-8,o),
(120,-8,cs)
);
}
);
width = 342;
},
{
anchors = (
{
name = bottom;
pos = (121.798,0);
},
{
name = top;
pos = (268.037,688);
}
);
background = {
anchors = (
{
name = bottom;
pos = (121.798,0);
},
{
name = top;
pos = (268.037,688);
}
);
shapes = (
{
closed = 1;
nodes = (
(253,-8,o),
(259,18,o),
(331,344,cs),
(355,452,o),
(367,529,o),
(367,583,cs),
(367,655,o),
(333,696,o),
(251,696,cs),
(205,696,o),
(169,689,o),
(145,681,c),
(131,616,l),
(150,620,o),
(183,625,o),
(209,625,cs),
(271,625,o),
(289,615,o),
(289,559,cs),
(289,523,o),
(279,468,o),
(261,383,c),
(49,383,l),
(41,344,ls),
(17,226,o),
(1,146,o),
(1,92,cs),
(1,14,o),
(49,-8,o),
(116,-8,cs)
);
},
{
closed = 1;
nodes = (
(97,63,o),
(80,67,o),
(80,112,cs),
(80,148,o),
(90,208,o),
(112,312,c),
(246,312,l),
(194,75,o),
(180,63,o),
(126,63,cs)
);
}
);
};
layerId = "B988E418-9469-42FB-AD32-095B8D65BEE5";
shapes = (
{
closed = 1;
nodes = (
(260,10,o),
(282,113,o),
(331,344,cs),
(354,453,o),
(367,529,o),
(367,583,cs),
(367,655,o),
(334,696,o),
(252,696,cs),
(206,696,o),
(168,689,o),
(145,681,c),
(131,616,l),
(150,620,o),
(184,625,o),
(210,625,cs),
(271,625,o),
(289,615,o),
(289,559,cs),
(289,523,o),
(279,468,o),
(261,383,cs),
(179,-4,l)
);
},
{
closed = 1;
nodes = (
(125,-8,o),
(137,-7,o),
(149,-6,c),
(165,71,l),
(154,64,o),
(142,63,o),
(126,63,cs),
(97,63,o),
(80,67,o),
(80,112,cs),
(80,147,o),
(90,208,o),
(112,312,c),
(216,312,l),
(231,383,l),
(49,383,l),
(41,344,ls),
(17,225,o),
(1,146,o),
(1,92,cs),
(1,15,o),
(49,-8,o),
(111,-8,cs)
);
}
);
width = 352;
},
{
anchors = (
{
name = bottom;
pos = (349.798,0);
},
{
name = top;
pos = (496.037,688);
}
);
background = {
anchors = (
{
name = bottom;
pos = (349.798,0);
},
{
name = top;
pos = (496.037,688);
}
);
shapes = (
{
closed = 1;
nodes = (
(693,-8,o),
(716,69,o),
(768,344,cs),
(780,408,o),
(787,459,o),
(787,501,cs),
(787,648,o),
(702,696,o),
(433,696,cs),
(371,696,o),
(290,690,o),
(242,681,c),
(205,508,l),
(252,514,o),
(317,518,o),
(362,518,cs),
(482,518,o),
(519,510,o),
(519,452,cs),
(519,445,o),
(519,439,o),
(518,434,c),
(93,434,l),
(74,344,ls,{
name = "0.9 ⛔️";
}),
(59,265,o),
(49,207,o),
(49,159,cs),
(49,33,o),
(119,-8,o),
(366,-8,c)
);
},
{
closed = 1;
nodes = (
(327,170,o),
(307,171,o),
(307,211,cs),
(307,225,o),
(310,241,o),
(313,261,c),
(493,261,l),
(470,174,o),
(453,170,o),
(375,170,cs)
);
}
);
};
guides = (
{
angle = 78;
pos = (557,744);
},
{
angle = 258;
pos = (596,745);
}
);
layerId = "8AB9AFA2-7010-440B-BFFC-1C7CDFA1A370";
shapes = (
{
closed = 1;
nodes = (
(697,5,o),
(720,90,o),
(768,344,cs),
(780,408,o),
(787,459,o),
(787,501,cs),
(787,648,o),
(702,696,o),
(433,696,cs),
(371,696,o),
(290,690,o),
(242,681,c),
(205,508,l),
(262,515,o),
(347,518,o),
(389,518,cs),
(463,518,o),
(532,515,o),
(532,455,cs),
(532,449,o),
(532,442,o),
(530,434,cs),
(436,-7,l)
);
},
{
closed = 1;
nodes = (
(377,-8,o),
(387,-8,o),
(398,-8,c),
(436,175,l),
(421,170,o),
(402,170,o),
(375,170,cs),
(327,170,o),
(307,171,o),
(307,211,cs),
(307,225,o),
(310,241,o),
(313,261,c),
(455,261,l),
(491,434,l),
(93,434,l),
(74,344,ls,{
name = "0.9 ⛔️";
}),
(57,265,o),
(49,207,o),
(49,159,cs),
(49,33,o),
(119,-8,o),
(366,-8,c)
);
}
);
width = 807;
},
{
anchors = (
{
name = bottom;
pos = (327.798,0);
},
{
name = top;
pos = (474.037,688);
}
);
background = {
anchors = (
{
name = bottom;
pos = (327.798,0);
},
{
name = top;
pos = (474.037,688);
}
);
shapes = (
{
closed = 1;
nodes = (
(619,-8,o),
(634,8,o),
(706,344,cs),
(723,422,o),
(733,483,o),
(733,531,cs),
(733,649,o),
(651,696,o),
(461,696,cs),
(399,696,o),
(313,690,o),
(256,680,c),
(234,580,l),
(281,588,o),
(355,592,o),
(408,592,cs),
(582,592,o),
(605,571,o),
(605,497,cs),
(605,472,o),
(601,439,o),
(594,397,c),
(107,397,l),
(96,344,ls),
(77,254,o),
(66,186,o),
(66,135,cs),
(66,24,o),
(129,-8,o),
(325,-8,cs)
);
},
{
closed = 1;
nodes = (
(229,96,o),
(187,98,o),
(187,167,cs),
(187,197,o),
(195,239,o),
(207,297,c),
(573,297,l),
(527,99,o),
(513,96,o),
(347,96,cs)
);
}
);
};
guides = (
{
angle = 78;
pos = (679,796);
},
{
angle = 78;
pos = (634,794);
}
);
layerId = "8494D26F-946F-4BDA-8E04-2FD894ABFEA2";
shapes = (
{
closed = 1;
nodes = (
(632,25,o),
(654,100,o),
(706,344,cs),
(723,422,o),
(733,483,o),
(733,531,cs),
(733,649,o),
(651,696,o),
(461,696,cs),
(399,696,o),
(313,690,o),
(256,680,c),
(234,580,l),
(281,588,o),
(355,592,o),
(408,592,cs),
(582,592,o),
(605,571,o),
(605,497,cs),
(605,472,o),
(603,439,o),
(594,397,cs),
(510,2,l)
);
},
{
closed = 1;
nodes = (
(381,-8,o),
(427,-7,o),
(464,-4,c),
(489,112,l),
(459,97,o),
(416,96,o),
(347,96,cs),
(229,96,o),
(187,98,o),
(187,167,cs),
(187,197,o),
(195,239,o),
(207,297,c),
(528,297,l),
(549,397,l),
(107,397,l),
(96,344,ls),
(77,254,o),
(66,186,o),
(66,135,cs),
(66,24,o),
(129,-8,o),
(325,-8,cs)
);
}
);
width = 764;
},
{
anchors = (
{
name = bottom;
pos = (354.798,0);
},
{
name = top;
pos = (501.037,688);
}
);
background = {
anchors = (
{
name = bottom;
pos = (354.798,0);
},
{
name = top;
pos = (501.037,688);
}
);
shapes = (
{
closed = 1;
nodes = (
(636,-8,o),
(657,27,o),
(725,344,cs),
(743,430,o),
(754,496,o),
(754,546,cs),
(754,680,o),
(678,696,o),
(480,696,cs),
(419,696,o),
(329,686,o),
(274,673,c),
(265,638,l),
(322,652,o),
(404,662,o),
(465,662,cs),
(662,662,o),
(718,651,o),
(718,535,cs),
(718,494,o),
(708,438,o),
(693,365,c),
(123,365,l),
(119,344,ls),
(100,245,o),
(87,175,o),
(87,123,cs),
(87,8,o),
(150,-8,o),
(347,-8,cs)
);
},
{
closed = 1;
nodes = (
(184,26,o),
(122,28,o),
(122,134,cs),
(122,179,o),
(133,242,o),
(152,331,c),
(686,331,l),
(621,28,o),
(586,26,o),
(354,26,cs)
);
}
);
};
guides = (
{
angle = 78;
pos = (785,798);
},
{
angle = 78;
pos = (734,794);
}
);
layerId = "527899E9-AC81-44FE-89AA-146AC27955A1";
shapes = (
{
closed = 1;
nodes = (
(671,108,o),
(693,195,o),
(725,344,cs),
(743,430,o),
(754,496,o),
(754,546,cs),
(754,680,o),
(678,696,o),
(480,696,cs),
(419,696,o),
(329,686,o),
(274,673,c),
(265,638,l),
(322,652,o),
(404,662,o),
(465,662,cs),
(662,662,o),
(718,651,o),
(718,535,cs),
(718,494,o),
(708,438,o),
(693,365,cs),
(628,58,l)
);
},
{
closed = 1;
nodes = (
(450,-8,o),
(519,-4,o),
(569,17,c),
(578,61,l),
(532,26,o),
(466,26,o),
(354,26,cs),
(184,26,o),
(122,28,o),
(122,134,cs),
(122,179,o),
(133,242,o),
(152,331,c),
(636,331,l),
(643,365,l),
(123,365,l),
(119,344,ls),
(100,245,o),
(87,175,o),
(87,123,cs),
(87,8,o),
(150,-8,o),
(347,-8,cs)
);
}
);
width = 818;
}
);
unicode = 399;
},
{
glyphname = F;
layers = (
{
anchors = (
{
name = bottom;
pos = (81,0);
},
{
name = top;
pos = (373,688);
}
);
background = {
anchors = (
{
name = bottom;
pos = (81,0);
},
{
name = top;
pos = (373,688);
}
);
shapes = (
{
closed = 1;
nodes = (
(97,0,l),
(165,317,l),
(498,317,l),
(505,351,l),
(172,351,l),
(236,654,l),
(606,654,l),
(614,688,l),
(208,688,l),
(61,0,l)
);
}
);
};
guides = (
{
angle = 258;
pos = (281,650);
},
{
angle = 78;
pos = (201,488);
}
);
layerId = "CD898CA3-FB76-4965-A23E-9AA06D1CE2B1";
shapes = (
{
closed = 1;
nodes = (
(97,0,l),
(244,688,l),
(208,688,l),
(61,0,l)
);
},
{
closed = 1;
nodes = (
(498,317,l),
(505,351,l),
(218,351,l),
(210,317,l)
);
},
{
closed = 1;
nodes = (
(606,654,l),
(614,688,l),
(289,688,l),
(282,654,l)
);
}
);
width = 561;
},
{
anchors = (
{
name = bottom;
pos = (115,0);
},
{
name = top;
pos = (368,688);
}
);
background = {
anchors = (
{
name = bottom;
pos = (115,0);
},
{
name = top;
pos = (368,688);
}
);
shapes = (
{
closed = 1;
nodes = (
(227,0,l),
(277,233,l),
(491,233,l),
(526,400,l),
(312,400,l),
(338,521,l),
(589,521,l),
(625,688,l),
(141,688,l),
(-5,0,l)
);
}
);
};
guides = (
{
angle = 78;
pos = (338,519);
},
{
angle = 258;
pos = (392,611);
}
);
layerId = "B4DE345C-CFDB-4A54-B125-3358BD91D59F";
shapes = (
{
closed = 1;
nodes = (
(227,0,l),
(374,688,l),
(141,688,l),
(-5,0,l)
);
},
{
closed = 1;
nodes = (
(491,233,l),
(526,400,l),
(347,400,l),
(312,233,l)
);
},
{
closed = 1;
nodes = (
(589,521,l),
(625,688,l),
(409,688,l),
(373,521,l)
);
}
);
width = 552;
},
{
anchors = (
{
name = bottom;
pos = (106,0);
},
{
name = top;
pos = (385,688);
}
);
background = {
anchors = (
{
name = bottom;
pos = (106,0);
},
{
name = top;
pos = (385,688);
}
);
shapes = (
{
closed = 1;
nodes = (
(169,0,l),
(227,274,l),
(521,274,l),
(543,379,l),
(249,379,l),
(294,584,l),
(627,584,l),
(649,688,l),
(187,688,l),
(40,0,l)
);
}
);
};
guides = (
{
angle = 78;
pos = (367,746);
},
{
angle = 78;
pos = (327,744);
}
);
layerId = "20A7088A-67D7-4614-84CF-19C576DDC019";
shapes = (
{
closed = 1;
nodes = (
(169,0,l),
(315,688,l),
(187,688,l),
(40,0,l)
);
},
{
closed = 1;
nodes = (
(521,274,l),
(543,379,l),
(289,379,l),
(266,274,l)
);
},
{
closed = 1;
nodes = (
(627,584,l),
(649,688,l),
(354,688,l),
(332,584,l)
);
}
);
width = 586;
},
{
anchors = (
{
name = bottom;
pos = (82.798,0);
},
{
name = top;
pos = (229.037,688);
}
);
background = {
anchors = (
{
name = bottom;
pos = (82.798,0);
},
{
name = top;
pos = (229.037,688);
}
);
shapes = (
{
closed = 1;
nodes = (
(40,0,l),
(108,317,l),
(256,317,l),
(263,351,l),
(115,351,l),
(180,654,l),
(345,654,l),
(353,688,l),
(151,688,l),
(6,0,l)
);
}
);
};
guides = (
{
angle = 78;
pos = (202,757);
},
{
angle = 78;
pos = (238,757);
}
);
layerId = UUID0;
shapes = (
{
closed = 1;
nodes = (
(40,0,l),
(187,688,l),
(151,688,l),
(6,0,l)
);
},
{
closed = 1;
nodes = (
(256,317,l),
(263,351,l),
(151,351,l),
(144,317,l)
);
},
{
closed = 1;
nodes = (
(345,654,l),
(353,688,l),
(223,688,l),
(216,654,l)
);
}
);
width = 274;
},
{
anchors = (
{
name = bottom;
pos = (69.798,0);
},
{
name = top;
pos = (216.037,688);
}
);
background = {
anchors = (
{
name = bottom;
pos = (69.798,0);
},
{
name = top;
pos = (216.037,688);
}
);
shapes = (
{
closed = 1;
nodes = (
(115,0,l),
(174,278,l),
(243,278,l),
(269,404,l),
(201,404,l),
(234,562,l),
(308,562,l),
(335,688,l),
(129,688,l),
(-17,0,l)
);
}
);
};
guides = (
{
angle = 258;
pos = (293,745);
},
{
angle = 78;
pos = (273,744);
}
);
layerId = "2A096AB6-16C2-4C34-8164-FCBBBF8CEAEB";
shapes = (
{
closed = 1;
nodes = (
(115,0,l),
(261,688,l),
(129,688,l),
(-17,0,l)
);
},
{
closed = 1;
nodes = (
(243,278,l),
(269,404,l),
(221,404,l),
(194,278,l)
);
},
{
closed = 1;
nodes = (
(308,562,l),
(335,688,l),
(281,688,l),
(254,562,l)
);
}
);
width = 248;
},
{
anchors = (
{
name = bottom;
pos = (85.798,0);
},
{
name = top;
pos = (232.037,688);
}
);
background = {
anchors = (
{
name = bottom;
pos = (85.798,0);
},
{
name = top;
pos = (232.037,688);
}
);
shapes = (
{
closed = 1;
nodes = (
(74,0,l),
(138,300,l),
(261,300,l),
(276,371,l),
(153,371,l),
(206,617,l),
(342,617,l),
(358,688,l),
(144,688,l),
(-2,0,l)
);
}
);
};
guides = (
{
angle = 78;
pos = (233,744);
},
{
angle = 258;
pos = (263,746);
}
);
layerId = "B988E418-9469-42FB-AD32-095B8D65BEE5";
shapes = (
{
closed = 1;
nodes = (
(74,0,l),
(221,688,l),
(144,688,l),
(-2,0,l)
);
},
{
closed = 1;
nodes = (
(261,300,l),
(276,371,l),
(183,371,l),
(168,300,l)
);
},
{
closed = 1;
nodes = (
(342,617,l),
(358,688,l),
(250,688,l),
(235,617,l)
);
}
);
width = 279;
},
{
anchors = (
{
name = bottom;
pos = (269.798,0);
},
{
name = top;
pos = (416.037,688);
}
);
background = {
anchors = (
{
name = bottom;
pos = (269.798,0);
},
{
name = top;
pos = (416.037,688);
}
);
shapes = (
{
closed = 1;
nodes = (
(263,0,l),
(311,220,l),
(571,220,l),
(608,399,l),
(347,399,l),
(372,510,l),
(678,510,l),
(717,688,l),
(145,688,l),
(-1,0,l)
);
}
);
};
guides = (
{
angle = 78;
pos = (422,744);
},
{
angle = 258;
pos = (461,745);
}
);
layerId = "8AB9AFA2-7010-440B-BFFC-1C7CDFA1A370";
shapes = (
{
closed = 1;
nodes = (
(263,0,l),
(410,688,l),
(145,688,l),
(-1,0,l)
);
},
{
closed = 1;
nodes = (
(571,220,l),
(608,399,l),
(387,399,l),
(349,220,l)
);
},
{
closed = 1;
nodes = (
(678,510,l),
(717,688,l),
(448,688,l),
(411,510,l)
);
}
);
width = 648;
},
{
anchors = (
{
name = bottom;
pos = (276.798,0);
},
{
name = top;
pos = (423.037,688);
}
);
background = {
anchors = (
{
name = bottom;
pos = (276.798,0);
},
{
name = top;
pos = (423.037,688);
}
);
shapes = (
{
closed = 1;
nodes = (
(177,0,l),
(236,274,l),
(585,274,l),
(607,377,l),
(257,377,l),
(302,585,l),
(696,585,l),
(718,688,l),
(205,688,l),
(57,0,l)
);
}
);
};
guides = (
{
angle = 78;
pos = (391,796);
},
{
angle = 78;
pos = (346,794);
}
);
layerId = "8494D26F-946F-4BDA-8E04-2FD894ABFEA2";
shapes = (
{
closed = 1;
nodes = (
(177,0,l),
(323,688,l),
(205,688,l),
(57,0,l)
);
},
{
closed = 1;
nodes = (
(585,274,l),
(607,377,l),
(302,377,l),
(279,274,l)
);
},
{
closed = 1;
nodes = (
(696,585,l),
(718,688,l),
(369,688,l),
(347,585,l)
);
}
);
width = 662;
},
{
anchors = (
{
name = bottom;
pos = (271.798,0);
},
{
name = top;
pos = (418.037,688);
}
);
background = {
anchors = (
{
name = bottom;
pos = (271.798,0);
},
{
name = top;
pos = (418.037,688);
}
);
shapes = (
{
closed = 1;
nodes = (
(115,0,l),
(183,317,l),
(575,317,l),
(582,351,l),
(190,351,l),
(254,654,l),
(689,654,l),
(697,688,l),
(226,688,l),
(79,0,l)
);
}
);
};
guides = (
{
angle = 78;
pos = (335,798);
},
{
angle = 78;
pos = (284,794);
}
);
layerId = "527899E9-AC81-44FE-89AA-146AC27955A1";
shapes = (
{
closed = 1;
nodes = (
(115,0,l),
(261,688,l),
(226,688,l),
(79,0,l)
);
},
{
closed = 1;
nodes = (
(575,317,l),
(582,351,l),
(239,351,l),
(232,317,l)
);
},
{
closed = 1;
nodes = (
(689,654,l),
(697,688,l),
(311,688,l),
(304,654,l)
);
}
);
width = 652;
}
);
unicode = 70;
},
{
glyphname = G;
kernLeft = O;
kernRight = G;
layers = (
{
anchors = (
{
name = bottom;
pos = (303,0);
},
{
name = top;
pos = (429,688);
}
);
background = {
anchors = (
{
name = bottom;
pos = (303,0);
},
{
name = top;
pos = (429,688);
}
);
shapes = (
{
closed = 1;
nodes = (
(376,-8,o),
(456,-1,o),
(522,9,c),
(595,349,l),
(365,349,l),
(357,315,l),
(551,315,l),
(492,38,l),
(446,32,o),
(362,26,o),
(314,26,cs),
(163,26,o),
(108,47,o),
(108,150,cs),
(108,197,o),
(119,258,o),
(137,344,cs),
(203,659,o),
(255,662,o),
(480,662,cs),
(524,662,o),
(599,655,o),
(655,646,c),
(661,678,l),
(610,688,o),
(518,696,o),
(447,696,cs),
(220,696,o),
(166,657,o),
(101,344,cs),
(83,258,o),
(73,194,o),
(73,145,cs),
(73,13,o),
(152,-8,o),
(316,-8,cs)
);
}
);
};
guides = (
{
angle = 258;
pos = (622,650);
},
{
angle = 78;
pos = (542,488);
}
);
layerId = "CD898CA3-FB76-4965-A23E-9AA06D1CE2B1";
shapes = (
{
closed = 1;
nodes = (
(352,-8,o),
(395,-5,o),
(438,-1,c),
(445,33,l),
(401,29,o),
(348,26,o),
(314,26,cs),
(163,26,o),
(108,47,o),
(108,150,cs),
(108,197,o),
(119,258,o),
(137,344,cs),
(195,617,l),
(156,566,o),
(129,481,o),
(101,344,cs),
(83,258,o),
(73,194,o),
(73,145,cs),
(73,13,o),
(152,-8,o),
(316,-8,cs)
);
},
{
closed = 1;
nodes = (
(498,5,o),
(510,7,o),
(522,9,c),
(595,349,l),
(365,349,l),
(357,315,l),
(551,315,l),
(485,4,l)
);
},
{
closed = 1;
nodes = (
(290,661,o),
(361,662,o),
(480,662,cs),
(524,662,o),
(599,655,o),
(655,646,c),
(661,678,l),
(610,688,o),
(518,696,o),
(447,696,cs),
(360,696,o),
(298,690,o),
(251,665,c),
(241,614,l)
);
}
);
width = 683;
},
{
anchors = (
{
name = bottom;
pos = (296,0);
},
{
name = top;
pos = (432,688);
}
);
background = {
anchors = (
{
name = bottom;
pos = (296,0);
},
{
name = top;
pos = (432,688);
}
);
shapes = (
{
closed = 1;
nodes = (
(375,-8,o),
(480,1,o),
(555,13,c),
(640,414,l),
(370,414,l),
(338,263,l),
(404,263,l),
(382,156,l),
(367,156,o),
(345,155,o),
(338,155,cs),
(284,155,o),
(262,166,o),
(262,213,cs),
(262,242,o),
(270,283,o),
(283,344,cs),
(321,525,o),
(327,529,o),
(483,529,cs),
(519,529,o),
(599,523,o),
(659,516,c),
(692,672,l),
(617,686,o),
(510,696,o),
(435,696,cs),
(173,696,o),
(111,622,o),
(54,354,cs),
(39,283,o),
(30,225,o),
(30,179,cs),
(30,40,o),
(109,-8,o),
(302,-8,cs)
);
}
);
};
guides = (
{
angle = 78;
pos = (425,519);
},
{
angle = 258;
pos = (479,611);
}
);
layerId = "B4DE345C-CFDB-4A54-B125-3358BD91D59F";
shapes = (
{
closed = 1;
nodes = (
(306,-8,o),
(309,-8,o),
(313,-8,c),
(348,155,l),
(344,155,o),
(340,155,o),
(338,155,cs),
(284,155,o),
(262,166,o),
(262,213,cs),
(262,242,o),
(270,283,o),
(283,344,cs),
(357,693,l),
(160,678,o),
(105,593,o),
(54,354,cs),
(39,283,o),
(30,225,o),
(30,179,cs),
(30,40,o),
(109,-8,o),
(302,-8,cs)
);
},
{
closed = 1;
nodes = (
(415,-4,o),
(495,4,o),
(555,13,c),
(640,414,l),
(370,414,l),
(338,263,l),
(404,263,l),
(348,-7,l)
);
},
{
closed = 1;
nodes = (
(380,528,o),
(419,529,o),
(483,529,cs),
(519,529,o),
(599,523,o),
(659,516,c),
(692,672,l),
(617,686,o),
(510,696,o),
(435,696,cs),
(420,696,o),
(406,696,o),
(392,695,c),
(354,515,l)
);
}
);
width = 649;
},
{
anchors = (
{
name = bottom;
pos = (303,0);
},
{
name = top;
pos = (439,688);
}
);
background = {
anchors = (
{
name = bottom;
pos = (303,0);
},
{
name = top;
pos = (439,688);
}
);
shapes = (
{
closed = 1;
nodes = (
(393,-8,o),
(486,0,o),
(555,12,c),
(634,383,l),
(378,383,l),
(357,285,l),
(493,285,l),
(454,100,l),
(424,97,o),
(371,93,o),
(338,93,cs),
(226,93,o),
(184,110,o),
(184,190,cs),
(184,227,o),
(192,277,o),
(207,344,cs,{
name = "0.8 ⛔️";
}),
(258,589,o),
(290,592,o),
(492,592,cs),
(533,592,o),
(608,585,o),
(672,577,c),
(692,675,l),
(625,687,o),
(523,696,o),
(448,696,cs),
(200,696,o),
(140,632,o),
(79,347,cs,{
name = "0.8 ⛔️";
}),
(63,277,o),
(54,221,o),
(54,177,cs),
(54,32,o),
(131,-8,o),
(330,-8,cs)
);
}
);
};
guides = (
{
angle = 78;
pos = (502,513);
},
{
angle = 258;
pos = (567,631);
}
);
layerId = "20A7088A-67D7-4614-84CF-19C576DDC019";
shapes = (
{
closed = 1;
nodes = (
(349,-8,o),
(370,-7,o),
(392,-6,c),
(414,97,l),
(388,95,o),
(359,93,o),
(338,93,cs),
(226,93,o),
(184,110,o),
(184,190,cs),
(184,227,o),
(193,277,o),
(207,344,cs,{
name = "0.8 ⛔️";
}),
(278,677,l),
(166,642,o),
(123,551,o),
(79,347,cs,{
name = "0.8 ⛔️";
}),
(63,277,o),
(54,221,o),
(54,177,cs),
(54,32,o),
(131,-8,o),
(330,-8,cs)
);
},
{
closed = 1;
nodes = (
(475,0,o),
(518,6,o),
(555,12,c),
(634,383,l),
(378,383,l),
(357,285,l),
(493,285,l),
(432,-3,l)
);
},
{
closed = 1;
nodes = (
(333,591,o),
(391,592,o),
(492,592,cs),
(533,592,o),
(608,585,o),
(672,577,c),
(692,675,l),
(625,687,o),
(523,696,o),
(448,696,cs),
(398,696,o),
(356,693,o),
(320,687,c),
(293,560,l)
);
}
);
width = 693;
},
{
anchors = (
{
name = bottom;
pos = (124,0);
},
{
name = top;
pos = (270,688);
}
);
background = {
anchors = (
{
name = bottom;
pos = (124,0);
},
{
name = top;
pos = (270,688);
}
);
shapes = (
{
closed = 1;
nodes = (
(157,-8,o),
(197,-1,o),
(227,9,c),
(300,349,l),
(187,349,l),
(179,315,l),
(258,315,l),
(199,38,l),
(184,31,o),
(154,26,o),
(127,26,cs),
(77,26,o),
(55,43,o),
(55,107,cs),
(55,155,o),
(69,230,o),
(93,344,cs),
(156,647,o),
(179,662,o),
(278,662,cs),
(301,662,o),
(338,655,o),
(363,646,c),
(369,678,l),
(342,689,o),
(296,696,o),
(260,696,cs),
(150,696,o),
(118,638,o),
(57,344,cs),
(34,231,o),
(22,157,o),
(22,103,cs),
(22,16,o),
(55,-8,o),
(132,-8,cs)
);
}
);
};
guides = (
{
angle = 78;
pos = (316,757);
},
{
angle = 78;
pos = (352,757);
}
);
layerId = UUID0;
shapes = (
{
closed = 1;
nodes = (
(138,-8,o),
(146,-8,o),
(154,-7,c),
(161,28,l),
(150,27,o),
(138,26,o),
(127,26,cs),
(77,26,o),
(55,43,o),
(55,107,cs),
(55,155,o),
(69,230,o),
(93,344,cs),
(160,658,l),
(120,614,o),
(94,522,o),
(57,344,cs),
(34,231,o),
(22,157,o),
(22,103,cs),
(22,16,o),
(55,-8,o),
(132,-8,cs)
);
},
{
closed = 1;
nodes = (
(203,2,o),
(216,5,o),
(227,9,c),
(300,349,l),
(187,349,l),
(179,315,l),
(258,315,l),
(191,-1,l)
);
},
{
closed = 1;
nodes = (
(214,660,o),
(241,662,o),
(278,662,cs),
(301,662,o),
(338,655,o),
(363,646,c),
(369,678,l),
(342,689,o),
(296,696,o),
(260,696,cs),
(238,696,o),
(219,694,o),
(202,687,c),
(192,641,l)
);
}
);
width = 315;
},
{
anchors = (
{
name = bottom;
pos = (136,0);
},
{
name = top;
pos = (282,688);
}
);
background = {
anchors = (
{
name = bottom;
pos = (136,0);
},
{
name = top;
pos = (282,688);
}
);
shapes = (
{
closed = 1;
nodes = (
(184,-8,o),
(238,1,o),
(267,14,c),
(351,411,l),
(209,411,l),
(182,284,l),
(205,284,l),
(169,114,l),
(166,114,o),
(160,113,o),
(156,113,cs),
(142,113,o),
(135,113,o),
(135,135,cs),
(135,164,o),
(147,226,o),
(171,344,cs),
(216,565,o),
(218,570,o),
(298,570,cs),
(309,570,o),
(345,567,o),
(382,562,c),
(407,677,l),
(377,689,o),
(324,696,o),
(286,696,cs),
(144,696,o),
(99,634,o),
(39,340,cs),
(19,239,o),
(7,167,o),
(7,114,cs),
(7,17,o),
(44,-8,o),
(136,-8,cs)
);
}
);
};
guides = (
{
angle = 77.972;
pos = (246,520);
},
{
angle = 257.9052;
pos = (290,633);
}
);
layerId = "2A096AB6-16C2-4C34-8164-FCBBBF8CEAEB";
shapes = (
{
closed = 1;
nodes = (
(132,-8,o),
(133,-8,o),
(134,-8,c),
(159,113,l),
(158,113,o),
(157,113,o),
(156,113,cs),
(142,113,o),
(135,113,o),
(135,135,cs),
(135,164,o),
(146,226,o),
(171,344,cs),
(245,694,l),
(135,680,o),
(93,604,o),
(39,340,cs),
(19,239,o),
(7,167,o),
(7,114,cs),
(7,17,o),
(44,-8,o),
(131,-8,cs)
);
},
{
closed = 1;
nodes = (
(197,-6,o),
(243,3,o),
(267,14,c),
(351,411,l),
(209,411,l),
(182,284,l),
(215,284,l),
(153,-8,l)
);
},
{
closed = 1;
nodes = (
(251,569,o),
(269,570,o),
(298,570,cs),
(309,570,o),
(345,567,o),
(382,562,c),
(407,677,l),
(377,689,o),
(324,696,o),
(286,696,cs),
(279,696,o),
(272,696,o),
(266,696,c),
(236,558,l)
);
}
);
width = 346;
},
{
anchors = (
{
name = bottom;
pos = (129,0);
},
{
name = top;
pos = (275,688);
}
);
background = {
anchors = (
{
name = bottom;
pos = (129,0);
},
{
name = top;
pos = (275,688);
}
);
shapes = (
{
closed = 1;
nodes = (
(179,-8,o),
(228,0,o),
(260,11,c),
(337,373,l),
(205,373,l),
(190,302,l),
(248,302,l),
(199,70,l),
(187,67,o),
(170,63,o),
(151,63,cs),
(111,63,o),
(93,72,o),
(93,121,cs),
(93,161,o),
(107,230,o),
(130,344,cs),
(186,616,o),
(205,625,o),
(298,625,cs),
(316,625,o),
(358,619,o),
(386,613,c),
(401,678,l),
(372,688,o),
(319,696,o),
(281,696,cs),
(150,696,o),
(113,638,o),
(52,343,cs),
(30,236,o),
(19,162,o),
(19,109,cs),
(19,17,o),
(56,-8,o),
(143,-8,cs)
);
}
);
};
guides = (
{
angle = 78;
pos = (313,744);
},
{
angle = 258;
pos = (343,746);
}
);
layerId = "B988E418-9469-42FB-AD32-095B8D65BEE5";
shapes = (
{
closed = 1;
nodes = (
(146,-8,o),
(150,-8,o),
(153,-8,c),
(169,64,l),
(163,63,o),
(157,63,o),
(151,63,cs),
(111,63,o),
(93,72,o),
(93,121,cs),
(93,161,o),
(106,230,o),
(130,344,cs),
(202,684,l),
(132,656,o),
(99,569,o),
(52,343,cs),
(30,236,o),
(19,162,o),
(19,109,cs),
(19,17,o),
(56,-8,o),
(143,-8,cs)
);
},
{
closed = 1;
nodes = (
(211,-2,o),
(239,4,o),
(260,11,c),
(337,373,l),
(205,373,l),
(190,302,l),
(248,302,l),
(183,-6,l)
);
},
{
closed = 1;
nodes = (
(235,624,o),
(261,625,o),
(298,625,cs),
(316,625,o),
(358,619,o),
(386,613,c),
(401,678,l),
(372,688,o),
(319,696,o),
(281,696,cs),
(263,696,o),
(248,695,o),
(233,692,c),
(215,604,l)
);
}
);
width = 346;
},
{
anchors = (
{
name = bottom;
pos = (317.798,0);
},
{
name = top;
pos = (464.037,688);
}
);
background = {
anchors = (
{
name = bottom;
pos = (317.798,0);
},
{
name = top;
pos = (464.037,688);
}
);
shapes = (
{
closed = 1;
nodes = (
(436,-8,o),
(557,1,o),
(646,12,c),
(731,415,l),
(420,415,l),
(387,258,l),
(467,258,l),
(449,167,l),
(427,167,o),
(401,167,o),
(396,167,cs),
(329,167,o),
(303,180,o),
(303,234,cs),
(303,263,o),
(309,299,o),
(319,344,cs),
(354,512,o),
(358,518,o),
(541,518,cs),
(586,518,o),
(679,511,o),
(747,503,c),
(782,670,l),
(693,685,o),
(569,696,o),
(482,696,cs),
(182,696,o),
(115,619,o),
(59,358,cs),
(46,295,o),
(37,241,o),
(37,196,cs),
(37,47,o),
(129,-8,o),
(354,-8,cs)
);
}
);
};
guides = (
{
angle = 77;
pos = (543,744);
},
{
angle = 257;
pos = (582,745);
}
);
layerId = "8AB9AFA2-7010-440B-BFFC-1C7CDFA1A370";
shapes = (
{
closed = 1;
nodes = (
(359,-8,o),
(364,-8,o),
(369,-8,c),
(410,167,l),
(403,167,o),
(398,167,o),
(396,167,cs),
(329,167,o),
(303,180,o),
(303,234,cs),
(303,263,o),
(309,299,o),
(319,344,cs),
(399,693,l),
(169,679,o),
(109,593,o),
(59,358,cs),
(46,295,o),
(37,241,o),
(37,196,cs),
(37,47,o),
(129,-8,o),
(354,-8,cs)
);
},
{
closed = 1;
nodes = (
(484,-4,o),
(575,4,o),
(646,12,c),
(731,415,l),
(420,415,l),
(387,258,l),
(470,258,l),
(408,-7,l)
);
},
{
closed = 1;
nodes = (
(424,517,o),
(468,518,o),
(541,518,cs),
(586,518,o),
(679,511,o),
(747,503,c),
(782,670,l),
(693,685,o),
(569,696,o),
(482,696,cs),
(467,696,o),
(452,696,o),
(439,695,c),
(394,505,l)
);
}
);
width = 744;
},
{
anchors = (
{
name = bottom;
pos = (337.798,0);
},
{
name = top;
pos = (484.037,688);
}
);
background = {
anchors = (
{
name = bottom;
pos = (337.798,0);
},
{
name = top;
pos = (484.037,688);
}
);
shapes = (
{
closed = 1;
nodes = (
(446,-8,o),
(548,0,o),
(626,12,c),
(704,377,l),
(422,377,l),
(399,277,l),
(560,277,l),
(523,103,l),
(485,99,o),
(422,95,o),
(383,95,cs),
(243,95,o),
(194,113,o),
(194,199,cs),
(194,236,o),
(201,284,o),
(214,344,cs),
(270,590,o),
(305,593,o),
(541,593,cs),
(588,593,o),
(672,585,o),
(741,577,c),
(762,675,l),
(690,687,o),
(576,696,o),
(493,696,cs),
(218,696,o),
(157,635,o),
(91,348,cs),
(76,283,o),
(68,230,o),
(68,187,cs),
(68,32,o),
(156,-8,o),
(377,-8,cs)
);
}
);
};
guides = (
{
angle = 78;
pos = (670,796);
},
{
angle = 78;
pos = (625,794);
}
);
layerId = "8494D26F-946F-4BDA-8E04-2FD894ABFEA2";
shapes = (
{
closed = 1;
nodes = (
(400,-8,o),
(427,-7,o),
(455,-5,c),
(477,99,l),
(445,97,o),
(409,95,o),
(383,95,cs),
(243,95,o),
(194,113,o),
(194,199,cs),
(194,236,o),
(201,284,o),
(214,344,cs),
(284,671,l),
(177,632,o),
(135,541,o),
(91,348,cs),
(76,283,o),
(68,230,o),
(68,187,cs),
(68,32,o),
(156,-8,o),
(377,-8,cs)
);
},
{
closed = 1;
nodes = (
(544,1,o),
(588,6,o),
(626,12,c),
(704,377,l),
(422,377,l),
(399,277,l),
(560,277,l),
(500,-2,l)
);
},
{
closed = 1;
nodes = (
(350,592,o),
(418,593,o),
(541,593,cs),
(588,593,o),
(672,585,o),
(741,577,c),
(762,675,l),
(690,687,o),
(576,696,o),
(493,696,cs),
(428,696,o),
(375,693,o),
(331,684,c),
(305,557,l)
);
}
);
width = 783;
},
{
anchors = (
{
name = bottom;
pos = (345.798,0);
},
{
name = top;
pos = (492.037,688);
}
);
background = {
anchors = (
{
name = bottom;
pos = (345.798,0);
},
{
name = top;
pos = (492.037,688);
}
);
shapes = (
{
closed = 1;
nodes = (
(446,-8,o),
(539,-1,o),
(616,9,c),
(689,349,l),
(421,349,l),
(414,315,l),
(645,315,l),
(586,38,l),
(530,33,o),
(429,26,o),
(373,26,cs),
(191,26,o),
(125,48,o),
(125,164,cs),
(125,210,o),
(135,267,o),
(151,344,cs),
(218,662,o),
(279,662,o),
(544,662,cs),
(594,662,o),
(680,655,o),
(748,646,c),
(754,678,l),
(695,687,o),
(589,696,o),
(506,696,cs),
(243,696,o),
(182,663,o),
(115,344,cs),
(99,266,o),
(90,205,o),
(90,158,cs),
(90,12,o),
(183,-8,o),
(375,-8,cs)
);
}
);
};
guides = (
{
angle = 78;
pos = (748,798);
},
{
angle = 78;
pos = (697,794);
}
);
layerId = "527899E9-AC81-44FE-89AA-146AC27955A1";
shapes = (
{
closed = 1;
nodes = (
(420,-8,o),
(475,-5,o),
(528,0,c),
(536,34,l),
(481,30,o),
(415,26,o),
(373,26,cs),
(191,26,o),
(125,48,o),
(125,164,cs),
(125,210,o),
(135,267,o),
(151,344,cs),
(207,607,l),
(168,555,o),
(142,473,o),
(115,344,cs),
(99,266,o),
(90,205,o),
(90,158,cs),
(90,12,o),
(183,-8,o),
(375,-8,cs)
);
},
{
closed = 1;
nodes = (
(592,6,o),
(604,7,o),
(616,9,c),
(689,349,l),
(421,349,l),
(414,315,l),
(645,315,l),
(579,4,l)
);
},
{
closed = 1;
nodes = (
(315,662,o),
(399,662,o),
(544,662,cs),
(594,662,o),
(680,655,o),
(748,646,c),
(754,678,l),
(695,687,o),
(589,696,o),
(506,696,cs),
(397,696,o),
(323,690,o),
(269,661,c),
(258,610,l)
);
}
);
width = 800;
}
);
unicode = 71;
},
{
glyphname = H;
kernLeft = H;
kernRight = H;
layers = (
{
anchors = (
{
name = bottom;
pos = (315,0);
},
{
name = center;
pos = (422,510);
},
{
name = top;
pos = (461,688);
},
{
name = topleft;
pos = (208,688);
}
);
background = {
anchors = (
{
name = bottom;
pos = (315,0);
},
{
name = center;
pos = (422,510);
},
{
name = top;
pos = (461,688);
},
{
name = topleft;
pos = (208,688);
}
);
shapes = (
{
closed = 1;
nodes = (
(97,0,l),
(168,331,l),
(604,331,l),
(533,0,l),
(569,0,l),
(716,688,l),
(680,688,l),
(611,365,l),
(175,365,l),
(244,688,l),
(208,688,l),
(61,0,l)
);
}
);
};
guides = (
{
angle = 258;
pos = (281,650);
},
{
angle = 78;
pos = (201,488);
}
);
layerId = "CD898CA3-FB76-4965-A23E-9AA06D1CE2B1";
shapes = (
{
closed = 1;
nodes = (
(569,0,l),
(716,688,l),
(680,688,l),
(611,365,l),
(220,365,l),
(213,331,l),
(604,331,l),
(533,0,l)
);
},
{
closed = 1;
nodes = (
(97,0,l),
(244,688,l),
(208,688,l),
(61,0,l)
);
}
);
width = 738;
},
{
anchors = (
{
name = bottom;
pos = (293,0);
},
{
name = center;
pos = (400,510);
},
{
name = top;
pos = (439,688);
},
{
name = topleft;
pos = (141,688);
}
);
background = {
anchors = (
{
name = bottom;
pos = (293,0);
},
{
name = center;
pos = (400,510);
},
{
name = top;
pos = (439,688);
},
{
name = topleft;
pos = (141,688);
}
);
shapes = (
{
closed = 1;
nodes = (
(228,0,l),
(282,251,l),
(409,251,l),
(355,0,l),
(589,0,l),
(736,688,l),
(502,688,l),
(448,438,l),
(321,438,l),
(375,688,l),
(141,688,l),
(-5,0,l)
);
}
);
};
guides = (
{
angle = 78;
pos = (339,519);
},
{
angle = 258;
pos = (393,611);
}
);
layerId = "B4DE345C-CFDB-4A54-B125-3358BD91D59F";
shapes = (
{
closed = 1;
nodes = (
(589,0,l),
(736,688,l),
(502,688,l),
(448,438,l),
(356,438,l),
(316,251,l),
(409,251,l),
(355,0,l)
);
},
{
closed = 1;
nodes = (
(228,0,l),
(375,688,l),
(141,688,l),
(-5,0,l)
);
}
);
width = 693;
},
{
anchors = (
{
name = bottom;
pos = (320,0);
},
{
name = center;
pos = (431,510);
},
{
name = top;
pos = (466,688);
},
{
name = topleft;
pos = (187,688);
}
);
background = {
anchors = (
{
name = bottom;
pos = (320,0);
},
{
name = center;
pos = (431,510);
},
{
name = top;
pos = (466,688);
},
{
name = topleft;
pos = (187,688);
}
);
shapes = (
{
closed = 1;
nodes = (
(169,0,l),
(231,290,l),
(542,290,l),
(480,0,l),
(609,0,l),
(756,688,l),
(627,688,l),
(566,402,l),
(255,402,l),
(316,688,l),
(187,688,l),
(40,0,l)
);
}
);
};
guides = (
{
angle = 78;
pos = (368,746);
},
{
angle = 78;
pos = (328,744);
}
);
layerId = "20A7088A-67D7-4614-84CF-19C576DDC019";
shapes = (
{
closed = 1;
nodes = (
(609,0,l),
(756,688,l),
(627,688,l),
(566,402,l),
(295,402,l),
(271,290,l),
(542,290,l),
(480,0,l)
);
},
{
closed = 1;
nodes = (
(169,0,l),
(316,688,l),
(187,688,l),
(40,0,l)
);
}
);
width = 748;
},
{
anchors = (
{
name = bottom;
pos = (122.798,0);
},
{
name = center;
pos = (195.918,344);
},
{
name = top;
pos = (269.037,688);
},
{
name = topleft;
pos = (151,688);
}
);
background = {
anchors = (
{
name = bottom;
pos = (122.798,0);
},
{
name = center;
pos = (195.918,344);
},
{
name = top;
pos = (269.037,688);
},
{
name = topleft;
pos = (151,688);
}
);
shapes = (
{
closed = 1;
nodes = (
(40,0,l),
(111,331,l),
(290,331,l),
(220,0,l),
(254,0,l),
(401,688,l),
(365,688,l),
(297,365,l),
(118,365,l),
(187,688,l),
(151,688,l),
(6,0,l)
);
}
);
};
guides = (
{
angle = 78;
pos = (201,757);
},
{
angle = 78;
pos = (237,757);
}
);
layerId = UUID0;
shapes = (
{
closed = 1;
nodes = (
(254,0,l),
(401,688,l),
(365,688,l),
(297,365,l),
(154,365,l),
(147,331,l),
(290,331,l),
(220,0,l)
);
},
{
closed = 1;
nodes = (
(40,0,l),
(187,688,l),
(151,688,l),
(6,0,l)
);
}
);
width = 354;
},
{
anchors = (
{
name = bottom;
pos = (126.798,0);
},
{
name = center;
pos = (199.918,344);
},
{
name = top;
pos = (273.037,688);
},
{
name = topleft;
pos = (127,688);
}
);
background = {
anchors = (
{
name = bottom;
pos = (126.798,0);
},
{
name = center;
pos = (199.918,344);
},
{
name = top;
pos = (273.037,688);
},
{
name = topleft;
pos = (127,688);
}
);
shapes = (
{
closed = 1;
nodes = (
(112,0,l),
(172,283,l),
(212,283,l),
(152,0,l),
(283,0,l),
(430,688,l),
(298,688,l),
(239,412,l),
(200,412,l),
(259,688,l),
(127,688,l),
(-19,0,l)
);
}
);
};
guides = (
{
angle = 258;
pos = (291,745);
},
{
angle = 78;
pos = (271,744);
}
);
layerId = "2A096AB6-16C2-4C34-8164-FCBBBF8CEAEB";
shapes = (
{
closed = 1;
nodes = (
(283,0,l),
(430,688,l),
(298,688,l),
(239,412,l),
(220,412,l),
(193,283,l),
(212,283,l),
(152,0,l)
);
},
{
closed = 1;
nodes = (
(112,0,l),
(259,688,l),
(127,688,l),
(-19,0,l)
);
}
);
width = 362;
},
{
anchors = (
{
name = bottom;
pos = (133.798,0);
},
{
name = center;
pos = (206.918,344);
},
{
name = top;
pos = (280.037,688);
},
{
name = topleft;
pos = (144,688);
}
);
background = {
anchors = (
{
name = bottom;
pos = (133.798,0);
},
{
name = center;
pos = (206.918,344);
},
{
name = top;
pos = (280.037,688);
},
{
name = topleft;
pos = (144,688);
}
);
shapes = (
{
closed = 1;
nodes = (
(74,0,l),
(140,310,l),
(271,310,l),
(205,0,l),
(281,0,l),
(428,688,l),
(351,688,l),
(287,385,l),
(156,385,l),
(221,688,l),
(144,688,l),
(-2,0,l)
);
}
);
};
guides = (
{
angle = 78;
pos = (233,744);
},
{
angle = 258;
pos = (263,746);
}
);
layerId = "B988E418-9469-42FB-AD32-095B8D65BEE5";
shapes = (
{
closed = 1;
nodes = (
(281,0,l),
(428,688,l),
(351,688,l),
(287,385,l),
(186,385,l),
(170,310,l),
(271,310,l),
(205,0,l)
);
},
{
closed = 1;
nodes = (
(74,0,l),
(221,688,l),
(144,688,l),
(-2,0,l)
);
}
);
width = 376;
},
{
anchors = (
{
name = bottom;
pos = (344.798,0);
},
{
name = center;
pos = (417.918,344);
},
{
name = top;
pos = (491.037,688);
},
{
name = topleft;
pos = (145,688);
}
);
background = {
anchors = (
{
name = bottom;
pos = (344.798,0);
},
{
name = center;
pos = (417.918,344);
},
{
name = top;
pos = (491.037,688);
},
{
name = topleft;
pos = (145,688);
}
);
shapes = (
{
closed = 1;
nodes = (
(264,0,l),
(316,243,l),
(472,243,l),
(421,0,l),
(686,0,l),
(833,688,l),
(567,688,l),
(515,445,l),
(359,445,l),
(411,688,l),
(145,688,l),
(-1,0,l)
);
}
);
};
guides = (
{
angle = 78;
pos = (423,744);
},
{
angle = 258;
pos = (462,745);
}
);
layerId = "8AB9AFA2-7010-440B-BFFC-1C7CDFA1A370";
shapes = (
{
closed = 1;
nodes = (
(686,0,l),
(833,688,l),
(567,688,l),
(515,445,l),
(398,445,l),
(355,243,l),
(472,243,l),
(421,0,l)
);
},
{
closed = 1;
nodes = (
(264,0,l),
(411,688,l),
(145,688,l),
(-1,0,l)
);
}
);
width = 797;
},
{
anchors = (
{
name = bottom;
pos = (367.798,0);
},
{
name = center;
pos = (440.918,344);
},
{
name = top;
pos = (514.037,688);
},
{
name = topleft;
pos = (206,688);
}
);
background = {
anchors = (
{
name = bottom;
pos = (367.798,0);
},
{
name = center;
pos = (440.918,344);
},
{
name = top;
pos = (514.037,688);
},
{
name = topleft;
pos = (206,688);
}
);
shapes = (
{
closed = 1;
nodes = (
(178,0,l),
(241,295,l),
(630,295,l),
(567,0,l),
(687,0,l),
(834,688,l),
(715,688,l),
(652,398,l),
(263,398,l),
(325,688,l),
(206,688,l),
(58,0,l)
);
}
);
};
guides = (
{
angle = 78;
pos = (393,796);
},
{
angle = 78;
pos = (348,794);
}
);
layerId = "8494D26F-946F-4BDA-8E04-2FD894ABFEA2";
shapes = (
{
closed = 1;
nodes = (
(687,0,l),
(834,688,l),
(715,688,l),
(652,398,l),
(308,398,l),
(286,295,l),
(630,295,l),
(567,0,l)
);
},
{
closed = 1;
nodes = (
(178,0,l),
(325,688,l),
(206,688,l),
(58,0,l)
);
}
);
width = 844;
},
{
anchors = (
{
name = bottom;
pos = (375.798,0);
},
{
name = center;
pos = (448.918,344);
},
{
name = top;
pos = (522.037,688);
},
{
name = topleft;
pos = (226,688);
}
);
background = {
anchors = (
{
name = bottom;
pos = (375.798,0);
},
{
name = center;
pos = (448.918,344);
},
{
name = top;
pos = (522.037,688);
},
{
name = topleft;
pos = (226,688);
}
);
shapes = (
{
closed = 1;
nodes = (
(115,0,l),
(186,331,l),
(704,331,l),
(633,0,l),
(669,0,l),
(816,688,l),
(780,688,l),
(711,365,l),
(193,365,l),
(262,688,l),
(226,688,l),
(79,0,l)
);
}
);
};
guides = (
{
angle = 78;
pos = (335,798);
},
{
angle = 78;
pos = (284,794);
}
);
layerId = "527899E9-AC81-44FE-89AA-146AC27955A1";
shapes = (
{
closed = 1;
nodes = (
(669,0,l),
(816,688,l),
(780,688,l),
(711,365,l),
(243,365,l),
(236,331,l),
(704,331,l),
(633,0,l)
);
},
{
closed = 1;
nodes = (
(115,0,l),
(262,688,l),
(226,688,l),
(79,0,l)
);
}
);
width = 860;
}
);
unicode = 72;
},
{
glyphname = Hbar;
kernLeft = H;
kernRight = H;
layers = (
{
background = {
shapes = (
{
closed = 1;
nodes = (
(97,0,l),
(163,311,l),
(599,311,l),
(533,0,l),
(569,0,l),
(715,688,l),
(679,688,l),
(646,530,l),
(210,530,l),
(243,688,l),
(207,688,l),
(61,0,l)
);
},
{
closed = 1;
nodes = (
(202,494,l),
(638,494,l),
(606,345,l),
(170,345,l)
);
}
);
};
guides = (
{
angle = 258;
pos = (280,650);
},
{
angle = 78;
pos = (200,488);
}
);
layerId = "CD898CA3-FB76-4965-A23E-9AA06D1CE2B1";
shapes = (
{
closed = 1;
nodes = (
(97,0,l),
(203,497,l),
(639,497,l),
(606,345,l),
(215,345,l),
(207,311,l),
(599,311,l),
(533,0,l),
(569,0,l),
(715,688,l),
(679,688,l),
(645,527,l),
(209,527,l),
(243,688,l),
(207,688,l),
(61,0,l)
);
}
);
width = 738;
},
{
background = {
shapes = (
{
closed = 1;
nodes = (
(229,0,l),
(274,211,l),
(401,211,l),
(356,0,l),
(590,0,l),
(736,688,l),
(502,688,l),
(486,611,l),
(359,611,l),
(375,688,l),
(141,688,l),
(-5,0,l)
);
},
{
closed = 1;
nodes = (
(330,474,l),
(457,474,l),
(441,398,l),
(314,398,l)
);
}
);
};
guides = (
{
angle = 78;
pos = (340,519);
},
{
angle = 258;
pos = (394,611);
}
);
layerId = "B4DE345C-CFDB-4A54-B125-3358BD91D59F";
shapes = (
{
closed = 1;
nodes = (
(229,0,l),
(333,488,l),
(460,488,l),
(441,398,l),
(349,398,l),
(309,211,l),
(401,211,l),
(356,0,l),
(590,0,l),
(736,688,l),
(502,688,l),
(484,598,l),
(357,598,l),
(375,688,l),
(141,688,l),
(-5,0,l)
);
}
);
width = 693;
},
{
background = {
shapes = (
{
closed = 1;
nodes = (
(169,0,l),
(223,256,l),
(534,256,l),
(480,0,l),
(609,0,l),
(755,688,l),
(626,688,l),
(601,568,l),
(290,568,l),
(315,688,l),
(186,688,l),
(40,0,l)
);
},
{
closed = 1;
nodes = (
(271,479,l),
(582,479,l),
(558,368,l),
(247,368,l)
);
}
);
};
guides = (
{
angle = 78;
pos = (367,746);
},
{
angle = 78;
pos = (327,744);
}
);
layerId = "20A7088A-67D7-4614-84CF-19C576DDC019";
shapes = (
{
closed = 1;
nodes = (
(169,0,l),
(272,484,l),
(583,484,l),
(558,368,l),
(287,368,l),
(263,256,l),
(534,256,l),
(480,0,l),
(609,0,l),
(755,688,l),
(626,688,l),
(600,564,l),
(289,564,l),
(315,688,l),
(186,688,l),
(40,0,l)
);
}
);
width = 748;
},
{
background = {
shapes = (
{
closed = 1;
nodes = (
(41,0,l),
(107,311,l),
(286,311,l),
(220,0,l),
(256,0,l),
(403,688,l),
(367,688,l),
(333,529,l),
(154,529,l),
(188,688,l),
(152,688,l),
(5,0,l)
);
},
{
closed = 1;
nodes = (
(146,494,l),
(325,494,l),
(294,345,l),
(115,345,l)
);
}
);
};
guides = (
{
angle = 78;
pos = (202,757);
},
{
angle = 78;
pos = (238,757);
}
);
layerId = UUID0;
shapes = (
{
closed = 1;
nodes = (
(41,0,l),
(147,496,l),
(326,496,l),
(294,345,l),
(151,345,l),
(143,311,l),
(286,311,l),
(220,0,l),
(256,0,l),
(403,688,l),
(367,688,l),
(332,526,l),
(153,526,l),
(188,688,l),
(152,688,l),
(5,0,l)
);
}
);
width = 354;
},
{
background = {
shapes = (
{
closed = 1;
nodes = (
(112,0,l),
(172,283,l),
(212,283,l),
(152,0,l),
(283,0,l),
(430,688,l),
(298,688,l),
(274,577,l),
(235,577,l),
(259,688,l),
(127,688,l),
(-19,0,l)
);
},
{
closed = 1;
nodes = (
(221,513,l),
(260,513,l),
(239,412,l),
(200,412,l)
);
}
);
};
guides = (
{
angle = 258;
pos = (290,745);
},
{
angle = 78;
pos = (270,744);
}
);
layerId = "2A096AB6-16C2-4C34-8164-FCBBBF8CEAEB";
shapes = (
{
closed = 1;
nodes = (
(112,0,l),
(219,506,l),
(258,506,l),
(239,412,l),
(219,412,l),
(192,283,l),
(212,283,l),
(152,0,l),
(283,0,l),
(430,688,l),
(298,688,l),
(275,585,l),
(236,585,l),
(259,688,l),
(127,688,l),
(-19,0,l)
);
}
);
width = 362;
},
{
background = {
shapes = (
{
closed = 1;
nodes = (
(74,0,l),
(135,286,l),
(266,286,l),
(205,0,l),
(281,0,l),
(428,688,l),
(352,688,l),
(322,549,l),
(191,549,l),
(221,688,l),
(144,688,l),
(-2,0,l)
);
},
{
closed = 1;
nodes = (
(180,497,l),
(311,497,l),
(282,362,l),
(151,362,l)
);
}
);
};
guides = (
{
angle = 78;
pos = (232,744);
},
{
angle = 258;
pos = (262,746);
}
);
layerId = "B988E418-9469-42FB-AD32-095B8D65BEE5";
shapes = (
{
closed = 1;
nodes = (
(74,0,l),
(179,496,l),
(310,496,l),
(282,362,l),
(180,362,l),
(164,286,l),
(266,286,l),
(205,0,l),
(281,0,l),
(428,688,l),
(352,688,l),
(322,550,l),
(191,550,l),
(221,688,l),
(144,688,l),
(-2,0,l)
);
}
);
width = 376;
},
{
background = {
shapes = (
{
closed = 1;
nodes = (
(265,0,l),
(308,202,l),
(463,202,l),
(420,0,l),
(686,0,l),
(833,688,l),
(567,688,l),
(546,592,l),
(391,592,l),
(412,688,l),
(146,688,l),
(0,0,l)
);
},
{
closed = 1;
nodes = (
(370,492,l),
(525,492,l),
(506,405,l),
(351,405,l)
);
}
);
};
guides = (
{
angle = 78;
pos = (423,744);
},
{
angle = 258;
pos = (578,743);
}
);
layerId = "8AB9AFA2-7010-440B-BFFC-1C7CDFA1A370";
shapes = (
{
closed = 1;
nodes = (
(265,0,l),
(369,487,l),
(524,487,l),
(506,405,l),
(390,405,l),
(347,202,l),
(463,202,l),
(420,0,l),
(686,0,l),
(833,688,l),
(567,688,l),
(547,597,l),
(392,597,l),
(412,688,l),
(146,688,l),
(0,0,l)
);
}
);
width = 797;
},
{
background = {
shapes = (
{
closed = 1;
nodes = (
(177,0,l),
(233,261,l),
(622,261,l),
(566,0,l),
(686,0,l),
(833,688,l),
(714,688,l),
(685,554,l),
(295,554,l),
(324,688,l),
(205,688,l),
(57,0,l)
);
},
{
closed = 1;
nodes = (
(281,486,l),
(670,486,l),
(644,365,l),
(255,365,l)
);
}
);
};
guides = (
{
angle = 78;
pos = (391,796);
},
{
angle = 78;
pos = (346,794);
}
);
layerId = "8494D26F-946F-4BDA-8E04-2FD894ABFEA2";
shapes = (
{
closed = 1;
nodes = (
(177,0,l),
(279,480,l),
(668,480,l),
(644,365,l),
(299,365,l),
(277,261,l),
(622,261,l),
(566,0,l),
(686,0,l),
(833,688,l),
(714,688,l),
(686,560,l),
(296,560,l),
(324,688,l),
(205,688,l),
(57,0,l)
);
}
);
width = 844;
},
{
background = {
shapes = (
{
closed = 1;
nodes = (
(115,0,l),
(181,311,l),
(698,311,l),
(632,0,l),
(668,0,l),
(815,688,l),
(779,688,l),
(745,530,l),
(228,530,l),
(262,688,l),
(226,688,l),
(79,0,l)
);
},
{
closed = 1;
nodes = (
(221,496,l),
(738,496,l),
(706,345,l),
(189,345,l)
);
}
);
};
guides = (
{
angle = 78;
pos = (335,798);
},
{
angle = 78;
pos = (284,794);
}
);
layerId = "527899E9-AC81-44FE-89AA-146AC27955A1";
shapes = (
{
closed = 1;
nodes = (
(115,0,l),
(221,498,l),
(738,498,l),
(706,345,l),
(239,345,l),
(232,311,l),
(698,311,l),
(632,0,l),
(668,0,l),
(815,688,l),
(779,688,l),
(744,528,l),
(227,528,l),
(262,688,l),
(226,688,l),
(79,0,l)
);
}
);
width = 860;
}
);
metricWidth = H;
unicode = 294;
},
{
glyphname = I;
kernLeft = H;
kernRight = H;
layers = (
{
anchors = (
{
name = bottom;
pos = (79,0);
},
{
name = ogonek;
pos = (123,0);
},
{
name = top;
pos = (225,688);
},
{
name = topleft;
pos = (208,688);
}
);
background = {
anchors = (
{
name = bottom;
pos = (79,0);
},
{
name = ogonek;
pos = (97,0);
},
{
name = top;
pos = (225,688);
},
{
name = topleft;
pos = (208,688);
}
);
shapes = (
{
closed = 1;
nodes = (
(97,0,l),
(244,688,l),
(208,688,l),
(61,0,l)
);
}
);
};
layerId = "CD898CA3-FB76-4965-A23E-9AA06D1CE2B1";
shapes = (
{
closed = 1;
nodes = (
(97,0,l),
(244,688,l),
(208,688,l),
(61,0,l)
);
}
);
width = 266;
},
{
anchors = (
{
name = bottom;
pos = (112,0);
},
{
name = ogonek;
pos = (228,0);
},
{
name = top;
pos = (258,688);
},
{
name = topleft;
pos = (141,688);
}
);
background = {
anchors = (
{
name = bottom;
pos = (112,0);
},
{
name = ogonek;
pos = (228,0);
},
{
name = top;
pos = (258,688);
},
{
name = topleft;
pos = (141,688);
}
);
shapes = (
{
closed = 1;
nodes = (
(228,0,l),
(375,688,l),
(141,688,l),
(-5,0,l)
);
}
);
};
layerId = "B4DE345C-CFDB-4A54-B125-3358BD91D59F";
shapes = (
{
closed = 1;
nodes = (
(228,0,l),
(375,688,l),
(141,688,l),
(-5,0,l)
);
}
);
width = 332;
},
{
anchors = (
{
name = bottom;
pos = (103,0);
},
{
name = ogonek;
pos = (169,0);
},
{
name = top;
pos = (246,688);
},
{
name = topleft;
pos = (187,688);
}
);
background = {
anchors = (
{
name = bottom;
pos = (103,0);
},
{
name = ogonek;
pos = (169,0);
},
{
name = top;
pos = (246,688);
},
{
name = topleft;
pos = (187,688);
}
);
shapes = (
{
closed = 1;
nodes = (
(169,0,l),
(316,688,l),
(187,688,l),
(40,0,l)
);
}
);
};
layerId = "20A7088A-67D7-4614-84CF-19C576DDC019";
shapes = (
{
closed = 1;
nodes = (
(169,0,l),
(316,688,l),
(187,688,l),
(40,0,l)
);
}
);
width = 308;
},
{
anchors = (
{
name = bottom;
pos = (21.798,0);
},
{
name = ogonek;
pos = (63,0);
},
{
name = top;
pos = (168.037,688);
},
{
name = topleft;
pos = (151,688);
}
);
background = {
anchors = (
{
name = bottom;
pos = (21.798,0);
},
{
name = ogonek;
pos = (40,0);
},
{
name = top;
pos = (168.037,688);
},
{
name = topleft;
pos = (151,688);
}
);
shapes = (
{
closed = 1;
nodes = (
(40,0,l),
(187,688,l),
(151,688,l),
(6,0,l)
);
}
);
};
layerId = UUID0;
shapes = (
{
closed = 1;
nodes = (
(40,0,l),
(187,688,l),
(151,688,l),
(6,0,l)
);
}
);
width = 152;
},
{
anchors = (
{
name = bottom;
pos = (41.798,0);
},
{
name = ogonek;
pos = (114,0);
},
{
name = top;
pos = (188.037,688);
},
{
name = topleft;
pos = (129,688);
}
);
background = {
anchors = (
{
name = bottom;
pos = (41.798,0);
},
{
name = ogonek;
pos = (114,0);
},
{
name = top;
pos = (188.037,688);
},
{
name = topleft;
pos = (129,688);
}
);
shapes = (
{
closed = 1;
nodes = (
(114,0,l),
(261,688,l),
(129,688,l),
(-17,0,l)
);
}
);
};
layerId = "2A096AB6-16C2-4C34-8164-FCBBBF8CEAEB";
shapes = (
{
closed = 1;
nodes = (
(114,0,l),
(261,688,l),
(129,688,l),
(-17,0,l)
);
}
);
width = 192;
},
{
anchors = (
{
name = bottom;
pos = (32.798,0);
},
{
name = ogonek;
pos = (74,0);
},
{
name = top;
pos = (179.037,688);
},
{
name = topleft;
pos = (144,688);
}
);
background = {
anchors = (
{
name = bottom;
pos = (32.798,0);
},
{
name = ogonek;
pos = (74,0);
},
{
name = top;
pos = (179.037,688);
},
{
name = topleft;
pos = (144,688);
}
);
shapes = (
{
closed = 1;
nodes = (
(74,0,l),
(221,688,l),
(144,688,l),
(-2,0,l)
);
}
);
};
layerId = "B988E418-9469-42FB-AD32-095B8D65BEE5";
shapes = (
{
closed = 1;
nodes = (
(74,0,l),
(221,688,l),
(144,688,l),
(-2,0,l)
);
}
);
width = 174;
},
{
anchors = (
{
name = bottom;
pos = (133.798,0);
},
{
name = ogonek;
pos = (264,0);
},
{
name = top;
pos = (280.037,688);
},
{
name = topleft;
pos = (145,688);
}
);
background = {
anchors = (
{
name = bottom;
pos = (133.798,0);
},
{
name = ogonek;
pos = (264,0);
},
{
name = top;
pos = (280.037,688);
},
{
name = topleft;
pos = (145,688);
}
);
shapes = (
{
closed = 1;
nodes = (
(264,0,l),
(411,688,l),
(145,688,l),
(-1,0,l)
);
}
);
};
layerId = "8AB9AFA2-7010-440B-BFFC-1C7CDFA1A370";
shapes = (
{
closed = 1;
nodes = (
(264,0,l),
(411,688,l),
(145,688,l),
(-1,0,l)
);
}
);
width = 376;
},
{
anchors = (
{
name = bottom;
pos = (112.798,0);
},
{
name = ogonek;
pos = (177,0);
},
{
name = top;
pos = (259.037,688);
},
{
name = topleft;
pos = (205,688);
}
);
background = {
anchors = (
{
name = bottom;
pos = (112.798,0);
},
{
name = ogonek;
pos = (177,0);
},
{
name = top;
pos = (259.037,688);
},
{
name = topleft;
pos = (205,688);
}
);
shapes = (
{
closed = 1;
nodes = (
(177,0,l),
(324,688,l),
(205,688,l),
(57,0,l)
);
}
);
};
layerId = "8494D26F-946F-4BDA-8E04-2FD894ABFEA2";
shapes = (
{
closed = 1;
nodes = (
(177,0,l),
(324,688,l),
(205,688,l),
(57,0,l)
);
}
);
width = 334;
},
{
anchors = (
{
name = bottom;
pos = (96.798,0);
},
{
name = ogonek;
pos = (147,0);
},
{
name = top;
pos = (243.037,688);
},
{
name = topleft;
pos = (226,688);
}
);
background = {
anchors = (
{
name = bottom;
pos = (96.798,0);
},
{
name = ogonek;
pos = (115,0);
},
{
name = top;
pos = (243.037,688);
},
{
name = topleft;
pos = (226,688);
}
);
shapes = (
{
closed = 1;
nodes = (
(115,0,l),
(262,688,l),
(226,688,l),
(79,0,l)
);
}
);
};
layerId = "527899E9-AC81-44FE-89AA-146AC27955A1";
shapes = (
{
closed = 1;
nodes = (
(115,0,l),
(262,688,l),
(226,688,l),
(79,0,l)
);
}
);
width = 302;
}
);
unicode = 73;
},
{
glyphname = J;
kernLeft = J;
kernRight = U;
layers = (
{
anchors = (
{
name = bottom;
pos = (138,0);
},
{
name = top;
pos = (284,688);
}
);
background = {
anchors = (
{
name = bottom;
pos = (138,0);
},
{
name = top;
pos = (284,688);
}
);
shapes = (
{
closed = 1;
nodes = (
(150,0,o),
(155,5,o),
(207,245,cs),
(302,688,l),
(266,688,l),
(168,226,ls),
(128,38,o),
(124,34,o),
(-15,34,c),
(-23,0,l)
);
}
);
};
layerId = "CD898CA3-FB76-4965-A23E-9AA06D1CE2B1";
shapes = (
{
closed = 1;
nodes = (
(150,0,o),
(155,5,o),
(207,245,cs),
(302,688,l),
(266,688,l),
(168,226,ls),
(128,38,o),
(124,34,o),
(-15,34,c),
(-23,0,l)
);
}
);
width = 324;
},
{
anchors = (
{
name = bottom;
pos = (209,0);
},
{
name = top;
pos = (355,688);
}
);
background = {
anchors = (
{
name = bottom;
pos = (209,0);
},
{
name = top;
pos = (355,688);
}
);
shapes = (
{
closed = 1;
nodes = (
(326,0,o),
(333,11,o),
(391,288,cs),
(475,688,l),
(241,688,l),
(152,271,ls),
(129,163,o),
(123,158,o),
(-6,158,c),
(-40,0,l)
);
}
);
};
layerId = "B4DE345C-CFDB-4A54-B125-3358BD91D59F";
shapes = (
{
closed = 1;
nodes = (
(326,0,o),
(333,11,o),
(391,288,cs),
(475,688,l),
(241,688,l),
(152,271,ls),
(129,163,o),
(123,158,o),
(-6,158,c),
(-40,0,l)
);
}
);
width = 427;
},
{
anchors = (
{
name = bottom;
pos = (185,0);
},
{
name = top;
pos = (331,688);
}
);
background = {
anchors = (
{
name = bottom;
pos = (185,0);
},
{
name = top;
pos = (331,688);
}
);
shapes = (
{
closed = 1;
nodes = (
(246,0,o),
(255,11,o),
(312,281,cs),
(398,688,l),
(268,688,l),
(177,261,ls),
(145,107,o),
(140,101,o),
(-2,99,c),
(-24,0,l)
);
}
);
};
layerId = "20A7088A-67D7-4614-84CF-19C576DDC019";
shapes = (
{
closed = 1;
nodes = (
(246,0,o),
(255,11,o),
(312,281,cs),
(398,688,l),
(268,688,l),
(177,261,ls),
(145,107,o),
(140,101,o),
(-2,99,c),
(-24,0,l)
);
}
);
width = 388;
},
{
anchors = (
{
name = bottom;
pos = (4,0);
},
{
name = top;
pos = (150,688);
}
);
background = {
anchors = (
{
name = bottom;
pos = (4,0);
},
{
name = top;
pos = (150,688);
}
);
shapes = (
{
closed = 1;
nodes = (
(20,4,o),
(29,19,o),
(72,218,cs),
(172,688,l),
(136,688,l),
(39,226,ls,{
name = "1.1 ⛔️";
}),
(-1,43,o),
(-3,39,o),
(-53,34,c),
(-61,0,l)
);
}
);
};
layerId = UUID0;
shapes = (
{
closed = 1;
nodes = (
(20,4,o),
(29,19,o),
(72,218,cs),
(172,688,l),
(136,688,l),
(39,226,ls,{
name = "1.1 ⛔️";
}),
(-1,43,o),
(-3,39,o),
(-53,34,c),
(-61,0,l)
);
}
);
width = 139;
},
{
anchors = (
{
name = bottom;
pos = (77,0);
},
{
name = top;
pos = (223,688);
}
);
background = {
anchors = (
{
name = bottom;
pos = (77,0);
},
{
name = top;
pos = (223,688);
}
);
shapes = (
{
closed = 1;
nodes = (
(140,0,o),
(146,0,o),
(222,346,cs,{
name = "1.0 ⛔️";
}),
(295,688,l),
(163,688,l),
(65,226,ls,{
name = "0.8 ⛔️";
}),
(43,127,o),
(37,117,o),
(-25,117,c),
(-51,0,l)
);
}
);
};
layerId = "2A096AB6-16C2-4C34-8164-FCBBBF8CEAEB";
shapes = (
{
closed = 1;
nodes = (
(140,0,o),
(146,0,o),
(222,346,cs,{
name = "1.0 ⛔️";
}),
(295,688,l),
(163,688,l),
(65,226,ls,{
name = "0.8 ⛔️";
}),
(43,127,o),
(37,117,o),
(-25,117,c),
(-51,0,l)
);
}
);
width = 228;
},
{
anchors = (
{
name = bottom;
pos = (41,0);
},
{
name = top;
pos = (187,688);
}
);
background = {
anchors = (
{
name = bottom;
pos = (41,0);
},
{
name = top;
pos = (187,688);
}
);
shapes = (
{
closed = 1;
nodes = (
(73,0,o),
(84,9,o),
(139,264,cs),
(230,688,l),
(153,688,l),
(55,226,ls,{
name = "0.9 ⛔️";
}),
(22,76,o),
(18,71,o),
(-40,69,c),
(-55,0,l)
);
}
);
};
layerId = "B988E418-9469-42FB-AD32-095B8D65BEE5";
shapes = (
{
closed = 1;
nodes = (
(73,0,o),
(84,9,o),
(139,264,cs),
(230,688,l),
(153,688,l),
(55,226,ls,{
name = "0.9 ⛔️";
}),
(22,76,o),
(18,71,o),
(-40,69,c),
(-55,0,l)
);
}
);
width = 184;
},
{
anchors = (
{
name = bottom;
pos = (241,0);
},
{
name = top;
pos = (387,688);
}
);
background = {
anchors = (
{
name = bottom;
pos = (241,0);
},
{
name = top;
pos = (387,688);
}
);
shapes = (
{
closed = 1;
nodes = (
(378,0,o),
(387,5,o),
(444,272,cs),
(532,688,l),
(266,688,l),
(180,284,ls),
(156,171,o),
(152,169,o),
(0,169,c),
(-36,0,l)
);
}
);
};
layerId = "8AB9AFA2-7010-440B-BFFC-1C7CDFA1A370";
shapes = (
{
closed = 1;
nodes = (
(378,0,o),
(387,5,o),
(444,272,cs),
(532,688,l),
(266,688,l),
(180,284,ls),
(156,171,o),
(152,169,o),
(0,169,c),
(-36,0,l)
);
}
);
width = 490;
},
{
anchors = (
{
name = bottom;
pos = (221,0);
},
{
name = top;
pos = (367,688);
}
);
background = {
anchors = (
{
name = bottom;
pos = (221,0);
},
{
name = top;
pos = (367,688);
}
);
shapes = (
{
closed = 1;
nodes = (
(268,0,o),
(275,6,o),
(334,277,cs),
(422,688,l),
(303,688,l),
(213,270,ls,{
name = "1.8 ⛔️";
}),
(180,105,o),
(176,102,o),
(6,100,c),
(-15,0,l)
);
}
);
};
layerId = "8494D26F-946F-4BDA-8E04-2FD894ABFEA2";
shapes = (
{
closed = 1;
nodes = (
(268,0,o),
(275,6,o),
(334,277,cs),
(422,688,l),
(303,688,l),
(213,270,ls,{
name = "1.8 ⛔️";
}),
(180,105,o),
(176,102,o),
(6,100,c),
(-15,0,l)
);
}
);
width = 427;
},
{
anchors = (
{
name = bottom;
pos = (178,0);
},
{
name = top;
pos = (324,688);
}
);
background = {
anchors = (
{
name = bottom;
pos = (178,0);
},
{
name = top;
pos = (324,688);
}
);
shapes = (
{
closed = 1;
nodes = (
(192,0,o),
(197,5,o),
(250,253,cs),
(343,688,l),
(307,688,l),
(209,226,ls),
(169,36,o),
(165,32,o),
(-3,34,c),
(-11,0,l)
);
}
);
};
layerId = "527899E9-AC81-44FE-89AA-146AC27955A1";
shapes = (
{
closed = 1;
nodes = (
(192,0,o),
(197,5,o),
(250,253,cs),
(343,688,l),
(307,688,l),
(209,226,ls),
(169,36,o),
(165,32,o),
(-3,34,c),
(-11,0,l)
);
}
);
width = 383;
}
);
unicode = 74;
},
{
glyphname = K;
kernLeft = H;
kernRight = X;
layers = (
{
anchors = (
{
name = bottom;
pos = (279,0);
},
{
name = top;
pos = (425,688);
}
);
background = {
anchors = (
{
name = bottom;
pos = (279,0);
},
{
name = top;
pos = (425,688);
}
);
shapes = (
{
closed = 1;
nodes = (
(97,0,l),
(168,332,l),
(341,332,l),
(532,0,l),
(571,0,l),
(373,346,l),
(715,688,l),
(669,688,l),
(348,366,l),
(175,366,l),
(244,688,l),
(208,688,l),
(61,0,l)
);
}
);
};
guides = (
{
angle = 258;
pos = (281,650);
},
{
angle = 78;
pos = (201,488);
}
);
layerId = "CD898CA3-FB76-4965-A23E-9AA06D1CE2B1";
shapes = (
{
closed = 1;
nodes = (
(97,0,l),
(244,688,l),
(208,688,l),
(61,0,l)
);
},
{
closed = 1;
nodes = (
(571,0,l),
(373,346,l),
(715,688,l),
(669,688,l),
(348,366,l),
(221,366,l),
(214,332,l),
(341,332,l),
(532,0,l)
);
}
);
width = 665;
},
{
anchors = (
{
name = bottom;
pos = (293,0);
},
{
name = top;
pos = (439,688);
}
);
background = {
anchors = (
{
name = bottom;
pos = (293,0);
},
{
name = top;
pos = (439,688);
}
);
shapes = (
{
closed = 1;
nodes = (
(228,0,l),
(285,268,l),
(295,268,l),
(391,0,l),
(639,0,l),
(504,350,l),
(783,688,l),
(528,688,l),
(330,431,l),
(320,431,l),
(375,688,l),
(141,688,l),
(-5,0,l)
);
}
);
};
guides = (
{
angle = 78;
pos = (339,519);
},
{
angle = 258;
pos = (393,611);
}
);
layerId = "B4DE345C-CFDB-4A54-B125-3358BD91D59F";
shapes = (
{
closed = 1;
nodes = (
(228,0,l),
(375,688,l),
(141,688,l),
(-5,0,l)
);
},
{
closed = 1;
nodes = (
(639,0,l),
(539,350,l),
(783,688,l),
(528,688,l),
(365,431,l),
(355,431,l),
(320,268,l),
(330,268,l),
(391,0,l)
);
}
);
width = 693;
},
{
anchors = (
{
name = bottom;
pos = (298,0);
},
{
name = top;
pos = (444,688);
}
);
background = {
anchors = (
{
name = bottom;
pos = (298,0);
},
{
name = top;
pos = (444,688);
}
);
shapes = (
{
closed = 1;
nodes = (
(169,0,l),
(233,299,l),
(329,299,l),
(493,0,l),
(634,0,l),
(442,346,l),
(778,688,l),
(630,688,l),
(351,401,l),
(255,401,l),
(316,688,l),
(187,688,l),
(40,0,l)
);
}
);
};
guides = (
{
angle = 78;
pos = (368,746);
},
{
angle = 78;
pos = (328,744);
}
);
layerId = "20A7088A-67D7-4614-84CF-19C576DDC019";
shapes = (
{
closed = 1;
nodes = (
(169,0,l),
(316,688,l),
(187,688,l),
(40,0,l)
);
},
{
closed = 1;
nodes = (
(634,0,l),
(442,346,l),
(778,688,l),
(630,688,l),
(351,401,l),
(294,401,l),
(273,299,l),
(329,299,l),
(493,0,l)
);
}
);
width = 703;
},
{
anchors = (
{
name = bottom;
pos = (120,0);
},
{
name = top;
pos = (258,688);
}
);
background = {
anchors = (
{
name = bottom;
pos = (120,0);
},
{
name = top;
pos = (258,688);
}
);
shapes = (
{
closed = 1;
nodes = (
(40,0,l),
(111,332,l),
(172,332,l),
(220,0,l),
(256,0,l),
(205,347,l),
(402,688,l),
(364,688,l),
(179,366,l),
(118,366,l),
(187,688,l),
(151,688,l),
(6,0,l)
);
}
);
};
guides = (
{
angle = 78;
pos = (201,757);
},
{
angle = 78;
pos = (237,757);
}
);
layerId = UUID0;
shapes = (
{
closed = 1;
nodes = (
(40,0,l),
(187,688,l),
(151,688,l),
(6,0,l)
);
},
{
closed = 1;
nodes = (
(256,0,l),
(205,347,l),
(402,688,l),
(364,688,l),
(179,366,l),
(154,366,l),
(147,332,l),
(172,332,l),
(220,0,l)
);
}
);
width = 312;
},
{
anchors = (
{
name = bottom;
pos = (136,0);
},
{
name = top;
pos = (283,688);
}
);
background = {
anchors = (
{
name = bottom;
pos = (136,0);
},
{
name = top;
pos = (283,688);
}
);
shapes = (
{
closed = 1;
nodes = (
(114,0,l),
(174,283,l),
(189,283,l),
(163,0,l),
(293,0,l),
(307,346,l),
(437,688,l),
(303,688,l),
(217,412,l),
(202,412,l),
(261,688,l),
(129,688,l),
(-17,0,l)
);
}
);
};
guides = (
{
angle = 258;
pos = (293,745);
},
{
angle = 78;
pos = (273,744);
}
);
layerId = "2A096AB6-16C2-4C34-8164-FCBBBF8CEAEB";
shapes = (
{
closed = 1;
nodes = (
(114,0,l),
(261,688,l),
(129,688,l),
(-17,0,l)
);
},
{
closed = 1;
nodes = (
(293,0,l),
(319,346,l),
(437,688,l),
(303,688,l),
(229,412,l),
(222,412,l),
(195,283,l),
(201,283,l),
(163,0,l)
);
}
);
width = 342;
},
{
anchors = (
{
name = bottom;
pos = (128,0);
},
{
name = top;
pos = (273,688);
}
);
background = {
anchors = (
{
name = bottom;
pos = (128,0);
},
{
name = top;
pos = (273,688);
}
);
shapes = (
{
closed = 1;
nodes = (
(74,0,l),
(140,311,l),
(185,311,l),
(209,0,l),
(286,0,l),
(255,348,l),
(431,688,l),
(351,688,l),
(200,386,l),
(157,386,l),
(221,688,l),
(144,688,l),
(-2,0,l)
);
}
);
};
guides = (
{
angle = 78;
pos = (233,744);
},
{
angle = 258;
pos = (263,746);
}
);
layerId = "B988E418-9469-42FB-AD32-095B8D65BEE5";
shapes = (
{
closed = 1;
nodes = (
(74,0,l),
(221,688,l),
(144,688,l),
(-2,0,l)
);
},
{
closed = 1;
nodes = (
(286,0,l),
(255,348,l),
(431,688,l),
(351,688,l),
(200,386,l),
(186,386,l),
(171,311,l),
(185,311,l),
(209,0,l)
);
}
);
width = 342;
},
{
anchors = (
{
name = bottom;
pos = (347.798,0);
},
{
name = top;
pos = (494.037,688);
}
);
background = {
anchors = (
{
name = bottom;
pos = (347.798,0);
},
{
name = top;
pos = (494.037,688);
}
);
shapes = (
{
closed = 1;
nodes = (
(264,0,l),
(320,265,l),
(329,265,l),
(463,0,l),
(749,0,l),
(568,351,l),
(893,688,l),
(599,688,l),
(365,435,l),
(357,435,l),
(411,688,l),
(145,688,l),
(-1,0,l)
);
}
);
};
guides = (
{
angle = 78;
pos = (423,744);
},
{
angle = 258;
pos = (462,745);
}
);
layerId = "8AB9AFA2-7010-440B-BFFC-1C7CDFA1A370";
shapes = (
{
closed = 1;
nodes = (
(264,0,l),
(411,688,l),
(145,688,l),
(-1,0,l)
);
},
{
closed = 1;
nodes = (
(749,0,l),
(608,351,l),
(893,688,l),
(599,688,l),
(405,435,l),
(396,435,l),
(360,265,l),
(369,265,l),
(463,0,l)
);
}
);
width = 804;
},
{
anchors = (
{
name = bottom;
pos = (340.798,0);
},
{
name = top;
pos = (487.037,688);
}
);
background = {
anchors = (
{
name = bottom;
pos = (340.798,0);
},
{
name = top;
pos = (487.037,688);
}
);
shapes = (
{
closed = 1;
nodes = (
(177,0,l),
(241,298,l),
(373,298,l),
(577,0,l),
(715,0,l),
(475,346,l),
(856,688,l),
(709,688,l),
(390,401,l),
(263,401,l),
(324,688,l),
(205,688,l),
(57,0,l)
);
}
);
};
guides = (
{
angle = 78;
pos = (392,796);
},
{
angle = 78;
pos = (347,794);
}
);
layerId = "8494D26F-946F-4BDA-8E04-2FD894ABFEA2";
shapes = (
{
closed = 1;
nodes = (
(177,0,l),
(324,688,l),
(205,688,l),
(57,0,l)
);
},
{
closed = 1;
nodes = (
(715,0,l),
(475,346,l),
(856,688,l),
(709,688,l),
(390,401,l),
(308,401,l),
(286,298,l),
(373,298,l),
(577,0,l)
);
}
);
width = 789;
},
{
anchors = (
{
name = bottom;
pos = (334.798,0);
},
{
name = top;
pos = (481.037,688);
}
);
background = {
anchors = (
{
name = bottom;
pos = (334.798,0);
},
{
name = top;
pos = (481.037,688);
}
);
shapes = (
{
closed = 1;
nodes = (
(115,0,l),
(186,332,l),
(395,332,l),
(630,0,l),
(671,0,l),
(426,345,l),
(815,688,l),
(767,688,l),
(402,366,l),
(193,366,l),
(262,688,l),
(226,688,l),
(79,0,l)
);
}
);
};
guides = (
{
angle = 78;
pos = (335,798);
},
{
angle = 78;
pos = (284,794);
}
);
layerId = "527899E9-AC81-44FE-89AA-146AC27955A1";
shapes = (
{
closed = 1;
nodes = (
(115,0,l),
(262,688,l),
(226,688,l),
(79,0,l)
);
},
{
closed = 1;
nodes = (
(671,0,l),
(426,345,l),
(815,688,l),
(767,688,l),
(402,366,l),
(243,366,l),
(236,332,l),
(395,332,l),
(630,0,l)
);
}
);
width = 777;
}
);
unicode = 75;
},
{
glyphname = L;
kernLeft = H;
kernRight = L;
layers = (
{
anchors = (
{
name = bottom;
pos = (264,0);
},
{
name = center;
pos = (154,344);
},
{
name = top;
pos = (227,688);
},
{
name = topright;
pos = (347,510);
}
);
background = {
anchors = (
{
name = bottom;
pos = (264,0);
},
{
name = center;
pos = (154,344);
},
{
name = top;
pos = (227,688);
},
{
name = topright;
pos = (347,510);
}
);
shapes = (
{
closed = 1;
nodes = (
(447,0,l),
(455,34,l),
(105,34,l),
(244,688,l),
(208,688,l),
(61,0,l)
);
}
);
};
guides = (
{
angle = 258;
pos = (281,650);
},
{
angle = 78;
pos = (201,488);
}
);
layerId = "CD898CA3-FB76-4965-A23E-9AA06D1CE2B1";
shapes = (
{
closed = 1;
nodes = (
(97,0,l),
(244,688,l),
(208,688,l),
(61,0,l)
);
},
{
closed = 1;
nodes = (
(447,0,l),
(455,34,l),
(150,34,l),
(143,0,l)
);
}
);
width = 536;
},
{
anchors = (
{
name = bottom;
pos = (227,0);
},
{
name = center;
pos = (186,344);
},
{
name = top;
pos = (259,688);
},
{
name = topright;
pos = (383,510);
}
);
background = {
anchors = (
{
name = bottom;
pos = (227,0);
},
{
name = center;
pos = (186,344);
},
{
name = top;
pos = (259,688);
},
{
name = topright;
pos = (383,510);
}
);
shapes = (
{
closed = 1;
nodes = (
(458,0,l),
(496,176,l),
(266,176,l),
(375,688,l),
(141,688,l),
(-5,0,l)
);
}
);
};
guides = (
{
angle = 78;
pos = (339,519);
},
{
angle = 258;
pos = (393,611);
}
);
layerId = "B4DE345C-CFDB-4A54-B125-3358BD91D59F";
shapes = (
{
closed = 1;
nodes = (
(229,0,l),
(375,688,l),
(141,688,l),
(-5,0,l)
);
},
{
closed = 1;
nodes = (
(458,0,l),
(496,176,l),
(301,176,l),
(264,0,l)
);
}
);
width = 521;
},
{
anchors = (
{
name = bottom;
pos = (272,0);
},
{
name = center;
pos = (178,344);
},
{
name = top;
pos = (251,688);
},
{
name = topright;
pos = (368,510);
}
);
background = {
anchors = (
{
name = bottom;
pos = (272,0);
},
{
name = center;
pos = (178,344);
},
{
name = top;
pos = (251,688);
},
{
name = topright;
pos = (368,510);
}
);
shapes = (
{
closed = 1;
nodes = (
(479,0,l),
(503,109,l),
(193,109,l),
(316,688,l),
(187,688,l),
(40,0,l)
);
}
);
};
guides = (
{
angle = 78;
pos = (368,746);
},
{
angle = 78;
pos = (328,744);
}
);
layerId = "20A7088A-67D7-4614-84CF-19C576DDC019";
shapes = (
{
closed = 1;
nodes = (
(170,0,l),
(316,688,l),
(187,688,l),
(40,0,l)
);
},
{
closed = 1;
nodes = (
(479,0,l),
(503,109,l),
(233,109,l),
(210,0,l)
);
}
);
width = 554;
},
{
anchors = (
{
name = bottom;
pos = (98,0);
},
{
name = center;
pos = (138.918,344);
},
{
name = top;
pos = (169,688);
},
{
name = topright;
pos = (174,510);
}
);
background = {
anchors = (
{
name = bottom;
pos = (98,0);
},
{
name = center;
pos = (138.918,344);
},
{
name = top;
pos = (169,688);
},
{
name = topright;
pos = (174,510);
}
);
shapes = (
{
closed = 1;
nodes = (
(196,0,l),
(204,34,l),
(48,34,l),
(187,688,l),
(151,688,l),
(6,0,l)
);
}
);
};
guides = (
{
angle = 78;
pos = (202,757);
},
{
angle = 78;
pos = (238,757);
}
);
layerId = UUID0;
shapes = (
{
closed = 1;
nodes = (
(41,0,l),
(187,688,l),
(151,688,l),
(6,0,l)
);
},
{
closed = 1;
nodes = (
(196,0,l),
(204,34,l),
(84,34,l),
(77,0,l)
);
}
);
width = 240;
},
{
anchors = (
{
name = bottom;
pos = (73.798,0);
},
{
name = center;
pos = (146.918,344);
},
{
name = top;
pos = (194,688);
},
{
name = topright;
pos = (214,510);
}
);
background = {
anchors = (
{
name = bottom;
pos = (73.798,0);
},
{
name = center;
pos = (146.918,344);
},
{
name = top;
pos = (194,688);
},
{
name = topright;
pos = (214,510);
}
);
shapes = (
{
closed = 1;
nodes = (
(198,0,l),
(225,127,l),
(141,127,l),
(261,688,l),
(129,688,l),
(-17,0,l)
);
}
);
};
guides = (
{
angle = 258;
pos = (293,745);
},
{
angle = 78;
pos = (273,744);
}
);
layerId = "2A096AB6-16C2-4C34-8164-FCBBBF8CEAEB";
shapes = (
{
closed = 1;
nodes = (
(115,0,l),
(261,688,l),
(129,688,l),
(-17,0,l)
);
},
{
closed = 1;
nodes = (
(198,0,l),
(225,127,l),
(162,127,l),
(135,0,l)
);
}
);
width = 255;
},
{
anchors = (
{
name = bottom;
pos = (105,0);
},
{
name = center;
pos = (149.918,344);
},
{
name = top;
pos = (181,688);
},
{
name = topright;
pos = (211,510);
}
);
background = {
anchors = (
{
name = bottom;
pos = (105,0);
},
{
name = center;
pos = (149.918,344);
},
{
name = top;
pos = (181,688);
},
{
name = topright;
pos = (211,510);
}
);
shapes = (
{
closed = 1;
nodes = (
(208,0,l),
(224,73,l),
(89,73,l),
(221,688,l),
(144,688,l),
(-2,0,l)
);
}
);
};
guides = (
{
angle = 78;
pos = (233,744);
},
{
angle = 258;
pos = (263,746);
}
);
layerId = "B988E418-9469-42FB-AD32-095B8D65BEE5";
shapes = (
{
closed = 1;
nodes = (
(75,0,l),
(221,688,l),
(144,688,l),
(-2,0,l)
);
},
{
closed = 1;
nodes = (
(208,0,l),
(224,73,l),
(120,73,l),
(105,0,l)
);
}
);
width = 262;
},
{
anchors = (
{
name = bottom;
pos = (278,0);
},
{
name = center;
pos = (321.918,344);
},
{
name = top;
pos = (275,688);
},
{
name = topright;
pos = (437,510);
}
);
background = {
anchors = (
{
name = bottom;
pos = (278,0);
},
{
name = center;
pos = (321.918,344);
},
{
name = top;
pos = (275,688);
},
{
name = topright;
pos = (437,510);
}
);
shapes = (
{
closed = 1;
nodes = (
(541,0,l),
(582,190,l),
(304,190,l),
(411,688,l),
(145,688,l),
(-1,0,l)
);
}
);
};
guides = (
{
angle = 78;
pos = (423,744);
},
{
angle = 258;
pos = (462,745);
}
);
layerId = "8AB9AFA2-7010-440B-BFFC-1C7CDFA1A370";
shapes = (
{
closed = 1;
nodes = (
(265,0,l),
(411,688,l),
(145,688,l),
(-1,0,l)
);
},
{
closed = 1;
nodes = (
(541,0,l),
(582,190,l),
(344,190,l),
(304,0,l)
);
}
);
width = 605;
},
{
anchors = (
{
name = bottom;
pos = (307,0);
},
{
name = center;
pos = (332.918,344);
},
{
name = top;
pos = (263,688);
},
{
name = topright;
pos = (431,510);
}
);
background = {
anchors = (
{
name = bottom;
pos = (307,0);
},
{
name = center;
pos = (332.918,344);
},
{
name = top;
pos = (263,688);
},
{
name = topright;
pos = (431,510);
}
);
shapes = (
{
closed = 1;
nodes = (
(544,0,l),
(566,107,l),
(200,107,l),
(324,688,l),
(205,688,l),
(57,0,l)
);
}
);
};
guides = (
{
angle = 78;
pos = (392,796);
},
{
angle = 78;
pos = (347,794);
}
);
layerId = "8494D26F-946F-4BDA-8E04-2FD894ABFEA2";
shapes = (
{
closed = 1;
nodes = (
(178,0,l),
(324,688,l),
(205,688,l),
(57,0,l)
);
},
{
closed = 1;
nodes = (
(544,0,l),
(566,107,l),
(246,107,l),
(223,0,l)
);
}
);
width = 628;
},
{
anchors = (
{
name = bottom;
pos = (313,0);
},
{
name = center;
pos = (333.918,344);
},
{
name = top;
pos = (245,688);
},
{
name = topright;
pos = (388,510);
}
);
background = {
anchors = (
{
name = bottom;
pos = (313,0);
},
{
name = center;
pos = (333.918,344);
},
{
name = top;
pos = (245,688);
},
{
name = topright;
pos = (388,510);
}
);
shapes = (
{
closed = 1;
nodes = (
(527,0,l),
(535,34,l),
(123,34,l),
(262,688,l),
(226,688,l),
(79,0,l)
);
}
);
};
guides = (
{
angle = 78;
pos = (336,798);
},
{
angle = 78;
pos = (285,794);
}
);
layerId = "527899E9-AC81-44FE-89AA-146AC27955A1";
shapes = (
{
closed = 1;
nodes = (
(116,0,l),
(262,688,l),
(226,688,l),
(79,0,l)
);
},
{
closed = 1;
nodes = (
(527,0,l),
(535,34,l),
(174,34,l),
(167,0,l)
);
}
);
width = 630;
}
);
unicode = 76;
},
{
glyphname = Ldot;
kernLeft = H;
kernRight = L;
layers = (
{
background = {
shapes = (
{
closed = 1;
nodes = (
(449,327,l),
(462,392,l),
(414,392,l),
(401,327,l)
);
},
{
ref = L;
}
);
};
layerId = "CD898CA3-FB76-4965-A23E-9AA06D1CE2B1";
shapes = (
{
closed = 1;
nodes = (
(449,327,l),
(462,392,l),
(414,392,l),
(401,327,l)
);
},
{
ref = L;
}
);
width = 536;
},
{
background = {
shapes = (
{
closed = 1;
nodes = (
(545,304,l),
(582,475,l),
(363,475,l),
(326,304,l)
);
},
{
ref = L;
}
);
};
layerId = "B4DE345C-CFDB-4A54-B125-3358BD91D59F";
shapes = (
{
closed = 1;
nodes = (
(545,304,l),
(582,475,l),
(363,475,l),
(326,304,l)
);
},
{
ref = L;
}
);
width = 521;
},
{
background = {
shapes = (
{
closed = 1;
nodes = (
(521,312,l),
(547,434,l),
(413,434,l),
(387,312,l)
);
},
{
ref = L;
}
);
};
layerId = "20A7088A-67D7-4614-84CF-19C576DDC019";
shapes = (
{
closed = 1;
nodes = (
(521,312,l),
(547,434,l),
(413,434,l),
(387,312,l)
);
},
{
ref = L;
}
);
width = 559;
},
{
background = {
shapes = (
{
closed = 1;
nodes = (
(235,327,l),
(248,392,l),
(205,392,l),
(192,327,l)
);
},
{
ref = L;
}
);
};
layerId = UUID0;
shapes = (
{
closed = 1;
nodes = (
(235,327,l),
(248,392,l),
(205,392,l),
(192,327,l)
);
},
{
ref = L;
}
);
width = 240;
},
{
background = {
shapes = (
{
closed = 1;
nodes = (
(275,313,l),
(295,405,l),
(214,405,l),
(194,313,l)
);
},
{
ref = L;
}
);
};
layerId = "B988E418-9469-42FB-AD32-095B8D65BEE5";
shapes = (
{
closed = 1;
nodes = (
(275,313,l),
(295,405,l),
(214,405,l),
(194,313,l)
);
},
{
ref = L;
}
);
width = 262;
},
{
background = {
shapes = (
{
closed = 1;
nodes = (
(292,293,l),
(319,423,l),
(210,423,l),
(183,293,l)
);
},
{
pos = (-2,0);
ref = L;
}
);
};
layerId = "2A096AB6-16C2-4C34-8164-FCBBBF8CEAEB";
shapes = (
{
closed = 1;
nodes = (
(292,293,l),
(319,423,l),
(210,423,l),
(183,293,l)
);
},
{
pos = (-2,0);
ref = L;
}
);
width = 255;
},
{
background = {
shapes = (
{
closed = 1;
nodes = (
(501,327,l),
(514,392,l),
(465,392,l),
(452,327,l)
);
},
{
ref = L;
}
);
};
layerId = "527899E9-AC81-44FE-89AA-146AC27955A1";
shapes = (
{
closed = 1;
nodes = (
(501,327,l),
(514,392,l),
(465,392,l),
(452,327,l)
);
},
{
ref = L;
}
);
width = 630;
},
{
background = {
shapes = (
{
closed = 1;
nodes = (
(561,300,l),
(587,422,l),
(455,422,l),
(429,300,l)
);
},
{
pos = (1,0);
ref = L;
}
);
};
layerId = "8494D26F-946F-4BDA-8E04-2FD894ABFEA2";
shapes = (
{
closed = 1;
nodes = (
(561,300,l),
(587,422,l),
(455,422,l),
(429,300,l)
);
},
{
pos = (1,0);
ref = L;
}
);
width = 628;
},
{
background = {
shapes = (
{
closed = 1;
nodes = (
(592,269,l),
(632,451,l),
(425,451,l),
(385,269,l)
);
},
{
ref = L;
}
);
};
layerId = "8AB9AFA2-7010-440B-BFFC-1C7CDFA1A370";
shapes = (
{
closed = 1;
nodes = (
(592,269,l),
(632,451,l),
(425,451,l),
(385,269,l)
);
},
{
ref = L;
}
);
width = 605;
}
);
metricLeft = H;
unicode = 319;
},
{
glyphname = Lslash;
kernLeft = H;
kernRight = L;
layers = (
{
background = {
shapes = (
{
closed = 1;
nodes = (
(396,401,l),
(403,435,l),
(60,319,l),
(53,285,l)
);
},
{
ref = L;
}
);
};
layerId = "CD898CA3-FB76-4965-A23E-9AA06D1CE2B1";
shapes = (
{
closed = 1;
nodes = (
(396,401,l),
(403,435,l),
(60,319,l),
(53,285,l)
);
},
{
ref = L;
}
);
width = 536;
},
{
background = {
shapes = (
{
closed = 1;
nodes = (
(433,379,l),
(463,521,l),
(24,372,l),
(-7,230,l)
);
},
{
ref = L;
}
);
};
layerId = "B4DE345C-CFDB-4A54-B125-3358BD91D59F";
shapes = (
{
closed = 1;
nodes = (
(433,379,l),
(463,521,l),
(24,372,l),
(-7,230,l)
);
},
{
ref = L;
}
);
width = 533;
},
{
background = {
shapes = (
{
closed = 1;
nodes = (
(433,393,l),
(455,484,l),
(53,346,l),
(31,255,l)
);
},
{
ref = L;
}
);
};
layerId = "20A7088A-67D7-4614-84CF-19C576DDC019";
shapes = (
{
closed = 1;
nodes = (
(433,393,l),
(455,484,l),
(53,346,l),
(31,255,l)
);
},
{
ref = L;
}
);
width = 558;
},
{
background = {
shapes = (
{
closed = 1;
nodes = (
(222,336,l),
(230,372,l),
(30,303,l),
(23,268,l)
);
},
{
ref = L;
}
);
};
layerId = UUID0;
shapes = (
{
closed = 1;
nodes = (
(222,336,l),
(230,372,l),
(30,303,l),
(23,268,l)
);
},
{
ref = L;
}
);
width = 240;
},
{
background = {
shapes = (
{
closed = 1;
nodes = (
(242,311,l),
(268,434,l),
(27,358,l),
(1,235,l)
);
},
{
ref = L;
}
);
};
layerId = "2A096AB6-16C2-4C34-8164-FCBBBF8CEAEB";
shapes = (
{
closed = 1;
nodes = (
(242,311,l),
(268,434,l),
(27,358,l),
(1,235,l)
);
},
{
ref = L;
}
);
width = 255;
},
{
background = {
shapes = (
{
closed = 1;
nodes = (
(237,331,l),
(252,401,l),
(31,328,l),
(18,259,l)
);
},
{
ref = L;
}
);
};
layerId = "B988E418-9469-42FB-AD32-095B8D65BEE5";
shapes = (
{
closed = 1;
nodes = (
(237,331,l),
(252,401,l),
(31,328,l),
(18,259,l)
);
},
{
ref = L;
}
);
width = 262;
},
{
background = {
shapes = (
{
closed = 1;
nodes = (
(494,404,l),
(524,544,l),
(22,375,l),
(-8,235,l)
);
},
{
ref = L;
}
);
};
layerId = "8AB9AFA2-7010-440B-BFFC-1C7CDFA1A370";
shapes = (
{
closed = 1;
nodes = (
(494,404,l),
(524,544,l),
(22,375,l),
(-8,235,l)
);
},
{
ref = L;
}
);
width = 605;
},
{
background = {
shapes = (
{
closed = 1;
nodes = (
(477,409,l),
(495,493,l),
(61,345,l),
(41,261,l)
);
},
{
ref = L;
}
);
};
layerId = "8494D26F-946F-4BDA-8E04-2FD894ABFEA2";
shapes = (
{
closed = 1;
nodes = (
(477,409,l),
(495,493,l),
(61,345,l),
(41,261,l)
);
},
{
ref = L;
}
);
width = 628;
},
{
background = {
shapes = (
{
closed = 1;
nodes = (
(450,421,l),
(458,455,l),
(69,323,l),
(62,289,l)
);
},
{
ref = L;
}
);
};
layerId = "527899E9-AC81-44FE-89AA-146AC27955A1";
shapes = (
{
closed = 1;
nodes = (
(450,421,l),
(458,455,l),
(69,323,l),
(62,289,l)
);
},
{
ref = L;
}
);
width = 630;
}
);
unicode = 321;
},
{
glyphname = M;
kernLeft = H;
kernRight = H;
layers = (
{
anchors = (
{
name = bottom;
pos = (404,0);
},
{
name = top;
pos = (550,688);
}
);
background = {
anchors = (
{
name = bottom;
pos = (404,0);
},
{
name = top;
pos = (550,688);
}
);
shapes = (
{
closed = 1;
nodes = (
(97,0,l),
(229,618,l),
(233,618,l),
(388,0,l),
(419,0,l),
(838,618,l),
(842,618,l),
(710,0,l),
(746,0,l),
(893,688,l),
(846,688,l),
(416,53,l),
(411,53,l),
(252,688,l),
(208,688,l),
(61,0,l)
);
}
);
};
layerId = "CD898CA3-FB76-4965-A23E-9AA06D1CE2B1";
shapes = (
{
closed = 1;
nodes = (
(746,0,l),
(893,688,l),
(854,688,l),
(450,98,l),
(459,59,l),
(836,606,l),
(840,606,l),
(710,0,l)
);
},
{
closed = 1;
nodes = (
(97,0,l),
(206,512,l),
(187,588,l),
(61,0,l)
);
},
{
closed = 1;
nodes = (
(419,0,l),
(425,8,l),
(242,688,l),
(208,688,l),
(206,677,l),
(388,0,l)
);
}
);
width = 915;
},
{
anchors = (
{
name = bottom;
pos = (396,0);
},
{
name = top;
pos = (542,688);
}
);
background = {
anchors = (
{
name = bottom;
pos = (396,0);
},
{
name = top;
pos = (542,688);
}
);
shapes = (
{
closed = 1;
nodes = (
(211,0,l),
(294,387,l),
(305,387,l),
(314,0,l),
(469,0,l),
(644,387,l),
(655,387,l),
(572,0,l),
(795,0,l),
(942,688,l),
(623,688,l),
(478,365,l),
(469,365,l),
(461,688,l),
(141,688,l),
(-5,0,l)
);
}
);
};
layerId = "B4DE345C-CFDB-4A54-B125-3358BD91D59F";
shapes = (
{
closed = 1;
nodes = (
(795,0,l),
(942,688,l),
(733,688,l),
(489,317,l),
(544,121,l),
(617,238,l),
(622,238,l),
(572,0,l)
);
},
{
closed = 1;
nodes = (
(211,0,l),
(241,143,l),
(119,586,l),
(-5,0,l)
);
},
{
closed = 1;
nodes = (
(463,0,l),
(516,81,l),
(349,688,l),
(140,688,l),
(136,666,l),
(319,0,l)
);
}
);
width = 899;
},
{
anchors = (
{
name = bottom;
pos = (412,0);
},
{
name = top;
pos = (558,688);
}
);
background = {
anchors = (
{
name = bottom;
pos = (412,0);
},
{
name = top;
pos = (558,688);
}
);
shapes = (
{
closed = 1;
nodes = (
(161,0,l),
(265,492,l),
(271,492,l),
(371,0,l),
(456,0,l),
(766,492,l),
(772,492,l),
(667,0,l),
(792,0,l),
(939,688,l),
(763,688,l),
(463,218,l),
(457,218,l),
(357,688,l),
(187,688,l),
(40,0,l)
);
}
);
};
layerId = "20A7088A-67D7-4614-84CF-19C576DDC019";
shapes = (
{
closed = 1;
nodes = (
(792,0,l),
(939,688,l),
(799,688,l),
(488,239,l),
(523,107,l),
(756,439,l),
(761,439,l),
(667,0,l)
);
},
{
closed = 1;
nodes = (
(161,0,l),
(229,323,l),
(162,573,l),
(40,0,l)
);
},
{
closed = 1;
nodes = (
(452,0,l),
(490,59,l),
(308,688,l),
(187,688,l),
(182,666,l),
(372,0,l)
);
}
);
width = 931;
},
{
anchors = (
{
name = bottom;
pos = (167.798,0);
},
{
name = top;
pos = (314.037,688);
}
);
background = {
anchors = (
{
name = bottom;
pos = (167.798,0);
},
{
name = top;
pos = (314.037,688);
}
);
shapes = (
{
closed = 1;
nodes = (
(39,0,l),
(164,594,l),
(168,594,l),
(149,0,l),
(195,0,l),
(429,594,l),
(433,594,l),
(309,0,l),
(343,0,l),
(490,688,l),
(433,688,l),
(191,72,l),
(185,72,l),
(202,688,l),
(151,688,l),
(6,0,l)
);
}
);
};
layerId = UUID0;
shapes = (
{
closed = 1;
nodes = (
(343,0,l),
(490,688,l),
(450,688,l),
(227,153,l),
(227,72,l),
(417,531,l),
(421,531,l),
(309,0,l)
);
},
{
closed = 1;
nodes = (
(39,0,l),
(113,351,l),
(113,508,l),
(6,0,l)
);
},
{
closed = 1;
nodes = (
(189,0,l),
(191,6,l),
(185,688,l),
(151,688,l),
(149,679,l),
(155,0,l)
);
}
);
width = 443;
},
{
anchors = (
{
name = bottom;
pos = (227.798,0);
},
{
name = top;
pos = (374.037,688);
}
);
background = {
anchors = (
{
name = bottom;
pos = (227.798,0);
},
{
name = top;
pos = (374.037,688);
}
);
shapes = (
{
closed = 1;
nodes = (
(107,0,l),
(222,563,l),
(230,563,l),
(155,0,l),
(308,0,l),
(465,563,l),
(473,563,l),
(356,0,l),
(485,0,l),
(632,688,l),
(415,688,l),
(277,158,l),
(269,158,l),
(343,688,l),
(129,688,l),
(-17,0,l)
);
}
);
};
layerId = "2A096AB6-16C2-4C34-8164-FCBBBF8CEAEB";
shapes = (
{
closed = 1;
nodes = (
(486,0,l),
(632,688,l),
(469,688,l),
(304,241,l),
(309,40,l),
(424,342,l),
(431,342,l),
(358,0,l)
);
},
{
closed = 1;
nodes = (
(106,0,l),
(134,132,l),
(107,585,l),
(-17,0,l)
);
},
{
closed = 1;
nodes = (
(286,0,l),
(289,7,l),
(250,688,l),
(129,688,l),
(127,678,l),
(171,0,l)
);
}
);
width = 564;
},
{
anchors = (
{
name = bottom;
pos = (202.798,0);
},
{
name = top;
pos = (349.037,688);
}
);
background = {
anchors = (
{
name = bottom;
pos = (202.798,0);
},
{
name = top;
pos = (349.037,688);
}
);
shapes = (
{
closed = 1;
nodes = (
(69,0,l),
(191,574,l),
(196,574,l),
(161,0,l),
(254,0,l),
(463,574,l),
(468,574,l),
(346,0,l),
(421,0,l),
(568,688,l),
(442,688,l),
(237,117,l),
(231,117,l),
(265,688,l),
(144,688,l),
(-2,0,l)
);
}
);
};
layerId = "B988E418-9469-42FB-AD32-095B8D65BEE5";
shapes = (
{
closed = 1;
nodes = (
(421,0,l),
(568,688,l),
(471,688,l),
(260,183,l),
(261,41,l),
(429,429,l),
(437,429,l),
(346,0,l)
);
},
{
closed = 1;
nodes = (
(69,0,l),
(120,244,l),
(115,550,l),
(-2,0,l)
);
},
{
closed = 1;
nodes = (
(227,0,l),
(231,8,l),
(214,688,l),
(144,688,l),
(143,681,l),
(167,0,l)
);
}
);
width = 514;
},
{
anchors = (
{
name = bottom;
pos = (448.798,0);
},
{
name = top;
pos = (595.037,688);
}
);
background = {
anchors = (
{
name = bottom;
pos = (448.798,0);
},
{
name = top;
pos = (595.037,688);
}
);
shapes = (
{
closed = 1;
nodes = (
(244,0,l),
(317,339,l),
(328,339,l),
(364,0,l),
(520,0,l),
(701,339,l),
(713,339,l),
(640,0,l),
(893,0,l),
(1040,688,l),
(688,688,l),
(542,421,l),
(533,421,l),
(498,688,l),
(145,688,l),
(-1,0,l)
);
}
);
};
layerId = "8AB9AFA2-7010-440B-BFFC-1C7CDFA1A370";
shapes = (
{
closed = 1;
nodes = (
(893,0,l),
(1040,688,l),
(726,688,l),
(536,381,l),
(604,124,l),
(683,255,l),
(695,255,l),
(640,0,l)
);
},
{
closed = 1;
nodes = (
(244,0,l),
(269,118,l),
(124,589,l),
(-1,0,l)
);
},
{
closed = 1;
nodes = (
(521,0,l),
(572,78,l),
(412,688,l),
(145,688,l),
(142,672,l),
(350,0,l)
);
}
);
width = 1005;
},
{
anchors = (
{
name = bottom;
pos = (461.798,0);
},
{
name = top;
pos = (608.037,688);
}
);
background = {
anchors = (
{
name = bottom;
pos = (461.798,0);
},
{
name = top;
pos = (608.037,688);
}
);
shapes = (
{
closed = 1;
nodes = (
(175,0,l),
(282,501,l),
(289,501,l),
(419,0,l),
(513,0,l),
(855,501,l),
(862,501,l),
(754,0,l),
(874,0,l),
(1021,688,l),
(854,688,l),
(503,174,l),
(496,174,l),
(358,688,l),
(205,688,l),
(57,0,l)
);
}
);
};
layerId = "8494D26F-946F-4BDA-8E04-2FD894ABFEA2";
shapes = (
{
closed = 1;
nodes = (
(874,0,l),
(1021,688,l),
(887,688,l),
(537,216,l),
(577,89,l),
(848,450,l),
(851,450,l),
(754,0,l)
);
},
{
closed = 1;
nodes = (
(175,0,l),
(252,360,l),
(182,583,l),
(57,0,l)
);
},
{
closed = 1;
nodes = (
(511,0,l),
(542,41,l),
(335,688,l),
(204,688,l),
(203,682,l),
(419,0,l)
);
}
);
width = 1031;
},
{
anchors = (
{
name = bottom;
pos = (478.798,0);
},
{
name = top;
pos = (625.037,688);
}
);
background = {
anchors = (
{
name = bottom;
pos = (478.798,0);
},
{
name = top;
pos = (625.037,688);
}
);
shapes = (
{
closed = 1;
nodes = (
(116,0,l),
(249,627,l),
(253,627,l),
(464,0,l),
(492,0,l),
(969,627,l),
(973,627,l),
(838,0,l),
(874,0,l),
(1021,688,l),
(976,688,l),
(487,45,l),
(483,45,l),
(268,688,l),
(226,688,l),
(79,0,l)
);
}
);
};
layerId = "527899E9-AC81-44FE-89AA-146AC27955A1";
shapes = (
{
closed = 1;
nodes = (
(874,0,l),
(1021,688,l),
(981,688,l),
(527,99,l),
(539,64,l),
(965,614,l),
(969,614,l),
(838,0,l)
);
},
{
closed = 1;
nodes = (
(116,0,l),
(226,519,l),
(203,580,l),
(79,0,l)
);
},
{
closed = 1;
nodes = (
(491,0,l),
(499,11,l),
(261,688,l),
(225,688,l),
(224,684,l),
(464,0,l)
);
}
);
width = 1066;
}
);
unicode = 77;
},
{
glyphname = N;
kernLeft = H;
kernRight = H;
layers = (
{
anchors = (
{
name = bottom;
pos = (315,0);
},
{
name = top;
pos = (461,688);
}
);
background = {
anchors = (
{
name = bottom;
pos = (315,0);
},
{
name = top;
pos = (461,688);
}
);
shapes = (
{
closed = 1;
nodes = (
(97,0,l),
(230,622,l),
(234,622,l),
(535,0,l),
(569,0,l),
(716,688,l),
(680,688,l),
(547,66,l),
(543,66,l),
(242,688,l),
(208,688,l),
(61,0,l)
);
}
);
};
layerId = "CD898CA3-FB76-4965-A23E-9AA06D1CE2B1";
shapes = (
{
closed = 1;
nodes = (
(569,0,l),
(572,13,l),
(240,688,l),
(208,688,l),
(205,675,l),
(537,0,l)
);
},
{
closed = 1;
nodes = (
(97,0,l),
(216,558,l),
(192,611,l),
(61,0,l)
);
},
{
closed = 1;
nodes = (
(716,688,l),
(680,688,l),
(562,132,l),
(586,82,l)
);
}
);
width = 738;
},
{
anchors = (
{
name = bottom;
pos = (297,0);
},
{
name = top;
pos = (443,688);
}
);
background = {
anchors = (
{
name = bottom;
pos = (297,0);
},
{
name = top;
pos = (443,688);
}
);
shapes = (
{
closed = 1;
nodes = (
(212,0,l),
(281,321,l),
(287,321,l),
(377,0,l),
(597,0,l),
(744,688,l),
(526,688,l),
(469,422,l),
(462,422,l),
(385,688,l),
(141,688,l),
(-5,0,l)
);
}
);
};
layerId = "B4DE345C-CFDB-4A54-B125-3358BD91D59F";
shapes = (
{
closed = 1;
nodes = (
(597,0,l),
(602,24,l),
(347,688,l),
(140,688,l),
(136,666,l),
(391,0,l)
);
},
{
closed = 1;
nodes = (
(212,0,l),
(262,235,l),
(122,600,l),
(-5,0,l)
);
},
{
closed = 1;
nodes = (
(744,688,l),
(526,688,l),
(476,454,l),
(616,90,l)
);
}
);
width = 701;
},
{
anchors = (
{
name = bottom;
pos = (321,0);
},
{
name = top;
pos = (467,688);
}
);
background = {
anchors = (
{
name = bottom;
pos = (321,0);
},
{
name = top;
pos = (467,688);
}
);
shapes = (
{
closed = 1;
nodes = (
(164,0,l),
(267,484,l),
(274,484,l),
(489,0,l),
(611,0,l),
(758,688,l),
(634,688,l),
(535,228,l),
(528,228,l),
(320,688,l),
(187,688,l),
(40,0,l)
);
}
);
};
layerId = "20A7088A-67D7-4614-84CF-19C576DDC019";
shapes = (
{
closed = 1;
nodes = (
(611,0,l),
(620,45,l),
(310,688,l),
(187,688,l),
(182,662,l),
(498,0,l)
);
},
{
closed = 1;
nodes = (
(164,0,l),
(250,408,l),
(165,586,l),
(40,0,l)
);
},
{
closed = 1;
nodes = (
(758,688,l),
(634,688,l),
(550,295,l),
(636,116,l)
);
}
);
width = 750;
},
{
anchors = (
{
name = bottom;
pos = (127,0);
},
{
name = top;
pos = (273,688);
}
);
background = {
anchors = (
{
name = bottom;
pos = (127,0);
},
{
name = top;
pos = (273,688);
}
);
shapes = (
{
closed = 1;
nodes = (
(40,0,l),
(165,588,l),
(169,588,l),
(211,0,l),
(254,0,l),
(401,688,l),
(365,688,l),
(241,101,l),
(237,101,l),
(195,688,l),
(151,688,l),
(6,0,l)
);
}
);
};
layerId = UUID0;
shapes = (
{
closed = 1;
nodes = (
(255,0,l),
(258,16,l),
(183,688,l),
(151,688,l),
(148,674,l),
(223,0,l)
);
},
{
closed = 1;
nodes = (
(40,0,l),
(135,447,l),
(123,554,l),
(6,0,l)
);
},
{
closed = 1;
nodes = (
(401,688,l),
(366,688,l),
(271,241,l),
(283,132,l)
);
}
);
width = 354;
},
{
anchors = (
{
name = bottom;
pos = (129.798,0);
},
{
name = top;
pos = (276.037,688);
}
);
background = {
anchors = (
{
name = bottom;
pos = (129.798,0);
},
{
name = top;
pos = (276.037,688);
}
);
shapes = (
{
closed = 1;
nodes = (
(106,0,l),
(170,296,l),
(173,296,l),
(177,0,l),
(288,0,l),
(435,688,l),
(310,688,l),
(253,422,l),
(248,422,l),
(244,688,l),
(129,688,l),
(-17,0,l)
);
}
);
};
layerId = "2A096AB6-16C2-4C34-8164-FCBBBF8CEAEB";
shapes = (
{
closed = 1;
nodes = (
(288,0,l),
(297,43,l),
(230,688,l),
(129,688,l),
(126,672,l),
(192,0,l)
);
},
{
closed = 1;
nodes = (
(106,0,l),
(150,203,l),
(111,603,l),
(-17,0,l)
);
},
{
closed = 1;
nodes = (
(434,688,l),
(310,688,l),
(270,502,l),
(311,107,l)
);
}
);
width = 367;
},
{
anchors = (
{
name = bottom;
pos = (134.798,0);
},
{
name = top;
pos = (281.037,688);
}
);
background = {
anchors = (
{
name = bottom;
pos = (134.798,0);
},
{
name = top;
pos = (281.037,688);
}
);
shapes = (
{
closed = 1;
nodes = (
(70,0,l),
(171,473,l),
(175,473,l),
(207,0,l),
(285,0,l),
(432,688,l),
(359,688,l),
(261,228,l),
(256,228,l),
(224,688,l),
(144,688,l),
(-2,0,l)
);
}
);
};
layerId = "B988E418-9469-42FB-AD32-095B8D65BEE5";
shapes = (
{
closed = 1;
nodes = (
(285,0,l),
(292,33,l),
(213,688,l),
(144,688,l),
(141,671,l),
(220,0,l)
);
},
{
closed = 1;
nodes = (
(70,0,l),
(145,350,l),
(119,568,l),
(-2,0,l)
);
},
{
closed = 1;
nodes = (
(432,688,l),
(359,688,l),
(287,347,l),
(313,131,l)
);
}
);
width = 378;
},
{
anchors = (
{
name = bottom;
pos = (349.798,0);
},
{
name = top;
pos = (496.037,688);
}
);
background = {
anchors = (
{
name = bottom;
pos = (349.798,0);
},
{
name = top;
pos = (496.037,688);
}
);
shapes = (
{
closed = 1;
nodes = (
(246,0,l),
(316,328,l),
(323,328,l),
(440,0,l),
(695,0,l),
(842,688,l),
(594,688,l),
(537,422,l),
(530,422,l),
(429,688,l),
(145,688,l),
(-1,0,l)
);
}
);
};
layerId = "8AB9AFA2-7010-440B-BFFC-1C7CDFA1A370";
shapes = (
{
closed = 1;
nodes = (
(695,0,l),
(714,89,l),
(397,688,l),
(145,688,l),
(142,674,l),
(477,0,l)
);
},
{
closed = 1;
nodes = (
(246,0,l),
(300,256,l),
(127,605,l),
(-1,0,l)
);
},
{
closed = 1;
nodes = (
(842,688,l),
(594,688,l),
(552,490,l),
(728,156,l)
);
}
);
width = 807;
},
{
anchors = (
{
name = bottom;
pos = (368.798,0);
},
{
name = top;
pos = (515.037,688);
}
);
background = {
anchors = (
{
name = bottom;
pos = (368.798,0);
},
{
name = top;
pos = (515.037,688);
}
);
shapes = (
{
closed = 1;
nodes = (
(175,0,l),
(284,512,l),
(292,512,l),
(575,0,l),
(688,0,l),
(835,688,l),
(719,688,l),
(614,197,l),
(604,197,l),
(328,688,l),
(205,688,l),
(57,0,l)
);
}
);
};
layerId = "8494D26F-946F-4BDA-8E04-2FD894ABFEA2";
shapes = (
{
closed = 1;
nodes = (
(688,0,l),
(697,45,l),
(328,688,l),
(205,688,l),
(200,660,l),
(575,0,l)
);
},
{
closed = 1;
nodes = (
(175,0,l),
(268,435,l),
(183,585,l),
(57,0,l)
);
},
{
closed = 1;
nodes = (
(835,688,l),
(719,688,l),
(630,269,l),
(713,118,l)
);
}
);
width = 845;
},
{
anchors = (
{
name = bottom;
pos = (375.798,0);
},
{
name = top;
pos = (522.037,688);
}
);
background = {
anchors = (
{
name = bottom;
pos = (375.798,0);
},
{
name = top;
pos = (522.037,688);
}
);
shapes = (
{
closed = 1;
nodes = (
(115,0,l),
(250,633,l),
(254,633,l),
(636,0,l),
(669,0,l),
(816,688,l),
(780,688,l),
(645,55,l),
(641,55,l),
(259,688,l),
(226,688,l),
(79,0,l)
);
}
);
};
layerId = "527899E9-AC81-44FE-89AA-146AC27955A1";
shapes = (
{
closed = 1;
nodes = (
(670,0,l),
(673,15,l),
(257,688,l),
(226,688,l),
(223,673,l),
(640,0,l)
);
},
{
closed = 1;
nodes = (
(115,0,l),
(232,549,l),
(205,593,l),
(79,0,l)
);
},
{
closed = 1;
nodes = (
(816,688,l),
(780,688,l),
(663,137,l),
(690,96,l)
);
}
);
width = 860;
}
);
unicode = 78;
},
{
glyphname = Nhookleft;
kernLeft = j;
kernRight = H;
layers = (
{
anchors = (
{
name = bottom;
pos = (315,0);
},
{
name = top;
pos = (461,688);
}
);
background = {
shapes = (
{
closed = 1;
nodes = (
(97,0,l),
(216,558,l),
(192,611,l),
(61,0,l)
);
}
);
};
layerId = "CD898CA3-FB76-4965-A23E-9AA06D1CE2B1";
shapes = (
{
closed = 1;
nodes = (
(11,-200,o),
(55,-195,o),
(75,-103,cs),
(216,558,l),
(192,611,l),
(37,-113,ls),
(27,-158,o),
(17,-170,o),
(-76,-170,c),
(-82,-200,l)
);
},
{
closed = 1;
nodes = (
(569,0,l),
(572,13,l),
(240,688,l),
(208,688,l),
(205,675,l),
(537,0,l)
);
},
{
closed = 1;
nodes = (
(716,688,l),
(680,688,l),
(562,132,l),
(586,82,l)
);
}
);
width = 738;
},
{
anchors = (
{
name = bottom;
pos = (297,0);
},
{
name = top;
pos = (443,688);
}
);
background = {
shapes = (
{
closed = 1;
nodes = (
(212,0,l),
(262,235,l),
(122,600,l),
(-5,0,l)
);
}
);
};
layerId = "B4DE345C-CFDB-4A54-B125-3358BD91D59F";
shapes = (
{
closed = 1;
nodes = (
(131,-199,o),
(174,-179,o),
(220,37,cs),
(262,235,l),
(122,600,l),
(-8,-10,ls),
(-15,-45,o),
(-22,-61,o),
(-91,-61,c),
(-120,-199,l)
);
},
{
closed = 1;
nodes = (
(597,0,l),
(602,24,l),
(347,688,l),
(140,688,l),
(136,666,l),
(391,0,l)
);
},
{
closed = 1;
nodes = (
(744,688,l),
(526,688,l),
(476,454,l),
(616,90,l)
);
}
);
width = 701;
},
{
anchors = (
{
name = bottom;
pos = (321,0);
},
{
name = top;
pos = (467,688);
}
);
background = {
shapes = (
{
closed = 1;
nodes = (
(164,0,l),
(250,408,l),
(165,586,l),
(40,0,l)
);
}
);
};
layerId = "20A7088A-67D7-4614-84CF-19C576DDC019";
shapes = (
{
closed = 1;
nodes = (
(75,-200,o),
(125,-186,o),
(158,-29,cs),
(250,408,l),
(165,587,l),
(28,-54,ls),
(19,-95,o),
(11,-108,o),
(-73,-108,c),
(-93,-200,l)
);
},
{
closed = 1;
nodes = (
(611,0,l),
(620,45,l),
(310,688,l),
(187,688,l),
(182,662,l),
(498,0,l)
);
},
{
closed = 1;
nodes = (
(758,688,l),
(634,688,l),
(550,295,l),
(636,116,l)
);
}
);
width = 750;
},
{
anchors = (
{
name = bottom;
pos = (127,0);
},
{
name = top;
pos = (273,688);
}
);
background = {
shapes = (
{
closed = 1;
nodes = (
(40,0,l),
(135,447,l),
(123,554,l),
(6,0,l)
);
}
);
};
layerId = UUID0;
shapes = (
{
closed = 1;
nodes = (
(-5,-187,o),
(3,-174,o),
(40,0,cs),
(135,447,l),
(123,554,l),
(6,0,ls),
(-26,-153,o),
(-29,-156,o),
(-81,-160,c),
(-87,-190,l)
);
},
{
closed = 1;
nodes = (
(255,0,l),
(258,16,l),
(183,688,l),
(151,688,l),
(148,674,l),
(223,0,l)
);
},
{
closed = 1;
nodes = (
(401,688,l),
(366,688,l),
(271,241,l),
(283,132,l)
);
}
);
width = 354;
},
{
anchors = (
{
name = bottom;
pos = (129.798,0);
},
{
name = top;
pos = (276.037,688);
}
);
background = {
shapes = (
{
closed = 1;
nodes = (
(106,0,l),
(150,203,l),
(111,603,l),
(-17,0,l)
);
}
);
};
layerId = "2A096AB6-16C2-4C34-8164-FCBBBF8CEAEB";
shapes = (
{
closed = 1;
nodes = (
(57,-198,o),
(74,-151,o),
(115,40,cs),
(150,203,l),
(111,603,l),
(-17,1,ls),
(-32,-70,o),
(-38,-80,o),
(-80,-80,c),
(-105,-198,l)
);
},
{
closed = 1;
nodes = (
(288,0,l),
(297,43,l),
(230,688,l),
(129,688,l),
(126,672,l),
(192,0,l)
);
},
{
closed = 1;
nodes = (
(434,688,l),
(310,688,l),
(270,502,l),
(311,107,l)
);
}
);
width = 367;
},
{
anchors = (
{
name = bottom;
pos = (134.798,0);
},
{
name = top;
pos = (281.037,688);
}
);
background = {
shapes = (
{
closed = 1;
nodes = (
(70,0,l),
(145,350,l),
(119,568,l),
(-2,0,l)
);
}
);
};
layerId = "B988E418-9469-42FB-AD32-095B8D65BEE5";
shapes = (
{
closed = 1;
nodes = (
(10,-193,o),
(31,-182,o),
(70,0,cs,{
name = "2.2 ⛔️";
}),
(145,350,l),
(119,568,l),
(-2,0,ls),
(-28,-120,o),
(-30,-122,o),
(-76,-122,c),
(-91,-193,l)
);
},
{
closed = 1;
nodes = (
(285,0,l),
(292,33,l),
(213,688,l),
(144,688,l),
(141,671,l),
(220,0,l)
);
},
{
closed = 1;
nodes = (
(432,688,l),
(359,688,l),
(287,347,l),
(313,131,l)
);
}
);
width = 378;
},
{
anchors = (
{
name = bottom;
pos = (349.798,0);
},
{
name = top;
pos = (496.037,688);
}
);
background = {
shapes = (
{
closed = 1;
nodes = (
(246,0,l),
(300,256,l),
(127,605,l),
(-1,0,l)
);
}
);
};
layerId = "8AB9AFA2-7010-440B-BFFC-1C7CDFA1A370";
shapes = (
{
closed = 1;
nodes = (
(186,-248,o),
(197,-236,o),
(263,80,cs),
(300,256,l),
(127,605,l),
(9,44,ls),
(-14,-67,o),
(-21,-71,o),
(-173,-71,c),
(-210,-248,l)
);
},
{
closed = 1;
nodes = (
(695,0,l),
(714,89,l),
(397,688,l),
(145,688,l),
(142,674,l),
(477,0,l)
);
},
{
closed = 1;
nodes = (
(842,688,l),
(594,688,l),
(552,490,l),
(728,156,l)
);
}
);
width = 807;
},
{
anchors = (
{
name = bottom;
pos = (368.798,0);
},
{
name = top;
pos = (515.037,688);
}
);
background = {
shapes = (
{
closed = 1;
nodes = (
(175,0,l),
(268,435,l),
(183,585,l),
(57,0,l)
);
}
);
};
layerId = "8494D26F-946F-4BDA-8E04-2FD894ABFEA2";
shapes = (
{
closed = 1;
nodes = (
(124,-200,o),
(134,-194,o),
(196,97,cs),
(268,435,l),
(183,586,l),
(72,65,ls),
(38,-93,o),
(36,-102,o),
(-92,-103,c),
(-113,-201,l)
);
},
{
closed = 1;
nodes = (
(688,0,l),
(697,45,l),
(328,688,l),
(205,688,l),
(200,660,l),
(575,0,l)
);
},
{
closed = 1;
nodes = (
(835,688,l),
(719,688,l),
(630,269,l),
(713,118,l)
);
}
);
width = 845;
},
{
anchors = (
{
name = bottom;
pos = (375.798,0);
},
{
name = top;
pos = (522.037,688);
}
);
background = {
shapes = (
{
closed = 1;
nodes = (
(115,0,l),
(232,549,l),
(205,593,l),
(79,0,l)
);
}
);
};
layerId = "527899E9-AC81-44FE-89AA-146AC27955A1";
shapes = (
{
closed = 1;
nodes = (
(66,-200,o),
(75,-188,o),
(126,53,cs,{
name = "0.7 ⛔️";
}),
(232,550,l),
(205,593,l),
(90,53,ls),
(44,-161,o),
(40,-170,o),
(-92,-170,c),
(-98,-200,l)
);
},
{
closed = 1;
nodes = (
(670,0,l),
(673,15,l),
(257,688,l),
(226,688,l),
(223,673,l),
(640,0,l)
);
},
{
closed = 1;
nodes = (
(816,688,l),
(780,688,l),
(663,137,l),
(690,96,l)
);
}
);
width = 860;
}
);
unicode = 413;
},
{
glyphname = Eng;
kernLeft = H;
kernRight = H;
layers = (
{
background = {
shapes = (
{
closed = 1;
nodes = (
(569,0,l),
(572,13,l),
(240,688,l),
(208,688,l),
(205,675,l),
(537,0,l)
);
}
);
};
layerId = "CD898CA3-FB76-4965-A23E-9AA06D1CE2B1";
shapes = (
{
closed = 1;
nodes = (
(486,-200,o),
(530,-193,o),
(547,-110,cs),
(572,13,l),
(240,688,l),
(208,688,l),
(205,675,l),
(537,0,l),
(513,-113,ls),
(503,-158,o),
(492,-170,o),
(399,-170,c),
(393,-200,l)
);
},
{
closed = 1;
nodes = (
(97,0,l),
(216,558,l),
(192,611,l),
(61,0,l)
);
},
{
closed = 1;
nodes = (
(716,688,l),
(680,688,l),
(562,132,l),
(586,82,l)
);
}
);
width = 738;
},
{
background = {
shapes = (
{
closed = 1;
nodes = (
(597,0,l),
(602,24,l),
(347,688,l),
(140,688,l),
(136,666,l),
(391,0,l)
);
}
);
};
layerId = "B4DE345C-CFDB-4A54-B125-3358BD91D59F";
shapes = (
{
closed = 1;
nodes = (
(503,-199,o),
(555,-182,o),
(597,0,c),
(602,24,l),
(347,688,l),
(140,688,l),
(136,666,l),
(391,0,l),
(389,-10,ls),
(382,-45,o),
(374,-61,o),
(299,-61,c),
(270,-199,l)
);
},
{
closed = 1;
nodes = (
(212,0,l),
(262,235,l),
(122,600,l),
(-5,0,l)
);
},
{
closed = 1;
nodes = (
(744,688,l),
(526,688,l),
(476,454,l),
(616,90,l)
);
}
);
width = 701;
},
{
background = {
shapes = (
{
closed = 1;
nodes = (
(611,0,l),
(620,45,l),
(310,688,l),
(187,688,l),
(182,662,l),
(498,0,l)
);
}
);
};
layerId = "20A7088A-67D7-4614-84CF-19C576DDC019";
shapes = (
{
closed = 1;
nodes = (
(524,-200,o),
(570,-186,o),
(604,-29,cs),
(620,45,l),
(310,688,l),
(187,688,l),
(182,662,l),
(498,0,l),
(487,-54,ls),
(479,-95,o),
(469,-108,o),
(385,-108,c),
(366,-200,l)
);
},
{
closed = 1;
nodes = (
(164,0,l),
(250,408,l),
(165,586,l),
(40,0,l)
);
},
{
closed = 1;
nodes = (
(758,688,l),
(634,688,l),
(550,295,l),
(636,116,l)
);
}
);
width = 750;
},
{
background = {
shapes = (
{
closed = 1;
nodes = (
(255,0,l),
(258,16,l),
(183,688,l),
(151,688,l),
(148,674,l),
(223,0,l)
);
}
);
};
layerId = UUID0;
shapes = (
{
closed = 1;
nodes = (
(188,-188,o),
(217,-183,o),
(236,-91,cs),
(258,16,l),
(183,688,l),
(151,688,l),
(148,674,l),
(223,0,l),
(202,-101,ls),
(193,-146,o),
(181,-158,o),
(135,-158,c),
(129,-188,l)
);
},
{
closed = 1;
nodes = (
(40,0,l),
(135,447,l),
(123,554,l),
(6,0,l)
);
},
{
closed = 1;
nodes = (
(401,688,l),
(366,688,l),
(271,241,l),
(283,132,l)
);
}
);
width = 354;
},
{
background = {
shapes = (
{
closed = 1;
nodes = (
(288,0,l),
(297,43,l),
(230,688,l),
(129,688,l),
(126,672,l),
(192,0,l)
);
}
);
};
layerId = "2A096AB6-16C2-4C34-8164-FCBBBF8CEAEB";
shapes = (
{
closed = 1;
nodes = (
(205,-199,o),
(248,-182,o),
(284,-17,cs),
(297,43,l),
(230,688,l),
(129,688,l),
(126,672,l),
(185,75,l),
(158,-54,ls),
(150,-94,o),
(141,-103,o),
(107,-103,c),
(87,-199,l)
);
},
{
closed = 1;
nodes = (
(106,0,l),
(150,203,l),
(111,603,l),
(-17,0,l)
);
},
{
closed = 1;
nodes = (
(434,688,l),
(310,688,l),
(270,502,l),
(311,107,l)
);
}
);
width = 367;
},
{
background = {
shapes = (
{
closed = 1;
nodes = (
(285,0,l),
(292,33,l),
(213,688,l),
(144,688,l),
(141,671,l),
(220,0,l)
);
}
);
};
layerId = "B988E418-9469-42FB-AD32-095B8D65BEE5";
shapes = (
{
closed = 1;
nodes = (
(223,-194,o),
(245,-185,o),
(270,-68,cs),
(292,33,l),
(213,688,l),
(144,688,l),
(141,671,l),
(218,16,l),
(197,-83,ls),
(188,-124,o),
(185,-139,o),
(139,-139,c),
(127,-194,l)
);
},
{
closed = 1;
nodes = (
(70,0,l),
(145,350,l),
(119,568,l),
(-2,0,l)
);
},
{
closed = 1;
nodes = (
(432,688,l),
(359,688,l),
(287,347,l),
(313,131,l)
);
}
);
width = 378;
},
{
background = {
shapes = (
{
closed = 1;
nodes = (
(695,0,l),
(714,89,l),
(397,688,l),
(145,688,l),
(142,674,l),
(477,0,l)
);
}
);
};
layerId = "8AB9AFA2-7010-440B-BFFC-1C7CDFA1A370";
shapes = (
{
closed = 1;
nodes = (
(619,-200,o),
(656,-178,o),
(706,52,cs),
(714,89,l),
(397,688,l),
(145,688,l),
(142,674,l),
(462,29,l),
(454,-9,ls),
(448,-38,o),
(429,-50,o),
(358,-50,c),
(326,-200,l)
);
},
{
closed = 1;
nodes = (
(246,0,l),
(300,256,l),
(127,605,l),
(-1,0,l)
);
},
{
closed = 1;
nodes = (
(842,688,l),
(594,688,l),
(552,490,l),
(728,156,l)
);
}
);
width = 807;
},
{
background = {
shapes = (
{
closed = 1;
nodes = (
(688,0,l),
(697,45,l),
(328,688,l),
(205,688,l),
(200,660,l),
(575,0,l)
);
}
);
};
layerId = "8494D26F-946F-4BDA-8E04-2FD894ABFEA2";
shapes = (
{
closed = 1;
nodes = (
(602,-202,o),
(646,-190,o),
(678,-42,cs),
(697,45,l),
(328,688,l),
(205,688,l),
(200,660,l),
(575,0,l),
(563,-60,ls),
(555,-101,o),
(543,-114,o),
(444,-114,c),
(425,-202,l)
);
},
{
closed = 1;
nodes = (
(175,0,l),
(268,435,l),
(183,585,l),
(57,0,l)
);
},
{
closed = 1;
nodes = (
(835,688,l),
(719,688,l),
(630,269,l),
(713,118,l)
);
}
);
width = 845;
},
{
background = {
shapes = (
{
closed = 1;
nodes = (
(670,0,l),
(673,15,l),
(257,688,l),
(226,688,l),
(223,673,l),
(640,0,l)
);
}
);
};
layerId = "527899E9-AC81-44FE-89AA-146AC27955A1";
shapes = (
{
closed = 1;
nodes = (
(582,-200,o),
(629,-195,o),
(648,-103,cs),
(673,15,l),
(257,688,l),
(226,688,l),
(223,673,l),
(637,4,l),
(612,-113,ls),
(602,-158,o),
(589,-170,o),
(481,-170,c),
(475,-200,l)
);
},
{
closed = 1;
nodes = (
(115,0,l),
(232,549,l),
(205,593,l),
(79,0,l)
);
},
{
closed = 1;
nodes = (
(816,688,l),
(780,688,l),
(663,137,l),
(690,96,l)
);
}
);
width = 860;
}
);
metricLeft = N;
unicode = 330;
},
{
glyphname = O;
kernLeft = O;
kernRight = O;
layers = (
{
anchors = (
{
name = bottom;
pos = (309,0);
},
{
name = center;
pos = (382,344);
},
{
name = ogonek;
pos = (351,0);
},
{
name = top;
pos = (455,688);
},
{
name = topleft;
pos = (112,688);
},
{
name = topright;
pos = (574,688);
}
);
background = {
anchors = (
{
name = bottom;
pos = (309,0);
},
{
name = center;
pos = (382,344);
},
{
name = ogonek;
pos = (351,0);
},
{
name = top;
pos = (455,688);
},
{
name = topleft;
pos = (112,688);
},
{
name = topright;
pos = (574,688);
}
);
shapes = (
{
closed = 1;
nodes = (
(566,-8,o),
(586,31,o),
(653,344,cs),
(674,442,o),
(686,512,o),
(686,564,cs),
(686,677,o),
(624,696,o),
(444,696,cs),
(194,696,o),
(176,664,o),
(107,344,cs),
(86,245,o),
(73,173,o),
(73,122,cs),
(73,10,o),
(135,-8,o),
(315,-8,cs)
);
},
{
closed = 1;
nodes = (
(165,26,o),
(109,29,o),
(109,128,cs),
(109,175,o),
(122,243,o),
(143,344,cs),
(208,656,o),
(230,662,o),
(447,662,cs),
(594,662,o),
(650,659,o),
(650,559,cs),
(650,512,o),
(638,444,o),
(617,344,cs),
(550,32,o),
(529,26,o),
(312,26,cs)
);
}
);
};
guides = (
{
angle = 258;
pos = (254,650);
},
{
angle = 78;
pos = (174,488);
},
{
angle = 258;
pos = (682,650);
},
{
angle = 78;
pos = (602,488);
}
);
layerId = "CD898CA3-FB76-4965-A23E-9AA06D1CE2B1";
shapes = (
{
closed = 1;
nodes = (
(400,-8,o),
(458,-4,o),
(501,14,c),
(511,59,l),
(470,27,o),
(412,26,o),
(312,26,cs),
(165,26,o),
(109,29,o),
(109,128,cs),
(109,175,o),
(121,243,o),
(143,344,cs),
(206,638,l),
(163,590,o),
(141,502,o),
(107,344,cs),
(86,245,o),
(73,173,o),
(73,122,cs),
(73,10,o),
(135,-8,o),
(315,-8,cs)
);
},
{
closed = 1;
nodes = (
(599,102,o),
(620,190,o),
(653,344,cs),
(674,442,o),
(686,512,o),
(686,564,cs),
(686,677,o),
(624,696,o),
(444,696,cs),
(360,696,o),
(301,692,o),
(259,675,c),
(250,630,l),
(290,661,o),
(349,662,o),
(447,662,cs),
(594,662,o),
(650,659,o),
(650,559,cs),
(650,512,o),
(638,444,o),
(617,344,cs),
(555,53,l)
);
}
);
width = 726;
},
{
anchors = (
{
name = bottom;
pos = (294,0);
},
{
name = center;
pos = (367,344);
},
{
name = ogonek;
pos = (398,0);
},
{
name = top;
pos = (440,688);
},
{
name = topleft;
pos = (112,688);
},
{
name = topright;
pos = (537,688);
}
);
background = {
anchors = (
{
name = bottom;
pos = (294,0);
},
{
name = center;
pos = (367,344);
},
{
name = ogonek;
pos = (398,0);
},
{
name = top;
pos = (440,688);
},
{
name = topleft;
pos = (112,688);
},
{
name = topright;
pos = (537,688);
}
);
shapes = (
{
closed = 1;
nodes = (
(594,-8,o),
(604,54,o),
(668,334,cs),
(688,422,o),
(700,489,o),
(700,541,cs),
(700,656,o),
(636,696,o),
(423,696,cs),
(136,696,o),
(116,632,o),
(63,354,cs),
(46,265,o),
(30,197,o),
(30,146,cs),
(30,32,o),
(95,-8,o),
(310,-8,cs)
);
},
{
closed = 1;
nodes = (
(285,159,o),
(268,160,o),
(268,194,cs),
(268,220,o),
(278,265,o),
(295,344,cs),
(333,525,o),
(334,529,o),
(404,529,cs),
(444,529,o),
(461,528,o),
(461,492,cs),
(461,466,o),
(452,420,o),
(436,344,cs),
(397,163,o),
(395,159,o),
(325,159,cs)
);
}
);
};
guides = (
{
angle = 78;
pos = (332,519);
},
{
angle = 258;
pos = (386,611);
},
{
angle = 78;
pos = (439,519);
},
{
angle = 258;
pos = (493,611);
}
);
layerId = "B4DE345C-CFDB-4A54-B125-3358BD91D59F";
shapes = (
{
closed = 1;
nodes = (
(316,-8,o),
(321,-8,o),
(327,-8,c),
(363,162,l),
(353,159,o),
(341,159,o),
(325,159,cs),
(285,159,o),
(268,160,o),
(268,194,cs),
(268,220,o),
(278,265,o),
(295,344,cs),
(369,695,l),
(133,687,o),
(113,614,o),
(63,354,cs),
(46,265,o),
(30,197,o),
(30,146,cs),
(30,32,o),
(95,-8,o),
(310,-8,cs)
);
},
{
closed = 1;
nodes = (
(595,1,o),
(608,72,o),
(668,334,cs),
(688,422,o),
(700,489,o),
(700,541,cs),
(700,656,o),
(636,696,o),
(423,696,cs),
(416,696,o),
(410,696,o),
(404,696,c),
(368,527,l),
(378,529,o),
(389,529,o),
(404,529,cs),
(444,529,o),
(461,528,o),
(461,492,cs),
(461,466,o),
(452,420,o),
(436,344,cs),
(362,-7,l)
);
}
);
width = 695;
},
{
anchors = (
{
name = bottom;
pos = (316,0);
},
{
name = center;
pos = (389,344);
},
{
name = ogonek;
pos = (383,0);
},
{
name = top;
pos = (462,688);
},
{
name = topleft;
pos = (112,688);
},
{
name = topright;
pos = (575,688);
}
);
background = {
anchors = (
{
name = bottom;
pos = (316,0);
},
{
name = center;
pos = (389,344);
},
{
name = ogonek;
pos = (383,0);
},
{
name = top;
pos = (462,688);
},
{
name = topleft;
pos = (112,688);
},
{
name = topright;
pos = (575,688);
}
);
shapes = (
{
closed = 1;
nodes = (
(602,-8,o),
(620,49,o),
(685,341,cs),
(704,426,o),
(714,488,o),
(714,537,cs),
(714,662,o),
(651,696,o),
(444,696,cs),
(166,696,o),
(145,638,o),
(85,347,cs),
(67,261,o),
(55,198,o),
(55,150,cs),
(55,26,o),
(118,-8,o),
(326,-8,cs)
);
},
{
closed = 1;
nodes = (
(226,96,o),
(186,98,o),
(186,169,cs),
(186,206,o),
(197,261,o),
(215,344,cs),
(266,587,o),
(276,592,o),
(437,592,cs),
(542,592,o),
(581,590,o),
(581,518,cs),
(581,480,o),
(572,425,o),
(554,344,cs),
(502,101,o),
(491,96,o),
(332,96,cs)
);
}
);
};
guides = (
{
angle = 78;
pos = (251,513);
},
{
angle = 258;
pos = (316,631);
},
{
angle = 258;
pos = (518,176);
},
{
angle = 78;
pos = (453,58);
}
);
layerId = "20A7088A-67D7-4614-84CF-19C576DDC019";
shapes = (
{
closed = 1;
nodes = (
(370,-8,o),
(408,-7,o),
(440,-3,c),
(465,114,l),
(436,97,o),
(396,96,o),
(332,96,cs),
(226,96,o),
(186,98,o),
(186,169,cs),
(186,206,o),
(197,261,o),
(215,344,cs),
(287,684,l),
(154,656,o),
(131,570,o),
(85,347,cs),
(67,261,o),
(55,198,o),
(55,150,cs),
(55,26,o),
(118,-8,o),
(326,-8,cs)
);
},
{
closed = 1;
nodes = (
(613,31,o),
(635,118,o),
(685,341,cs),
(704,426,o),
(714,488,o),
(714,537,cs),
(714,662,o),
(651,696,o),
(444,696,cs),
(399,696,o),
(361,695,o),
(329,691,c),
(304,575,l),
(332,591,o),
(373,592,o),
(437,592,cs),
(542,592,o),
(581,590,o),
(581,518,cs),
(581,480,o),
(571,425,o),
(554,344,cs),
(481,3,l)
);
}
);
width = 739;
},
{
anchors = (
{
name = bottom;
pos = (120.798,0);
},
{
name = center;
pos = (193.918,344);
},
{
name = ogonek;
pos = (163,0);
},
{
name = top;
pos = (267.037,688);
},
{
name = topleft;
pos = (112.037,688);
},
{
name = topright;
pos = (299,688);
}
);
background = {
anchors = (
{
name = bottom;
pos = (120.798,0);
},
{
name = center;
pos = (193.918,344);
},
{
name = ogonek;
pos = (163,0);
},
{
name = top;
pos = (267.037,688);
},
{
name = topleft;
pos = (112.037,688);
},
{
name = topright;
pos = (299,688);
}
);
shapes = (
{
closed = 1;
nodes = (
(242,-8,o),
(270,42,o),
(331,344,cs),
(356,464,o),
(370,543,o),
(370,597,cs),
(370,677,o),
(336,696,o),
(260,696,cs),
(148,696,o),
(119,644,o),
(60,344,cs),
(36,225,o),
(22,144,o),
(22,91,cs),
(22,10,o),
(55,-8,o),
(131,-8,cs)
);
},
{
closed = 1;
nodes = (
(82,26,o),
(57,32,o),
(57,99,cs),
(57,145,o),
(69,220,o),
(95,344,cs),
(157,645,o),
(182,662,o),
(263,662,cs),
(309,662,o),
(333,655,o),
(333,588,cs),
(333,542,o),
(321,466,o),
(295,344,cs),
(231,43,o),
(208,26,o),
(129,26,cs)
);
}
);
};
guides = (
{
angle = 78;
pos = (183,757);
},
{
angle = 78;
pos = (219,757);
},
{
angle = 78;
pos = (347,757);
},
{
angle = 78;
pos = (383,757);
}
);
layerId = UUID0;
shapes = (
{
closed = 1;
nodes = (
(152,-8,o),
(170,-6,o),
(186,-1,c),
(195,43,l),
(177,28,o),
(156,26,o),
(129,26,cs),
(82,26,o),
(57,32,o),
(57,99,cs),
(57,145,o),
(69,220,o),
(95,344,cs),
(163,664,l),
(122,622,o),
(97,532,o),
(60,344,cs),
(36,225,o),
(22,144,o),
(22,91,cs),
(22,10,o),
(55,-8,o),
(131,-8,cs)
);
},
{
closed = 1;
nodes = (
(268,64,o),
(293,155,o),
(331,344,cs),
(356,464,o),
(370,543,o),
(370,597,cs),
(370,677,o),
(336,696,o),
(260,696,cs),
(239,696,o),
(220,694,o),
(204,689,c),
(195,645,l),
(214,660,o),
(235,662,o),
(263,662,cs),
(309,662,o),
(333,655,o),
(333,588,cs),
(333,542,o),
(321,466,o),
(295,344,cs),
(227,24,l)
);
}
);
width = 350;
},
{
anchors = (
{
name = bottom;
pos = (116.798,0);
},
{
name = center;
pos = (189.918,344);
},
{
name = ogonek;
pos = (180,0);
},
{
name = top;
pos = (263.037,688);
},
{
name = topleft;
pos = (112.037,688);
},
{
name = topright;
pos = (281,688);
}
);
background = {
anchors = (
{
name = bottom;
pos = (116.798,0);
},
{
name = center;
pos = (189.918,344);
},
{
name = ogonek;
pos = (180,0);
},
{
name = top;
pos = (263.037,688);
},
{
name = topleft;
pos = (112.037,688);
},
{
name = topright;
pos = (281,688);
}
);
shapes = (
{
closed = 1;
nodes = (
(286,-8,o),
(298,111,o),
(349,348,cs),
(372,457,o),
(387,537,o),
(387,593,cs),
(387,666,o),
(351,696,o),
(249,696,cs),
(110,696,o),
(98,594,o),
(44,340,cs),
(21,231,o),
(6,152,o),
(6,97,cs),
(6,23,o),
(42,-8,o),
(142,-8,cs)
);
},
{
closed = 1;
nodes = (
(141,118,o),
(136,118,o),
(136,130,cs),
(136,151,o),
(148,204,o),
(178,344,cs),
(225,569,o),
(226,570,o),
(245,570,cs),
(252,570,o),
(256,570,o),
(256,557,cs),
(256,537,o),
(245,483,o),
(216,344,cs),
(168,119,o),
(167,118,o),
(148,118,cs)
);
}
);
};
guides = (
{
angle = 77.972;
pos = (210,520);
},
{
angle = 257.9052;
pos = (254,633);
}
);
layerId = "2A096AB6-16C2-4C34-8164-FCBBBF8CEAEB";
shapes = (
{
closed = 1;
nodes = (
(122,-8,o),
(123,-8,o),
(125,-8,c),
(152,118,l),
(150,118,o),
(149,118,o),
(148,118,cs),
(138,118,o),
(132,118,o),
(132,134,cs),
(132,157,o),
(144,212,o),
(172,344,cs),
(247,696,l),
(110,696,o),
(98,594,o),
(44,340,cs),
(21,230,o),
(6,152,o),
(6,97,cs),
(6,24,o),
(51,-8,o),
(121,-8,cs)
);
},
{
closed = 1;
nodes = (
(286,-7,o),
(298,111,o),
(349,348,cs),
(372,457,o),
(387,538,o),
(387,593,cs),
(387,668,o),
(340,696,o),
(271,696,cs),
(270,696,o),
(268,696,o),
(267,696,c),
(240,570,l),
(241,570,o),
(243,570,o),
(244,570,cs),
(254,570,o),
(260,570,o),
(260,554,cs),
(260,531,o),
(248,476,o),
(220,344,cs),
(145,-7,l)
);
}
);
width = 342;
},
{
anchors = (
{
name = bottom;
pos = (128.798,0);
},
{
name = center;
pos = (201.918,344);
},
{
name = ogonek;
pos = (178,0);
},
{
name = top;
pos = (275.037,688);
},
{
name = topleft;
pos = (112.037,688);
},
{
name = topright;
pos = (308,688);
}
);
background = {
anchors = (
{
name = bottom;
pos = (128.798,0);
},
{
name = center;
pos = (201.918,344);
},
{
name = ogonek;
pos = (178,0);
},
{
name = top;
pos = (275.037,688);
},
{
name = topleft;
pos = (112.037,688);
},
{
name = topright;
pos = (308,688);
}
);
shapes = (
{
closed = 1;
nodes = (
(277,-8,o),
(297,66,o),
(355,345,cs),
(379,461,o),
(394,542,o),
(394,596,cs),
(394,673,o),
(357,696,o),
(266,696,cs),
(137,696,o),
(117,629,o),
(57,343,cs),
(33,227,o),
(17,147,o),
(17,91,cs),
(17,15,o),
(53,-8,o),
(146,-8,cs)
);
},
{
closed = 1;
nodes = (
(112,63,o),
(96,66,o),
(96,114,cs),
(96,151,o),
(110,218,o),
(136,344,cs),
(192,614,o),
(204,625,o),
(266,625,cs),
(300,625,o),
(314,621,o),
(314,573,cs),
(314,538,o),
(304,470,o),
(277,344,cs),
(220,74,o),
(207,63,o),
(147,63,cs)
);
}
);
};
guides = (
{
angle = 78;
pos = (221,744);
},
{
angle = 258;
pos = (251,746);
},
{
angle = 78;
pos = (332,744);
},
{
angle = 258;
pos = (362,746);
}
);
layerId = "B988E418-9469-42FB-AD32-095B8D65BEE5";
shapes = (
{
closed = 1;
nodes = (
(155,-8,o),
(164,-8,o),
(173,-7,c),
(190,72,l),
(178,64,o),
(164,63,o),
(147,63,cs),
(112,63,o),
(96,66,o),
(96,114,cs),
(96,151,o),
(109,218,o),
(136,344,cs),
(209,690,l),
(129,667,o),
(107,581,o),
(57,343,cs),
(33,227,o),
(17,147,o),
(17,91,cs),
(17,15,o),
(53,-8,o),
(146,-8,cs)
);
},
{
closed = 1;
nodes = (
(285,22,o),
(306,112,o),
(355,345,cs),
(379,461,o),
(394,542,o),
(394,596,cs),
(394,673,o),
(357,696,o),
(266,696,cs),
(257,696,o),
(248,696,o),
(240,695,c),
(223,617,l),
(235,624,o),
(249,625,o),
(266,625,cs),
(300,625,o),
(314,621,o),
(314,573,cs),
(314,538,o),
(304,470,o),
(277,344,cs),
(203,-1,l)
);
}
);
width = 366;
},
{
anchors = (
{
name = bottom;
pos = (349.798,0);
},
{
name = center;
pos = (422.918,344);
},
{
name = ogonek;
pos = (484,0);
},
{
name = top;
pos = (496.037,688);
},
{
name = topleft;
pos = (112.037,688);
},
{
name = topright;
pos = (623,688);
}
);
background = {
anchors = (
{
name = bottom;
pos = (349.798,0);
},
{
name = center;
pos = (422.918,344);
},
{
name = ogonek;
pos = (484,0);
},
{
name = top;
pos = (496.037,688);
},
{
name = topleft;
pos = (112.037,688);
},
{
name = topright;
pos = (623,688);
}
);
shapes = (
{
closed = 1;
nodes = (
(691,-8,o),
(701,38,o),
(769,330,cs),
(788,412,o),
(799,476,o),
(799,527,cs),
(799,653,o),
(726,696,o),
(478,696,cs),
(144,696,o),
(121,642,o),
(69,358,cs),
(54,274,o),
(38,210,o),
(38,160,cs),
(38,34,o),
(112,-8,o),
(363,-8,cs)
);
},
{
closed = 1;
nodes = (
(330,174,o),
(309,176,o),
(309,215,cs),
(309,242,o),
(319,283,o),
(332,344,cs),
(368,509,o),
(369,514,o),
(455,514,cs),
(506,514,o),
(526,513,o),
(526,470,cs),
(526,444,o),
(518,402,o),
(506,344,c),
(469,179,o),
(466,174,o),
(381,174,cs)
);
}
);
};
guides = (
{
angle = 77;
pos = (424,744);
},
{
angle = 257;
pos = (463,745);
},
{
angle = 77;
pos = (559,744);
},
{
angle = 257;
pos = (598,745);
}
);
layerId = "8AB9AFA2-7010-440B-BFFC-1C7CDFA1A370";
shapes = (
{
closed = 1;
nodes = (
(371,-8,o),
(378,-8,o),
(385,-8,c),
(428,177,l),
(416,174,o),
(400,174,o),
(381,174,cs),
(330,174,o),
(309,176,o),
(309,215,cs),
(309,242,o),
(318,283,o),
(332,344,cs),
(413,695,l),
(141,687,o),
(118,622,o),
(69,358,cs),
(54,274,o),
(38,210,o),
(38,160,cs),
(38,34,o),
(112,-8,o),
(363,-8,cs)
);
},
{
closed = 1;
nodes = (
(692,-1,o),
(706,58,o),
(769,330,cs),
(788,412,o),
(799,476,o),
(799,527,cs),
(799,653,o),
(726,696,o),
(478,696,cs),
(469,696,o),
(460,696,o),
(451,696,c),
(409,512,l),
(421,514,o),
(436,514,o),
(455,514,cs),
(506,514,o),
(526,513,o),
(526,470,cs),
(526,444,o),
(520,402,o),
(506,344,cs),
(424,-7,l)
);
}
);
width = 807;
},
{
anchors = (
{
name = bottom;
pos = (362.798,0);
},
{
name = center;
pos = (435.918,344);
},
{
name = ogonek;
pos = (439,0);
},
{
name = top;
pos = (509.037,688);
},
{
name = topleft;
pos = (112.037,688);
},
{
name = topright;
pos = (649,688);
}
);
background = {
anchors = (
{
name = bottom;
pos = (362.798,0);
},
{
name = center;
pos = (435.918,344);
},
{
name = ogonek;
pos = (439,0);
},
{
name = top;
pos = (509.037,688);
},
{
name = topleft;
pos = (112.037,688);
},
{
name = topright;
pos = (649,688);
}
);
shapes = (
{
closed = 1;
nodes = (
(680,-8,o),
(699,41,o),
(765,340,cs),
(783,422,o),
(793,481,o),
(793,529,cs),
(793,662,o),
(723,696,o),
(491,696,cs),
(181,696,o),
(160,646,o),
(98,348,cs),
(80,265,o),
(69,205,o),
(69,158,cs),
(69,25,o),
(138,-8,o),
(372,-8,cs)
);
},
{
closed = 1;
nodes = (
(242,95,o),
(193,99,o),
(193,173,cs),
(193,213,o),
(204,268,o),
(220,344,cs),
(274,588,o),
(285,593,o),
(485,593,cs),
(620,593,o),
(668,590,o),
(668,514,cs),
(668,473,o),
(658,418,o),
(642,344,cs),
(587,100,o),
(575,95,o),
(377,95,cs)
);
}
);
};
guides = (
{
angle = 78;
pos = (361,796);
},
{
angle = 78;
pos = (316,794);
},
{
angle = 78;
pos = (738,796);
},
{
angle = 78;
pos = (693,794);
}
);
layerId = "8494D26F-946F-4BDA-8E04-2FD894ABFEA2";
shapes = (
{
closed = 1;
nodes = (
(433,-8,o),
(483,-6,o),
(524,-1,c),
(550,118,l),
(515,96,o),
(464,95,o),
(377,95,cs),
(242,95,o),
(193,99,o),
(193,173,cs),
(193,213,o),
(204,268,o),
(220,344,cs),
(292,680,l),
(166,649,o),
(143,563,o),
(98,348,cs),
(80,265,o),
(69,205,o),
(69,158,cs),
(69,25,o),
(138,-8,o),
(372,-8,cs)
);
},
{
closed = 1;
nodes = (
(694,39,o),
(717,125,o),
(765,340,cs),
(783,422,o),
(793,481,o),
(793,529,cs),
(793,662,o),
(723,696,o),
(491,696,cs),
(430,696,o),
(380,694,o),
(339,689,c),
(314,572,l),
(348,592,o),
(399,593,o),
(485,593,cs),
(620,593,o),
(668,590,o),
(668,514,cs),
(668,473,o),
(658,418,o),
(642,344,cs),
(570,8,l)
);
}
);
width = 834;
},
{
anchors = (
{
name = bottom;
pos = (368.798,0);
},
{
name = center;
pos = (441.918,344);
},
{
name = ogonek;
pos = (414,0);
},
{
name = top;
pos = (515.037,688);
},
{
name = topleft;
pos = (112.037,688);
},
{
name = topright;
pos = (662,688);
}
);
background = {
anchors = (
{
name = bottom;
pos = (368.798,0);
},
{
name = center;
pos = (441.918,344);
},
{
name = ogonek;
pos = (414,0);
},
{
name = top;
pos = (515.037,688);
},
{
name = topleft;
pos = (112.037,688);
},
{
name = topright;
pos = (662,688);
}
);
shapes = (
{
closed = 1;
nodes = (
(670,-8,o),
(687,27,o),
(756,344,cs),
(775,435,o),
(787,502,o),
(787,554,cs),
(787,677,o),
(724,696,o),
(503,696,cs),
(208,696,o),
(193,671,o),
(121,344,cs),
(101,252,o),
(90,182,o),
(90,132,cs),
(90,10,o),
(160,-8,o),
(374,-8,cs)
);
},
{
closed = 1;
nodes = (
(191,26,o),
(126,28,o),
(126,137,cs),
(126,185,o),
(138,250,o),
(157,344,cs),
(223,660,o),
(246,662,o),
(506,662,cs),
(685,662,o),
(751,660,o),
(751,550,cs),
(751,502,o),
(739,437,o),
(720,344,cs,{
name = "0.8 ⛔️";
}),
(652,28,o),
(629,26,o),
(371,26,cs)
);
}
);
};
guides = (
{
angle = 78;
pos = (304,798);
},
{
angle = 78;
pos = (253,794);
},
{
angle = 78;
pos = (816,798);
},
{
angle = 78;
pos = (765,794);
}
);
layerId = "527899E9-AC81-44FE-89AA-146AC27955A1";
shapes = (
{
closed = 1;
nodes = (
(480,-8,o),
(550,-4,o),
(600,17,c),
(609,61,l),
(563,26,o),
(493,26,o),
(371,26,cs),
(191,26,o),
(126,28,o),
(126,137,cs),
(126,185,o),
(137,250,o),
(157,344,cs),
(219,632,l),
(176,583,o),
(154,496,o),
(121,344,cs),
(101,252,o),
(90,182,o),
(90,132,cs),
(90,10,o),
(160,-8,o),
(374,-8,cs)
);
},
{
closed = 1;
nodes = (
(703,108,o),
(724,195,o),
(756,344,cs),
(775,435,o),
(787,502,o),
(787,554,cs),
(787,677,o),
(724,696,o),
(503,696,cs),
(397,696,o),
(327,693,o),
(278,673,c),
(268,629,l),
(315,662,o),
(384,662,o),
(506,662,cs),
(685,662,o),
(751,660,o),
(751,550,cs),
(751,502,o),
(740,437,o),
(720,344,cs,{
name = "0.8 ⛔️";
}),
(659,58,l)
);
}
);
width = 846;
}
);
unicode = 79;
},
{
glyphname = Ohorn;
kernLeft = O;
kernRight = O;
layers = (
{
anchors = (
{
name = _topright;
pos = (574,688);
},
{
name = bottom;
pos = (308.798,0);
},
{
name = top;
pos = (455.037,688);
},
{
name = topright;
pos = (595,786);
}
);
background = {
anchors = (
{
name = _topright;
pos = (574,688);
},
{
name = bottom;
pos = (308.798,0);
},
{
name = top;
pos = (455.037,688);
},
{
name = topright;
pos = (595,786);
}
);
shapes = (
{
closed = 1;
nodes = (
(627,660,ls),
(694,660,o),
(714,680,o),
(731,758,cs),
(737,786,l),
(702,786,l),
(694,751,ls),
(683,702,o),
(676,688,o),
(631,688,c),
(574,688,l),
(568,660,l)
);
},
{
ref = O;
}
);
};
layerId = "CD898CA3-FB76-4965-A23E-9AA06D1CE2B1";
shapes = (
{
closed = 1;
nodes = (
(627,660,ls),
(694,660,o),
(714,680,o),
(731,758,cs),
(737,786,l),
(702,786,l),
(694,751,ls),
(683,702,o),
(676,688,o),
(631,688,c),
(574,688,l),
(568,660,l)
);
},
{
ref = O;
}
);
width = 726;
},
{
anchors = (
{
name = _topright;
pos = (537,688);
},
{
name = bottom;
pos = (293.798,0);
},
{
name = top;
pos = (440.037,688);
},
{
name = topright;
pos = (556,776);
}
);
background = {
anchors = (
{
name = _topright;
pos = (537,688);
},
{
name = bottom;
pos = (293.798,0);
},
{
name = top;
pos = (440.037,688);
},
{
name = topright;
pos = (556,776);
}
);
shapes = (
{
closed = 1;
nodes = (
(548,616,ls),
(731,616,o),
(758,649,o),
(784,763,cs),
(787,776,l),
(652,776,l),
(647,754,ls),
(636,704,o),
(626,688,o),
(563,688,c),
(537,688,l),
(522,616,l)
);
},
{
ref = O;
}
);
};
layerId = "B4DE345C-CFDB-4A54-B125-3358BD91D59F";
shapes = (
{
closed = 1;
nodes = (
(548,616,ls),
(731,616,o),
(758,649,o),
(784,763,cs),
(787,776,l),
(652,776,l),
(647,754,ls),
(636,704,o),
(626,688,o),
(563,688,c),
(537,688,l),
(522,616,l)
);
},
{
ref = O;
}
);
width = 695;
},
{
anchors = (
{
name = _topright;
pos = (575,688);
},
{
name = bottom;
pos = (315.798,0);
},
{
name = top;
pos = (462.037,688);
},
{
name = topright;
pos = (594,779);
}
);
background = {
anchors = (
{
name = _topright;
pos = (575,688);
},
{
name = bottom;
pos = (315.798,0);
},
{
name = top;
pos = (462.037,688);
},
{
name = topright;
pos = (594,779);
}
);
shapes = (
{
closed = 1;
nodes = (
(619,639,ls),
(742,639,o),
(768,665,o),
(788,760,cs),
(792,779,l),
(710,779,l),
(704,753,ls),
(693,703,o),
(684,688,o),
(629,688,c),
(575,688,l),
(565,639,l)
);
},
{
ref = O;
}
);
};
layerId = "20A7088A-67D7-4614-84CF-19C576DDC019";
shapes = (
{
closed = 1;
nodes = (
(619,639,ls),
(742,639,o),
(768,665,o),
(788,760,cs),
(792,779,l),
(710,779,l),
(704,753,ls),
(693,703,o),
(684,688,o),
(629,688,c),
(575,688,l),
(565,639,l)
);
},
{
ref = O;
}
);
width = 739;
},
{
anchors = (
{
name = _topright;
pos = (299,688);
},
{
name = bottom;
pos = (120.798,0);
},
{
name = top;
pos = (267.037,688);
},
{
name = topright;
pos = (321,786);
}
);
background = {
anchors = (
{
name = _topright;
pos = (299,688);
},
{
name = bottom;
pos = (120.798,0);
},
{
name = top;
pos = (267.037,688);
},
{
name = topright;
pos = (321,786);
}
);
shapes = (
{
closed = 1;
nodes = (
(333,660,ls),
(393,660,o),
(406,679,o),
(421,749,cs),
(429,786,l),
(397,786,l),
(388,742,ls),
(381,706,o),
(372,688,o),
(333,688,cs),
(299,688,l),
(293,660,l)
);
},
{
ref = O;
}
);
};
layerId = UUID0;
shapes = (
{
closed = 1;
nodes = (
(333,660,ls),
(393,660,o),
(406,679,o),
(421,749,cs),
(429,786,l),
(397,786,l),
(388,742,ls),
(381,706,o),
(372,688,o),
(333,688,cs),
(299,688,l),
(293,660,l)
);
},
{
ref = O;
}
);
width = 350;
},
{
anchors = (
{
name = _topright;
pos = (281,688);
},
{
name = bottom;
pos = (116.798,0);
},
{
name = top;
pos = (263.037,688);
},
{
name = topright;
pos = (300,776);
}
);
background = {
anchors = (
{
name = _topright;
pos = (281,688);
},
{
name = bottom;
pos = (116.798,0);
},
{
name = top;
pos = (263.037,688);
},
{
name = topright;
pos = (300,776);
}
);
shapes = (
{
closed = 1;
nodes = (
(326,628,ls),
(440,628,o),
(456,644,o),
(481,762,cs),
(484,776,l),
(403,776,l),
(397,740,ls),
(390,701,o),
(376,688,o),
(340,688,cs),
(281,688,l),
(268,628,l)
);
},
{
ref = O;
}
);
};
layerId = "2A096AB6-16C2-4C34-8164-FCBBBF8CEAEB";
shapes = (
{
closed = 1;
nodes = (
(326,628,ls),
(440,628,o),
(456,644,o),
(481,762,cs),
(484,776,l),
(403,776,l),
(397,740,ls),
(390,701,o),
(376,688,o),
(340,688,cs),
(281,688,l),
(268,628,l)
);
},
{
ref = O;
}
);
width = 342;
},
{
anchors = (
{
name = _topright;
pos = (308,688);
},
{
name = bottom;
pos = (128.798,0);
},
{
name = top;
pos = (275.037,688);
},
{
name = topright;
pos = (328,779);
}
);
background = {
anchors = (
{
name = _topright;
pos = (308,688);
},
{
name = bottom;
pos = (128.798,0);
},
{
name = top;
pos = (275.037,688);
},
{
name = topright;
pos = (328,779);
}
);
shapes = (
{
closed = 1;
nodes = (
(346,646,ls),
(430,646,o),
(449,670,o),
(463,755,cs),
(467,779,l),
(414,779,l),
(407,742,ls),
(400,705,o),
(390,688,o),
(353,688,cs),
(308,688,l),
(300,646,l)
);
},
{
ref = O;
}
);
};
layerId = "B988E418-9469-42FB-AD32-095B8D65BEE5";
shapes = (
{
closed = 1;
nodes = (
(346,646,ls),
(430,646,o),
(449,670,o),
(463,755,cs),
(467,779,l),
(414,779,l),
(407,742,ls),
(400,705,o),
(390,688,o),
(353,688,cs),
(308,688,l),
(300,646,l)
);
},
{
ref = O;
}
);
width = 366;
},
{
anchors = (
{
name = _topright;
pos = (623,688);
},
{
name = bottom;
pos = (349.798,0);
},
{
name = top;
pos = (496.037,688);
},
{
name = topright;
pos = (642,776);
}
);
background = {
anchors = (
{
name = _topright;
pos = (623,688);
},
{
name = bottom;
pos = (349.798,0);
},
{
name = top;
pos = (496.037,688);
},
{
name = topright;
pos = (642,776);
}
);
shapes = (
{
closed = 1;
nodes = (
(623,613,ls),
(828,613,o),
(867,645,o),
(887,764,cs),
(889,776,l),
(736,776,l),
(733,758,ls,{
name = "0.8 ⛔️";
}),
(721,705,o),
(711,688,o),
(639,688,cs),
(623,688,l),
(608,613,l)
);
},
{
ref = O;
}
);
};
layerId = "8AB9AFA2-7010-440B-BFFC-1C7CDFA1A370";
shapes = (
{
closed = 1;
nodes = (
(623,613,ls),
(828,613,o),
(867,645,o),
(887,764,cs),
(889,776,l),
(736,776,l),
(733,758,ls,{
name = "0.8 ⛔️";
}),
(721,705,o),
(711,688,o),
(639,688,cs),
(623,688,l),
(608,613,l)
);
},
{
ref = O;
}
);
width = 807;
},
{
anchors = (
{
name = _topright;
pos = (649,688);
},
{
name = bottom;
pos = (362.798,0);
},
{
name = top;
pos = (509.037,688);
},
{
name = topright;
pos = (669,779);
}
);
background = {
anchors = (
{
name = _topright;
pos = (649,688);
},
{
name = bottom;
pos = (362.798,0);
},
{
name = top;
pos = (509.037,688);
},
{
name = topright;
pos = (669,779);
}
);
shapes = (
{
closed = 1;
nodes = (
(698,641,ls),
(831,641,o),
(844,667,o),
(865,761,cs),
(869,779,l),
(790,779,l),
(785,756,ls),
(774,703,o),
(764,688,o),
(708,688,cs),
(649,688,l),
(640,641,l)
);
},
{
ref = O;
}
);
};
layerId = "8494D26F-946F-4BDA-8E04-2FD894ABFEA2";
shapes = (
{
closed = 1;
nodes = (
(698,641,ls),
(831,641,o),
(844,667,o),
(865,761,cs),
(869,779,l),
(790,779,l),
(785,756,ls),
(774,703,o),
(764,688,o),
(708,688,cs),
(649,688,l),
(640,641,l)
);
},
{
ref = O;
}
);
width = 834;
},
{
anchors = (
{
name = _topright;
pos = (662,688);
},
{
name = bottom;
pos = (368.798,0);
},
{
name = top;
pos = (515.037,688);
},
{
name = topright;
pos = (684,786);
}
);
background = {
anchors = (
{
name = _topright;
pos = (662,688);
},
{
name = bottom;
pos = (368.798,0);
},
{
name = top;
pos = (515.037,688);
},
{
name = topright;
pos = (684,786);
}
);
shapes = (
{
closed = 1;
nodes = (
(725,660,ls),
(792,660,o),
(812,680,o),
(829,758,cs),
(835,786,l),
(800,786,l),
(792,751,ls),
(781,702,o),
(774,688,o),
(729,688,cs),
(662,688,l),
(656,660,l)
);
},
{
ref = O;
}
);
};
layerId = "527899E9-AC81-44FE-89AA-146AC27955A1";
shapes = (
{
closed = 1;
nodes = (
(725,660,ls),
(792,660,o),
(812,680,o),
(829,758,cs),
(835,786,l),
(800,786,l),
(792,751,ls),
(781,702,o),
(774,688,o),
(729,688,cs),
(662,688,l),
(656,660,l)
);
},
{
ref = O;
}
);
width = 846;
}
);
unicode = 416;
},
